<?xml version="1.0" encoding="UTF-8"?>
<svg version="1.1" xmlns="http://www.w3.org/2000/svg" width="449" height="504">
<path d="M0 0 C148.17 0 296.34 0 449 0 C449 166.32 449 332.64 449 504 C300.83 504 152.66 504 0 504 C0 337.68 0 171.36 0 0 Z " fill="#F1F1F1" transform="translate(0,0)"/>
<path d="M0 0 C0.19608295 19.63242801 -0.05950199 39.23437446 -0.62109375 58.859375 C-0.65268837 59.96365215 -0.68428299 61.06792931 -0.71683502 62.2056694 C-0.8834435 67.98727514 -1.05354356 73.76877284 -1.22515869 79.55023193 C-2.29456861 115.65537903 -3.24120782 151.75555885 -3.625 187.875 C-3.63757969 189.05479053 -3.63757969 189.05479053 -3.65041351 190.25841522 C-3.71467877 196.3235098 -3.77776078 202.38861818 -3.83797455 208.45375443 C-3.98372516 223.09621965 -4.24735959 237.73514551 -4.5625 252.375 C-4.5849176 253.41879822 -4.60733521 254.46259644 -4.63043213 255.5380249 C-4.74920576 261.0254556 -4.87220849 266.51277213 -5 272 C-7.86327834 273.20287208 -8.94223196 273.02209379 -11.89746094 271.8918457 C-12.99864258 271.32554443 -14.09982422 270.75924316 -15.234375 270.17578125 C-15.83123108 269.87310837 -16.42808716 269.57043549 -17.04302979 269.2585907 C-18.95129105 268.28769936 -20.85056304 267.30052524 -22.75 266.3125 C-24.01245549 265.66621218 -25.27547152 265.02101807 -26.5390625 264.37695312 C-28.95560813 263.14338425 -31.36825209 261.90306948 -33.77929688 260.65869141 C-37.50414316 258.74036168 -41.24694217 256.86238422 -45 255 C-45.33 257.64 -45.66 260.28 -46 263 C-49.42199316 264.46155657 -52.68171156 265.46269911 -56.328125 266.19140625 C-57.41287109 266.40925781 -58.49761719 266.62710937 -59.61523438 266.8515625 C-61.41444336 267.20347656 -61.41444336 267.20347656 -63.25 267.5625 C-64.53197266 267.81644531 -65.81394531 268.07039063 -67.13476562 268.33203125 C-82.02815045 271.26232054 -96.96824027 273.94846845 -111.90185547 276.66430664 C-124.9197726 279.03658064 -137.91082106 281.49888084 -150.85742188 284.23632812 C-157.56442175 285.62804074 -164.16380368 286.54414018 -171 287 C-176.76171875 275.4765625 -176.76171875 275.4765625 -177.78368759 273.39277458 C-178.57672049 271.83269105 -179.41081407 270.29261434 -180.28970718 268.77923775 C-183.9582848 262.22329204 -184.71768248 256.94896462 -184.64355469 249.51123047 C-184.65245193 248.40095332 -184.66134916 247.29067617 -184.67051601 246.14675426 C-184.69424046 242.46992428 -184.68302826 238.79406362 -184.671875 235.1171875 C-184.68220256 232.50018861 -184.69481101 229.88319786 -184.70954895 227.26622009 C-184.73776802 221.69685733 -184.74879318 216.12768933 -184.74758911 210.55825806 C-184.74594811 201.84428887 -184.77824144 193.13062269 -184.81616211 184.41674805 C-184.82850721 181.49333278 -184.84059646 178.56991651 -184.85255432 175.64649963 C-184.85552975 174.92331856 -184.85850518 174.20013748 -184.86157078 173.45504183 C-184.88215437 168.33400395 -184.89783478 163.21296498 -184.91123962 158.09190369 C-184.95766603 140.71521787 -185.06098777 123.3404879 -185.26953125 105.96484375 C-185.28171818 104.94914055 -185.29390511 103.93343735 -185.30646133 102.88695526 C-185.37681498 97.10128438 -185.45088805 91.31566689 -185.52687073 85.53006744 C-185.58447445 81.13643294 -185.64062584 76.74278057 -185.69628906 72.34912109 C-185.70687631 71.52130473 -185.71746355 70.69348837 -185.72837162 69.84058666 C-185.77811994 65.89087949 -185.82387089 61.94120414 -185.86009216 57.99134827 C-185.87376776 56.51172891 -185.8874447 55.03210957 -185.90112305 53.55249023 C-185.90756049 52.83763616 -185.91399794 52.12278208 -185.92063046 51.38626575 C-185.96371186 47.11415738 -186.04741655 42.845066 -186.16374493 38.57433987 C-186.21683394 36.52637315 -186.25818701 34.47853962 -186.29502869 32.43022156 C-186.34143407 29.95795964 -186.40817841 27.48595117 -186.5002594 25.01496887 C-186.58688226 18.82038849 -186.217693 14.89433004 -182.03773499 10.16011047 C-179.86034127 8.17108595 -177.48838193 6.57222259 -175 5 C-174.67 4.34 -174.34 3.68 -174 3 C-146.70617086 2.4102024 -119.60669702 4.04046698 -92.37786865 5.78137207 C-86.5642266 6.15081635 -80.74985633 6.50842825 -74.93554688 6.8671875 C-63.62297689 7.56687928 -52.31124091 8.27916172 -41 9 C-41 9.66 -41 10.32 -41 11 C-37.10334833 9.91959582 -33.20768883 8.83566624 -29.3125 7.75 C-28.16958496 7.431521 -27.02666992 7.11304199 -25.84912109 6.78491211 C-18.94312014 4.85129081 -12.07747318 2.84947696 -5.2578125 0.62890625 C-3 0 -3 0 0 0 Z " fill="#BA9374" transform="translate(328,118)"/>
<path d="M0 0 C0.19608295 19.63242801 -0.05950199 39.23437446 -0.62109375 58.859375 C-0.65268837 59.96365215 -0.68428299 61.06792931 -0.71683502 62.2056694 C-0.8834435 67.98727514 -1.05354356 73.76877284 -1.22515869 79.55023193 C-2.29456861 115.65537903 -3.24120782 151.75555885 -3.625 187.875 C-3.63757969 189.05479053 -3.63757969 189.05479053 -3.65041351 190.25841522 C-3.71467877 196.3235098 -3.77776078 202.38861818 -3.83797455 208.45375443 C-3.98372516 223.09621965 -4.24735959 237.73514551 -4.5625 252.375 C-4.5849176 253.41879822 -4.60733521 254.46259644 -4.63043213 255.5380249 C-4.74920576 261.0254556 -4.87220849 266.51277213 -5 272 C-7.86776959 273.20640497 -8.95055862 273.0188062 -11.91333008 271.8918457 C-13.02087646 271.32554443 -14.12842285 270.75924316 -15.26953125 270.17578125 C-15.868759 269.87310837 -16.46798676 269.57043549 -17.08537292 269.2585907 C-19.00031093 268.28766756 -20.90618177 267.30022092 -22.8125 266.3125 C-24.08344649 265.66625877 -25.35492618 265.02106503 -26.62695312 264.37695312 C-31.52375126 261.88680647 -36.4096701 259.3897745 -41.15625 256.62109375 C-48.46210627 252.45635426 -55.81636998 252.7544911 -64 253 C-62.02 252.01 -62.02 252.01 -60 251 C-68.74480321 251.59960361 -77.34201459 252.71177791 -86 254.0625 C-88.37458668 254.4310583 -90.74957215 254.79705894 -93.125 255.16015625 C-94.15882813 255.32136963 -95.19265625 255.48258301 -96.2578125 255.64868164 C-99 256 -99 256 -103 256 C-103 257.32 -103 258.64 -103 260 C-103.99 259.67 -104.98 259.34 -106 259 C-105.97494385 257.70312256 -105.9498877 256.40624512 -105.92407227 255.07006836 C-105.21085047 217.46516641 -104.81794829 179.86008852 -104.5 142.25 C-104.21766848 108.85301732 -103.90781225 75.45742629 -103.4375 42.0625 C-103.42633148 41.26850296 -103.41516296 40.47450592 -103.40365601 39.65644836 C-103.27364845 30.43756399 -103.13961697 21.21874437 -103 12 C-102.34 12.33 -101.68 12.66 -101 13 C-99.35492465 13.14093381 -97.70485875 13.2258415 -96.0546875 13.28125 C-95.05953125 13.31863281 -94.064375 13.35601562 -93.0390625 13.39453125 C-91.99492187 13.42933594 -90.95078125 13.46414062 -89.875 13.5 C-83.18996082 13.72789906 -76.62438247 14.04685144 -70 15 C-70 16.98 -70 18.96 -70 21 C-70.99 21 -71.98 21 -73 21 C-72.26330078 22.11761719 -72.26330078 22.11761719 -71.51171875 23.2578125 C-69.06081876 28.15961247 -69.68416768 33.53111077 -69.8125 38.875 C-69.83280273 40.47988281 -69.83280273 40.47988281 -69.85351562 42.1171875 C-69.88871376 44.74531511 -69.93795307 47.37239194 -70 50 C-69.34 50 -68.68 50 -68 50 C-68 50.99 -68 51.98 -68 53 C-67.47664063 52.65324219 -66.95328125 52.30648437 -66.4140625 51.94921875 C-63.11118956 50.65051628 -60.84695314 51.20510413 -57.375 51.8125 C-56.22773438 52.00457031 -55.08046875 52.19664062 -53.8984375 52.39453125 C-51 53 -51 53 -49 54 C-49.00523682 52.86457764 -49.01047363 51.72915527 -49.01586914 50.55932617 C-49.03396038 46.34937324 -49.04544714 42.13942376 -49.05493164 37.92944336 C-49.0599624 36.10684634 -49.06678769 34.28425335 -49.07543945 32.46166992 C-49.08755997 29.84292606 -49.09324086 27.22423553 -49.09765625 24.60546875 C-49.10281754 23.78974899 -49.10797882 22.97402924 -49.11329651 22.1335907 C-49.1136246 18.82986071 -49.05225621 16.15676862 -48 13 C-45.9375 12.3125 -45.9375 12.3125 -44 12 C-44 11.34 -44 10.68 -44 10 C-42.78699219 9.90589844 -41.57398438 9.81179687 -40.32421875 9.71484375 C-33.98107415 9.00839449 -27.94768636 7.2692289 -21.8125 5.5625 C-20.08870117 5.09360352 -20.08870117 5.09360352 -18.33007812 4.61523438 C-12.03005563 2.89423275 -12.03005563 2.89423275 -5.81518555 0.89428711 C-3 0 -3 0 0 0 Z " fill="#A78A72" transform="translate(328,118)"/>
<path d="M0 0 C-0.20616188 0.9558902 -0.20616188 0.9558902 -0.41648865 1.93109131 C-1.93031119 9.48189081 -2.40525439 16.82829177 -2.59765625 24.515625 C-2.63657486 25.81797592 -2.67549347 27.12032684 -2.71559143 28.46214294 C-2.82030391 31.99237687 -2.91394893 35.5228217 -3.00495148 39.05343246 C-3.06270323 41.25775716 -3.1237564 43.46196531 -3.18597412 45.66616821 C-4.08258124 77.43885111 -4.59871274 109.21759954 -5 141 C-4.01 138.69 -3.02 136.38 -2 134 C-0.68 134 0.64 134 2 134 C2.33 133.34 2.66 132.68 3 132 C3 135.63 3 139.26 3 143 C2.01 142.67 1.02 142.34 0 142 C-0.00938567 142.61237235 -0.01877134 143.2247447 -0.02844143 143.85567379 C-0.25683928 158.73560943 -0.49063632 173.61545281 -0.73049068 188.49520779 C-0.84634993 195.69085793 -0.96036149 202.8865286 -1.07006836 210.08227539 C-1.16566028 216.35190858 -1.26467303 222.62147665 -1.36784559 228.89098984 C-1.42238613 232.21261331 -1.47466815 235.53424777 -1.5238781 238.85595512 C-1.57901671 242.55827512 -1.64020113 246.2604476 -1.70288086 249.96264648 C-1.71798706 251.07178909 -1.73309326 252.1809317 -1.74865723 253.32368469 C-1.7668602 254.32634369 -1.78506317 255.32900269 -1.80381775 256.36204529 C-1.81764464 257.23867042 -1.83147154 258.11529554 -1.84571743 259.01848507 C-2 261 -2 261 -3 262 C-4.66617115 262.04063832 -6.33388095 262.042721 -8 262 C-8.33 259.69 -8.66 257.38 -9 255 C-9.33 256.65 -9.66 258.3 -10 260 C-12.4375 259.1875 -12.4375 259.1875 -15 258 C-15.33 257.01 -15.66 256.02 -16 255 C-17.32 255 -18.64 255 -20 255 C-20 254.34 -20 253.68 -20 253 C-20.66 252.9175 -21.32 252.835 -22 252.75 C-25.25862003 251.93534499 -27.81470187 250.64588579 -30.7421875 249.03515625 C-33.7354006 247.66283537 -36.83222655 246.88208607 -40 246 C-39.8837798 230.99992302 -39.75683463 215.99994748 -39.625 201 C-39.61498207 199.85013988 -39.60496414 198.70027977 -39.59464264 197.51557541 C-39.32349923 166.53039677 -38.95705476 135.5485741 -38.453125 104.56640625 C-38.4291596 103.08607368 -38.40520201 101.60574099 -38.38125229 100.12540817 C-38.15775224 86.33282069 -37.92915584 72.54033357 -37.68440533 58.74810559 C-37.57599039 52.62917256 -37.47235826 46.51016661 -37.37017059 40.39112663 C-37.32681722 37.85895331 -37.28152114 35.32681243 -37.23419952 32.79471016 C-37.16953381 29.33268457 -37.11113521 25.87060727 -37.05419922 22.40844727 C-37.03347162 21.38864273 -37.01274403 20.3688382 -36.99138832 19.31813049 C-36.97037843 17.92654724 -36.97037843 17.92654724 -36.94894409 16.5068512 C-36.93457243 15.70337533 -36.92020077 14.89989946 -36.9053936 14.07207584 C-36.91471697 11.80146748 -36.91471697 11.80146748 -38 9 C-36.68 8.67 -35.36 8.34 -34 8 C-34 7.34 -34 6.68 -34 6 C-32.10701172 5.84917969 -32.10701172 5.84917969 -30.17578125 5.6953125 C-23.66860302 4.97413316 -17.60294157 2.9430672 -11.37695312 0.99609375 C-10.48298828 0.72667969 -9.58902344 0.45726563 -8.66796875 0.1796875 C-7.86641357 -0.07055176 -7.0648584 -0.32079102 -6.23901367 -0.57861328 C-3.77706203 -1.04195736 -2.3765751 -0.6724931 0 0 Z " fill="#B28B6B" transform="translate(318,122)"/>
<path d="M0 0 C27.29382914 -0.5897976 54.39330298 1.04046698 81.62213135 2.78137207 C87.4357734 3.15081635 93.25014367 3.50842825 99.06445312 3.8671875 C110.37702311 4.56687928 121.68875909 5.27916172 133 6 C132.01 6.33 131.02 6.66 130 7 C130 7.66 130 8.32 130 9 C128.68 9.33 127.36 9.66 126 10 C125.67 23.53 125.34 37.06 125 51 C115 50 115 50 112.125 49.375 C109.76638982 48.95877467 108.25403043 49.24865652 106 50 C106 49.01 106 48.02 106 47 C104.515 47.495 104.515 47.495 103 48 C103.01047363 47.2886792 103.02094727 46.5773584 103.03173828 45.84448242 C103.07328001 42.62552414 103.09932039 39.40662224 103.125 36.1875 C103.15013672 34.50817383 103.15013672 34.50817383 103.17578125 32.79492188 C103.18222656 31.72177734 103.18867188 30.64863281 103.1953125 29.54296875 C103.20578613 28.55321045 103.21625977 27.56345215 103.22705078 26.54370117 C103.18267404 23.7556048 103.18267404 23.7556048 101 21 C101 20.01 101 19.02 101 18 C101.99 18 102.98 18 104 18 C104 16.02 104 14.04 104 12 C103.37955811 11.97494385 102.75911621 11.9498877 102.11987305 11.92407227 C99.30887603 11.80803279 96.49820759 11.68534241 93.6875 11.5625 C92.71103516 11.52318359 91.73457031 11.48386719 90.72851562 11.44335938 C89.79072266 11.40146484 88.85292969 11.35957031 87.88671875 11.31640625 C86.59060669 11.26141968 86.59060669 11.26141968 85.26831055 11.20532227 C82.3314301 10.93948259 79.7918077 9.93060257 77 9 C75.03489806 8.83203698 73.06525379 8.71539397 71.0949707 8.62695312 C69.87973221 8.57019409 68.66449371 8.51343506 67.41242981 8.45495605 C66.09683578 8.39763306 64.78124176 8.34031006 63.42578125 8.28125 C62.05915729 8.21827644 60.69255488 8.15483351 59.32597351 8.09094238 C55.72396139 7.92339121 52.12175921 7.76041613 48.51947021 7.59893799 C42.77193199 7.34127712 37.02457736 7.07994828 31.2774868 6.81248474 C29.27921471 6.72063156 27.28075926 6.63279568 25.28230286 6.54504395 C19.13813068 6.26174787 13.08742618 5.89072631 7 5 C7.13816959 8.64616671 7.28681534 12.29183074 7.4375 15.9375 C7.47681641 16.97841797 7.51613281 18.01933594 7.55664062 19.09179688 C7.59853516 20.08115234 7.64042969 21.07050781 7.68359375 22.08984375 C7.72025146 23.00628662 7.75690918 23.92272949 7.79467773 24.86694336 C7.77003864 26.9820728 7.77003864 26.9820728 9 28 C9.09323196 29.37273959 9.11745597 30.75024807 9.11352539 32.12614441 C9.1134549 33.01601547 9.1133844 33.90588654 9.11331177 34.82272339 C9.10814545 35.80701324 9.10297913 36.7913031 9.09765625 37.80541992 C9.09619598 38.83646347 9.09473572 39.86750702 9.0932312 40.92979431 C9.08941315 43.17952638 9.08328408 45.4292554 9.07516479 47.67897606 C9.06243309 51.2492317 9.0558923 54.81945027 9.05102539 58.38972473 C9.03762806 67.27059829 9.01359089 76.15143735 8.98962402 85.0322876 C8.96980264 92.5131899 8.95418982 99.99407848 8.94406128 107.47500038 C8.93762605 110.97442187 8.92511006 114.47378702 8.91235352 117.97319031 C8.89080498 127.43835599 8.96457358 136.78790525 9.77069092 146.22392273 C10.34980892 155.76037147 10.14230777 165.34412895 10.1328125 174.89453125 C10.13348738 177.29676829 10.13445893 179.69900526 10.13571167 182.10124207 C10.13717857 187.11136532 10.13506571 192.12147064 10.13037109 197.1315918 C10.12465895 203.53796971 10.12796861 209.94430586 10.13394356 216.35068226 C10.13756327 221.30159315 10.13640435 226.25249419 10.13381577 231.20340538 C10.1331512 233.56559949 10.13395838 235.92779451 10.13629532 238.28998756 C10.13884675 241.59154242 10.13494689 244.89303019 10.12939453 248.19458008 C10.13141876 249.15945847 10.13344299 250.12433685 10.13552856 251.11845398 C10.11783724 256.82321066 9.72788813 262.3406122 9 268 C9.74266113 267.81896729 10.48532227 267.63793457 11.25048828 267.45141602 C19.68492487 265.44496629 28.14426337 263.80802689 36.68310547 262.32006836 C38.86645676 261.93899112 41.04848415 261.55092698 43.23046875 261.16210938 C52.46108452 259.53228375 61.69823721 258.1603894 71 257 C71 255.68 71 254.36 71 253 C79.76791997 251.07433533 88.54630309 249.5477621 97.4375 248.3125 C98.35998535 248.18125732 99.2824707 248.05001465 100.23291016 247.91479492 C105.54268985 247.19911227 110.64277797 246.86841911 116 247 C115.34 247.66 114.68 248.32 114 249 C115.155 248.95875 116.31 248.9175 117.5 248.875 C121.94481301 248.85912567 125.73724131 249.78206895 130 251 C129.79839367 252.46239815 129.56262996 253.92011565 129.3125 255.375 C129.12107422 256.59316406 129.12107422 256.59316406 128.92578125 257.8359375 C128 260 128 260 125.77514648 261.06079102 C123.07383659 261.97501105 120.46723967 262.63277453 117.671875 263.19140625 C116.58712891 263.40925781 115.50238281 263.62710937 114.38476562 263.8515625 C112.58555664 264.20347656 112.58555664 264.20347656 110.75 264.5625 C109.46802734 264.81644531 108.18605469 265.07039063 106.86523438 265.33203125 C91.97184955 268.26232054 77.03175973 270.94846845 62.09814453 273.66430664 C49.0802274 276.03658064 36.08917894 278.49888084 23.14257812 281.23632812 C16.43557825 282.62804074 9.83619632 283.54414018 3 284 C-2.76171875 272.4765625 -2.76171875 272.4765625 -3.78368759 270.39277458 C-4.57672049 268.83269105 -5.41081407 267.29261434 -6.28970718 265.77923775 C-9.9582848 259.22329204 -10.71768248 253.94896462 -10.64355469 246.51123047 C-10.65245193 245.40095332 -10.66134916 244.29067617 -10.67051601 243.14675426 C-10.69424046 239.46992428 -10.68302826 235.79406362 -10.671875 232.1171875 C-10.68220256 229.50018861 -10.69481101 226.88319786 -10.70954895 224.26622009 C-10.73776802 218.69685733 -10.74879318 213.12768933 -10.74758911 207.55825806 C-10.74594811 198.84428887 -10.77824144 190.13062269 -10.81616211 181.41674805 C-10.82850721 178.49333278 -10.84059646 175.56991651 -10.85255432 172.64649963 C-10.85552975 171.92331856 -10.85850518 171.20013748 -10.86157078 170.45504183 C-10.88215437 165.33400395 -10.89783478 160.21296498 -10.91123962 155.09190369 C-10.95766603 137.71521787 -11.06098777 120.3404879 -11.26953125 102.96484375 C-11.28171818 101.94914055 -11.29390511 100.93343735 -11.30646133 99.88695526 C-11.37681498 94.10128438 -11.45088805 88.31566689 -11.52687073 82.53006744 C-11.58447445 78.13643294 -11.64062584 73.74278057 -11.69628906 69.34912109 C-11.70687631 68.52130473 -11.71746355 67.69348837 -11.72837162 66.84058666 C-11.77811994 62.89087949 -11.82387089 58.94120414 -11.86009216 54.99134827 C-11.87376776 53.51172891 -11.8874447 52.03210957 -11.90112305 50.55249023 C-11.90756049 49.83763616 -11.91399794 49.12278208 -11.92063046 48.38626575 C-11.96371186 44.11415738 -12.04741655 39.845066 -12.16374493 35.57433987 C-12.21683394 33.52637315 -12.25818701 31.47853962 -12.29502869 29.43022156 C-12.34143407 26.95795964 -12.40817841 24.48595117 -12.5002594 22.01496887 C-12.58688226 15.82038849 -12.217693 11.89433004 -8.03773499 7.16011047 C-5.86034127 5.17108595 -3.48838193 3.57222259 -1 2 C-0.67 1.34 -0.34 0.68 0 0 Z " fill="#DFCBB9" transform="translate(154,121)"/>
<path d="M0 0 C0.66 0 1.32 0 2 0 C2.00634791 0.90957222 2.00634791 0.90957222 2.01282406 1.83751965 C2.14466326 20.69586599 2.2811286 39.55417636 2.42068338 58.412467 C2.43746884 60.68328505 2.4541891 62.95410357 2.47089767 65.22492218 C2.72179193 99.27682853 2.97293927 133.32692197 3.5625 167.375 C4.22882056 205.91392317 4.0951909 244.45674941 4 283 C0.66806029 281.33403015 -0.31126056 277.67833545 -1.875 274.4375 C-2.21402344 273.74591797 -2.55304688 273.05433594 -2.90234375 272.34179688 C-3.55213562 271.01627088 -4.1994337 269.68951694 -4.84326172 268.36108398 C-5.90755141 266.09578359 -5.90755141 266.09578359 -6.96932888 264.41534519 C-10.35278483 258.53593339 -10.57283923 253.42048777 -10.5300293 246.73828125 C-10.53878051 245.62829616 -10.54753172 244.51831106 -10.55654812 243.37469006 C-10.58103046 239.68712769 -10.57755497 236.00013372 -10.57421875 232.3125 C-10.58641628 229.69264344 -10.60044282 227.07279484 -10.61618042 224.45295715 C-10.64720889 218.87167614 -10.66452363 213.2904972 -10.67214966 207.70913696 C-10.6842926 198.97744466 -10.7234307 190.24598703 -10.76733398 181.5144043 C-10.78177529 178.58665536 -10.79603978 175.65890558 -10.81022644 172.7311554 C-10.81551883 171.64472528 -10.81551883 171.64472528 -10.82091814 170.53634709 C-10.84555644 165.405401 -10.86634374 160.2744478 -10.88545227 155.14347839 C-10.95120537 137.74715688 -11.06666456 120.35235721 -11.2734375 102.95703125 C-11.28550798 101.94156094 -11.29757847 100.92609062 -11.31001472 99.87984848 C-11.39050386 93.19068416 -11.47587136 86.50158719 -11.5625 79.8125 C-11.60733957 76.32487387 -11.65180803 72.8372432 -11.69604492 69.34960938 C-11.70664759 68.52176217 -11.71725025 67.69391497 -11.72817421 66.84098148 C-11.77801817 62.89113244 -11.82388809 58.94131677 -11.86010742 54.99131775 C-11.87377859 53.51170857 -11.88745045 52.0320994 -11.90112305 50.55249023 C-11.90756018 49.83763679 -11.91399731 49.12278334 -11.9206295 48.38626766 C-11.96371278 44.11415868 -12.04741653 39.84506664 -12.16374493 35.57433987 C-12.21683394 33.52637315 -12.25818701 31.47853962 -12.29502869 29.43022156 C-12.34143407 26.95795964 -12.40817841 24.48595117 -12.5002594 22.01496887 C-12.58688226 15.82038849 -12.217693 11.89433004 -8.03773499 7.16011047 C-5.86034127 5.17108595 -3.48838193 3.57222259 -1 2 C-0.67 1.34 -0.34 0.68 0 0 Z " fill="#AD9585" transform="translate(154,121)"/>
<path d="M0 0 C0.02355985 8.26940209 0.04113055 16.5387893 0.05181217 24.80821705 C0.05694842 28.65137257 0.06386875 32.49450453 0.07543945 36.33764648 C0.13189448 55.58684454 -0.09047742 74.76767056 -1 94 C-4.99170872 93.29208827 -7.6382902 92.14131094 -11.125 90.0625 C-19.28683735 85.79747973 -27.93974623 85.54968067 -37 85 C-37.1171893 81.64613239 -37.18757584 78.29279851 -37.25 74.9375 C-37.28351563 73.99455078 -37.31703125 73.05160156 -37.3515625 72.08007812 C-37.36445313 71.15517578 -37.37734375 70.23027344 -37.390625 69.27734375 C-37.41157227 68.43421631 -37.43251953 67.59108887 -37.45410156 66.72241211 C-37 64 -37 64 -33 57 C-39.27 56.67 -45.54 56.34 -52 56 C-52 55.01 -52 54.02 -52 53 C-47.05 52.505 -47.05 52.505 -42 52 C-41.67 51.01 -41.34 50.02 -41 49 C-40.154375 48.505 -39.30875 48.01 -38.4375 47.5 C-37.633125 47.005 -36.82875 46.51 -36 46 C-36 45.01 -36 44.02 -36 43 C-37.32 43 -38.64 43 -40 43 C-40.11712011 38.52105679 -40.1875608 34.04251286 -40.25 29.5625 C-40.28351563 28.30244141 -40.31703125 27.04238281 -40.3515625 25.74414062 C-40.43197245 18.04488817 -39.74071955 12.76716784 -36 6 C-41.28 5.67 -46.56 5.34 -52 5 C-52 3.68 -52 2.36 -52 1 C-47.16610065 0.85454976 -42.33212005 0.71230786 -37.49804688 0.57275391 C-35.86130364 0.52508488 -34.22458357 0.47661193 -32.58789062 0.42724609 C-21.72030196 0.10015037 -10.87265112 -0.05428691 0 0 Z " fill="#D4BAA4" transform="translate(278,225)"/>
<path d="M0 0 C0.66 0.33 1.32 0.66 2 1 C4.204364 1.22950319 6.41392173 1.41075933 8.625 1.5625 C9.81351563 1.64628906 11.00203125 1.73007813 12.2265625 1.81640625 C13.59941406 1.90728516 13.59941406 1.90728516 15 2 C15.33 4.31 15.66 6.62 16 9 C15.01 9 14.02 9 13 9 C13.14243658 12.22932571 13.28903145 15.45844606 13.4375 18.6875 C13.48116699 19.64108398 13.52483398 20.59466797 13.56982422 21.57714844 C13.87508968 28.00184575 14.30652913 34.39314492 14.9140625 40.796875 C14.94242188 41.52390625 14.97078125 42.2509375 15 43 C14 44 14 44 11.05859375 44.09765625 C9.86363281 44.08605469 8.66867188 44.07445312 7.4375 44.0625 C5.64119141 44.04896484 5.64119141 44.04896484 3.80859375 44.03515625 C2.88175781 44.02355469 1.95492187 44.01195312 1 44 C1 45.32 1 46.64 1 48 C2.98567708 47.96744792 4.97135417 47.93489583 6.95703125 47.90234375 C9 48 9 48 12 49 C11.99476318 50.0737085 11.98952637 51.14741699 11.98413086 52.25366211 C11.96589984 56.27367301 11.95450242 60.29368033 11.94506836 64.3137207 C11.94006925 66.04679989 11.93326776 67.77987493 11.92456055 69.51293945 C11.91229973 72.01775138 11.90672734 74.52250708 11.90234375 77.02734375 C11.89718246 77.79022202 11.89202118 78.55310028 11.88670349 79.33909607 C11.88622326 84.04459672 12.23248151 88.58694545 12.88233948 93.2490387 C12.92116745 93.82685593 12.95999542 94.40467316 13 95 C12 96 12 96 9.49609375 96.09765625 C8.48675781 96.08605469 7.47742188 96.07445312 6.4375 96.0625 C4.91962891 96.04896484 4.91962891 96.04896484 3.37109375 96.03515625 C2.58863281 96.02355469 1.80617187 96.01195312 1 96 C1 97.32 1 98.64 1 100 C6.61 100 12.22 100 18 100 C17.35546875 101.34835938 16.7109375 102.69671875 16.046875 104.0859375 C13.3443708 110.84219801 13.33154352 117.42693075 13.25 124.625 C13.20552734 126.56052734 13.20552734 126.56052734 13.16015625 128.53515625 C13.09004495 131.6901648 13.03705636 134.84445945 13 138 C14.32 138 15.64 138 17 138 C17.33 138.99 17.66 139.98 18 141 C17.071875 141.598125 16.14375 142.19625 15.1875 142.8125 C12.12631565 144.71545091 12.12631565 144.71545091 10.59375 146.625 C8.43940899 148.48364715 7.11145451 148.30919367 4.3125 148.1875 C3.10013672 148.14689453 3.10013672 148.14689453 1.86328125 148.10546875 C1.24839844 148.07066406 0.63351563 148.03585937 0 148 C0 149.32 0 150.64 0 152 C3.3 152 6.6 152 10 152 C11.26693763 161.66039945 11.08984092 171.27721582 11 181 C11.66 181 12.32 181 13 181 C12.45184098 184.92847299 11.89723747 188.49011067 10 192 C7.625 193.5625 7.625 193.5625 5 195 C2.31979608 197.38240349 1.14462392 198.56612823 0 202 C3.63 202 7.26 202 11 202 C11 207.94 11 213.88 11 220 C11.66 220 12.32 220 13 220 C12.8568662 227.72922538 9.61867246 231.99465914 5 238 C4.34 238.99 3.68 239.98 3 241 C2.34 241 1.68 241 1 241 C0.67 243.31 0.34 245.62 0 248 C-0.99 247.67 -1.98 247.34 -3 247 C-2.97494385 245.70312256 -2.9498877 244.40624512 -2.92407227 243.07006836 C-2.21085047 205.46516641 -1.81794829 167.86008852 -1.5 130.25 C-1.21766848 96.85301732 -0.90781225 63.45742629 -0.4375 30.0625 C-0.42633148 29.26850296 -0.41516296 28.47450592 -0.40365601 27.65644836 C-0.27364845 18.43756399 -0.13961697 9.21874437 0 0 Z " fill="#634730" transform="translate(225,130)"/>
<path d="M0 0 C0 15.51 0 31.02 0 47 C-8 46 -8 46 -11.5625 44.875 C-15.42228918 43.89250821 -18.12854641 44.20990743 -22 45 C-22 44.34 -22 43.68 -22 43 C-25.96 42.67 -29.92 42.34 -34 42 C-36.19466193 36.57789405 -35.83431811 33.17040881 -34.375 27.625 C-34.01679164 25.11754145 -34.16945486 23.46924829 -34.5625 21 C-35.06793195 17.35269374 -34.96400349 15.24487532 -33 12 C-31.02 10.02 -29.04 8.04 -27 6 C-35.25 5.67 -43.5 5.34 -52 5 C-52 3.68 -52 2.36 -52 1 C-47.16610065 0.85454976 -42.33212005 0.71230786 -37.49804688 0.57275391 C-35.86130364 0.52508488 -34.22458357 0.47661193 -32.58789062 0.42724609 C-30.2044871 0.35550975 -27.82100879 0.28688912 -25.4375 0.21875 C-24.73262451 0.19687622 -24.02774902 0.17500244 -23.30151367 0.15246582 C-15.52774663 -0.06383483 -7.78827097 0 0 0 Z " fill="#D7BFAA" transform="translate(278,225)"/>
<path d="M0 0 C1.32 0 2.64 0 4 0 C5.16508845 30.66413643 5.1096045 61.31769892 5 92 C5.33 92 5.66 92 6 92 C6.30473877 119.0818998 5.79728672 146.11925657 5 173.1875 C4.97608437 173.99969624 4.95216873 174.81189247 4.92752838 175.64870071 C4.62866138 185.76612425 4.3192517 195.88319855 4 206 C3.34 206 2.68 206 2 206 C1.00571013 198.59271253 0.86963779 191.33886894 0.90234375 183.87109375 C0.9037587 182.64084976 0.90517365 181.41060577 0.90663147 180.14308167 C0.91219715 176.24119563 0.92474329 172.33936848 0.9375 168.4375 C0.94308734 165.7805998 0.94708156 163.12370015 0.95117188 160.46679688 C0.96215534 153.97784473 0.97885906 147.48892658 1 141 C1.99 141.33 2.98 141.66 4 142 C3.67 139.03 3.34 136.06 3 133 C1.68 133.33 0.36 133.66 -1 134 C-2.1375213 136.08034294 -2.1375213 136.08034294 -2.75 138.5625 C-3.11351562 139.80193359 -3.11351562 139.80193359 -3.484375 141.06640625 C-3.73960937 142.02353516 -3.73960937 142.02353516 -4 143 C-4.33 143 -4.66 143 -5 143 C-4.59920897 109.3941963 -4.07325943 75.79335394 -3.12346649 42.19812393 C-3.06272375 40.00806733 -3.00528414 37.81794713 -2.9487915 35.6277771 C-2.84233532 31.52233512 -2.72096922 27.41747064 -2.59765625 23.3125 C-2.55226967 21.50565483 -2.55226967 21.50565483 -2.50596619 19.66230774 C-2.28683684 12.91440492 -1.59057762 6.56673422 0 0 Z " fill="#BA9474" transform="translate(317,123)"/>
<path d="M0 0 C17.49 0 34.98 0 53 0 C53.020625 6.043125 53.04125 12.08625 53.0625 18.3125 C53.071604 20.19622314 53.08070801 22.07994629 53.09008789 24.02075195 C53.11318146 32.41365451 52.97029066 40.64938828 52 49 C45.07 49 38.14 49 31 49 C31 48.01 31 47.02 31 46 C30.34 46 29.68 46 29 46 C29 35.44 29 24.88 29 14 C29.33 14 29.66 14 30 14 C30.33 12.02 30.66 10.04 31 8 C30.01 8 29.02 8 28 8 C28 7.34 28 6.68 28 6 C31.3 6 34.6 6 38 6 C38 6.66 38 7.32 38 8 C39.32 7.34 40.64 6.68 42 6 C42 5.67 42 5.34 42 5 C41.29617188 5.00523682 40.59234375 5.01047363 39.8671875 5.01586914 C26.53711748 5.10179241 13.2902389 5.12424982 0 4 C0 2.68 0 1.36 0 0 Z " fill="#D4BCA7" transform="translate(226,174)"/>
<path d="M0 0 C0.66 0.33 1.32 0.66 2 1 C2.07329796 5.39787789 2.07396066 8.70415737 1 13 C4.3 13 7.6 13 11 13 C12.26693763 22.66039945 12.08984092 32.27721582 12 42 C12.66 42 13.32 42 14 42 C13.45184098 45.92847299 12.89723747 49.49011067 11 53 C8.625 54.5625 8.625 54.5625 6 56 C3.31979608 58.38240349 2.14462392 59.56612823 1 63 C4.63 63 8.26 63 12 63 C12 68.94 12 74.88 12 81 C12.66 81 13.32 81 14 81 C13.8568662 88.72922538 10.61867246 92.99465914 6 99 C5.34 99.99 4.68 100.98 4 102 C3.34 102 2.68 102 2 102 C1.67 104.31 1.34 106.62 1 109 C0.01 108.67 -0.98 108.34 -2 108 C-1.34 72.36 -0.68 36.72 0 0 Z " fill="#573F27" transform="translate(224,269)"/>
<path d="M0 0 C11.55 0 23.1 0 35 0 C34.34 1.32 33.68 2.64 33 4 C32.01 4 31.02 4 30 4 C30 3.34 30 2.68 30 2 C26.7 2 23.4 2 20 2 C20 2.66 20 3.32 20 4 C20.99 4 21.98 4 23 4 C23 6.64 23 9.28 23 12 C22.67 12 22.34 12 22 12 C21.67 21.9 21.34 31.8 21 42 C21.66 42 22.32 42 23 42 C23 42.99 23 43.98 23 45 C24.01320313 44.91621094 25.02640625 44.83242187 26.0703125 44.74609375 C27.42184621 44.64285159 28.77341042 44.5400082 30.125 44.4375 C31.12273437 44.35338867 31.12273437 44.35338867 32.140625 44.26757812 C36.2728041 43.96374143 39.94695741 44.14772469 44 45 C44 41.37 44 37.74 44 34 C44.33 34 44.66 34 45 34 C45 48.85 45 63.7 45 79 C44.67 79 44.34 79 44 79 C44 68.44 44 57.88 44 47 C41.875625 47.165 39.75125 47.33 37.5625 47.5 C26.05914663 48.29906977 14.52353844 48.08959689 3 48 C1.91143718 39.60269252 1.85013617 31.27034775 1.875 22.8125 C1.87142924 21.47200427 1.86752487 20.13150939 1.86328125 18.79101562 C1.86457031 17.50517578 1.86585938 16.21933594 1.8671875 14.89453125 C1.86831543 13.73800049 1.86944336 12.58146973 1.87060547 11.38989258 C2.00505713 7.86751282 2.44271048 4.4784938 3 1 C2.01 0.67 1.02 0.34 0 0 Z " fill="#C6AA92" transform="translate(234,178)"/>
<path d="M0 0 C6.1105424 -0.11269443 11.95170514 0.10395632 18 1 C18 2.98 18 4.96 18 7 C17.01 7 16.02 7 15 7 C15.49113281 7.74507812 15.98226562 8.49015625 16.48828125 9.2578125 C18.93918124 14.15961247 18.31583232 19.53111077 18.1875 24.875 C18.16719727 26.47988281 18.16719727 26.47988281 18.14648438 28.1171875 C18.11128624 30.74531511 18.06204693 33.37239194 18 36 C18.66 36 19.32 36 20 36 C20 36.99 20 37.98 20 39 C20.52335937 38.65324219 21.04671875 38.30648437 21.5859375 37.94921875 C24.88881044 36.65051628 27.15304686 37.20510413 30.625 37.8125 C31.77226562 38.00457031 32.91953125 38.19664062 34.1015625 38.39453125 C37 39 37 39 39 40 C39 27.46 39 14.92 39 2 C39.33 2 39.66 2 40 2 C40 16.52 40 31.04 40 46 C39.505 44.02 39.505 44.02 39 42 C25.8 42 12.6 42 -1 42 C-1 39.36 -1 36.72 -1 34 C-1.16371094 33.06929687 -1.32742187 32.13859375 -1.49609375 31.1796875 C-2.23824512 26.49665481 -2.1041832 21.85764677 -2.0625 17.125 C-2.05798828 16.15046875 -2.05347656 15.1759375 -2.04882812 14.171875 C-2.03710906 11.78118566 -2.02070219 9.3906256 -2 7 C-1.01 7 -0.02 7 1 7 C0.67 4.69 0.34 2.38 0 0 Z " fill="#B99C85" transform="translate(240,132)"/>
<path d="M0 0 C2.41696872 -0.05411124 4.83271787 -0.09372278 7.25 -0.125 C7.93191406 -0.14175781 8.61382812 -0.15851563 9.31640625 -0.17578125 C13.20490396 -0.21353365 15.59204656 0.26689547 19 2 C20.65 1.67 22.3 1.34 24 1 C23.67 14.2 23.34 27.4 23 41 C13 40 13 40 10.125 39.375 C7.76638982 38.95877467 6.25403043 39.24865652 4 40 C4 39.01 4 38.02 4 37 C2.515 37.495 2.515 37.495 1 38 C1.01047363 37.2886792 1.02094727 36.5773584 1.03173828 35.84448242 C1.07328001 32.62552414 1.09932039 29.40662224 1.125 26.1875 C1.14175781 25.06794922 1.15851563 23.94839844 1.17578125 22.79492188 C1.18222656 21.72177734 1.18867188 20.64863281 1.1953125 19.54296875 C1.20578613 18.55321045 1.21625977 17.56345215 1.22705078 16.54370117 C1.18267404 13.7556048 1.18267404 13.7556048 -1 11 C-1 10.01 -1 9.02 -1 8 C-0.01 8 0.98 8 2 8 C2 6.02 2 4.04 2 2 C1.34 2 0.68 2 0 2 C0 1.34 0 0.68 0 0 Z " fill="#CBB19C" transform="translate(256,131)"/>
<path d="M0 0 C0 0.99 0 1.98 0 3 C-6.3778552 4.17293889 -12.50321562 5.29530838 -19 5 C-19 6.65 -19 8.3 -19 10 C-17.96875 9.67 -16.9375 9.34 -15.875 9 C-13.27241926 8.23762786 -11.59259435 8.00798835 -8.8125 8.0625 C-5.48700626 7.98860014 -4.4678838 7.11532897 -2 5 C-1.34 5 -0.68 5 0 5 C0 16.22 0 27.44 0 39 C-3.88390487 37.05804757 -7.48447333 34.84945329 -11.125 32.5 C-11.75792969 32.09652344 -12.39085937 31.69304687 -13.04296875 31.27734375 C-15.56753679 29.65325858 -17.87090028 28.12909972 -20 26 C-22.82683697 25.69463181 -25.62724046 25.62131672 -28.46875 25.5390625 C-31 25 -31 25 -32.34765625 23.140625 C-33.30308919 20.00543188 -32.94159621 18.13865402 -32 15 C-30.53301432 12.50782356 -29.15082958 11.0530646 -27 9 C-24.1875 8.625 -24.1875 8.625 -22 9 C-21.67 8.01 -21.34 7.02 -21 6 C-21.69561035 6.09087891 -22.3912207 6.18175781 -23.10791016 6.27539062 C-26.27977661 6.6875272 -29.45236613 7.09381504 -32.625 7.5 C-33.71941406 7.64308594 -34.81382812 7.78617187 -35.94140625 7.93359375 C-37.53662109 8.13662109 -37.53662109 8.13662109 -39.1640625 8.34375 C-40.13811035 8.46943359 -41.1121582 8.59511719 -42.11572266 8.72460938 C-45.09489105 9.00906019 -48.00915797 9.04655007 -51 9 C-50.67 7.68 -50.34 6.36 -50 5 C-48.37630685 4.80464789 -46.75260756 4.60934681 -45.12890625 4.4140625 C-44.08726318 4.28878174 -43.04562012 4.16350098 -41.97241211 4.03442383 C-39.68814979 3.76015535 -37.40380639 3.48656146 -35.11938477 3.21362305 C-30.02353057 2.60477055 -24.92813143 1.9942854 -19.8359375 1.35546875 C-19.0823999 1.26249512 -18.3288623 1.16952148 -17.55249023 1.07373047 C-15.5749872 0.82948157 -13.5980185 0.58091738 -11.62109375 0.33203125 C-7.7095926 -0.02662851 -3.92537387 -0.05638659 0 0 Z " fill="#CCB19B" transform="translate(276,323)"/>
<path d="M0 0 C0.66 0.33 1.32 0.66 2 1 C1.99061433 1.57395099 1.98122866 2.14790197 1.97155857 2.73924541 C1.67608297 20.82221796 1.38547291 38.90526686 1.09754324 56.98836088 C1.06264225 59.17857296 1.02766334 61.36878378 0.99266434 63.55899429 C0.49121474 94.9552778 -0.00246883 126.35121412 -0.3203125 157.75 C-0.3369567 159.38315879 -0.3369567 159.38315879 -0.35393715 161.04931068 C-0.45649616 171.18309032 -0.55258729 181.31689716 -0.63459015 191.45086479 C-0.66465834 195.08606526 -0.69793292 198.72123234 -0.73176193 202.35639954 C-0.75294191 204.77652829 -0.76927109 207.19665403 -0.78530884 209.61682129 C-0.856663 218.11199448 -1.20692992 226.53657308 -2 235 C-0.98808594 235.10183594 0.02382813 235.20367187 1.06640625 235.30859375 C5.14835485 236.02607627 8.21894376 237.26072533 11.9375 239.0625 C13.65259766 239.88427734 13.65259766 239.88427734 15.40234375 240.72265625 C16.25957031 241.14417969 17.11679687 241.56570313 18 242 C18 242.66 18 243.32 18 244 C19.32 244 20.64 244 22 244 C24.125 245.9375 24.125 245.9375 26 248 C26.66 248.33 27.32 248.66 28 249 C28.33 238.44 28.66 227.88 29 217 C29.33 217 29.66 217 30 217 C30 228.22 30 239.44 30 251 C31.65 250.67 33.3 250.34 35 250 C35.66 209.41 36.32 168.82 37 127 C37.33 127 37.66 127 38 127 C38.33 169.57 38.66 212.14 39 256 C34.32388343 255.22064724 31.9630571 254.72975139 27.98828125 252.70703125 C27.07022705 252.24417725 26.15217285 251.78132324 25.20629883 251.30444336 C24.25134521 250.81210205 23.2963916 250.31976074 22.3125 249.8125 C20.8423645 249.06528687 20.8423645 249.06528687 19.3425293 248.30297852 C2.76917614 239.84611742 2.76917614 239.84611742 -3 236 C-3.36749268 233.0717926 -3.36749268 233.0717926 -3.35644531 229.26000977 C-3.35951187 228.21736465 -3.35951187 228.21736465 -3.36264038 227.15365601 C-3.36566824 224.83264549 -3.34705479 222.51233394 -3.328125 220.19140625 C-3.32505965 218.5517545 -3.32318944 216.91210013 -3.32244873 215.27244568 C-3.31782711 211.80612424 -3.30337309 208.34003264 -3.28125 204.8737793 C-3.25368747 200.54428024 -3.24219599 196.21496529 -3.23744202 191.88538742 C-3.21621084 174.33166798 -3.00490497 156.79527439 -2.44750214 139.25027275 C-2.08376804 127.79487743 -1.85293384 116.3432108 -1.71875 104.8828125 C-1.70932562 104.07980965 -1.69990124 103.27680679 -1.69019127 102.44947052 C-1.64284369 98.35176129 -1.59782841 94.25403059 -1.5541687 90.15628052 C-1.46236032 81.55330946 -1.35898812 72.95047411 -1.25390625 64.34765625 C-1.24366991 63.50538168 -1.23343357 62.66310711 -1.22288704 61.79530907 C-0.97026041 41.19339829 -0.54352516 20.59628287 0 0 Z " fill="#7E5D42" transform="translate(280,133)"/>
<path d="M0 0 C0.99 0.495 0.99 0.495 2 1 C4.204364 1.22950319 6.41392173 1.41075933 8.625 1.5625 C9.81351563 1.64628906 11.00203125 1.73007813 12.2265625 1.81640625 C13.59941406 1.90728516 13.59941406 1.90728516 15 2 C15.33 4.31 15.66 6.62 16 9 C15.01 9 14.02 9 13 9 C13.14243658 12.22932571 13.28903145 15.45844606 13.4375 18.6875 C13.48116699 19.64108398 13.52483398 20.59466797 13.56982422 21.57714844 C13.87508968 28.00184575 14.30652913 34.39314492 14.9140625 40.796875 C14.94242188 41.52390625 14.97078125 42.2509375 15 43 C14 44 14 44 11.05859375 44.09765625 C9.86363281 44.08605469 8.66867188 44.07445312 7.4375 44.0625 C5.64119141 44.04896484 5.64119141 44.04896484 3.80859375 44.03515625 C2.88175781 44.02355469 1.95492187 44.01195312 1 44 C1 45.32 1 46.64 1 48 C2.36125 47.938125 2.36125 47.938125 3.75 47.875 C6.8782046 47.99531556 8.38614006 48.3914708 11 50 C11 50.99 11 51.98 11 53 C9.35 52.67 7.7 52.34 6 52 C5.67 52.66 5.34 53.32 5 54 C3.515 54.495 3.515 54.495 2 55 C1.67 60.28 1.34 65.56 1 71 C0.67 71 0.34 71 0 71 C0 47.57 0 24.14 0 0 Z " fill="#573F28" transform="translate(225,130)"/>
<path d="M0 0 C1.65 0.33 3.3 0.66 5 1 C4.99476318 2.0737085 4.98952637 3.14741699 4.98413086 4.25366211 C4.96589984 8.27367301 4.95450242 12.29368033 4.94506836 16.3137207 C4.94006925 18.04679989 4.93326776 19.77987493 4.92456055 21.51293945 C4.91229973 24.01775138 4.90672734 26.52250708 4.90234375 29.02734375 C4.89718246 29.79022202 4.89202118 30.55310028 4.88670349 31.33909607 C4.88622326 36.04459672 5.23248151 40.58694545 5.88233948 45.2490387 C5.92116745 45.82685593 5.95999542 46.40467316 6 47 C5.505 47.495 5.505 47.495 5 48 C1.37 48 -2.26 48 -6 48 C-6.33 57.24 -6.66 66.48 -7 76 C-7.33 76 -7.66 76 -8 76 C-8.02531773 68.93417118 -8.04285324 61.86835402 -8.05493164 54.80249023 C-8.05996598 52.39786339 -8.06679386 49.99323962 -8.07543945 47.58862305 C-8.08754429 44.13589725 -8.09323726 40.68321186 -8.09765625 37.23046875 C-8.10281754 36.15226364 -8.10797882 35.07405853 -8.11329651 33.96318054 C-8.11337204 32.96236954 -8.11344757 31.96155853 -8.11352539 30.93041992 C-8.115746 30.04883713 -8.11796661 29.16725433 -8.12025452 28.25895691 C-8 26 -8 26 -7 23 C-6.8703538 19.60038845 -6.75214732 16.20679579 -6.74609375 12.8046875 C-6.671875 10.6875 -6.671875 10.6875 -6 7 C-3.62890625 4.98046875 -3.62890625 4.98046875 -1 4 C1.8125 4.3125 1.8125 4.3125 4 5 C4 4.01 4 3.02 4 2 C2.68 1.67 1.36 1.34 0 1 C0 0.67 0 0.34 0 0 Z " fill="#674C35" transform="translate(232,178)"/>
<path d="M0 0 C1.23556641 0.01740234 1.23556641 0.01740234 2.49609375 0.03515625 C3.32238281 0.04417969 4.14867187 0.05320313 5 0.0625 C5.63808594 0.07410156 6.27617187 0.08570313 6.93359375 0.09765625 C6.52367187 0.53335938 6.11375 0.9690625 5.69140625 1.41796875 C2.35010956 5.11098088 -0.17872617 8.06746913 -1.06640625 13.09765625 C-0.87419796 15.66997573 -0.572647 18.18413164 -0.16015625 20.73046875 C-0.06640625 23.09765625 -0.06640625 23.09765625 -1.05859375 25.07421875 C-2.3813426 27.72997032 -2.07476588 29.43412305 -1.69140625 32.34765625 C-1.52511719 33.68570313 -1.52511719 33.68570313 -1.35546875 35.05078125 C-1.26007813 35.72625 -1.1646875 36.40171875 -1.06640625 37.09765625 C-0.37933594 37.07445312 0.30773437 37.05125 1.015625 37.02734375 C1.91667969 37.00929688 2.81773437 36.99125 3.74609375 36.97265625 C4.63941406 36.94945312 5.53273437 36.92625 6.453125 36.90234375 C8.93359375 37.09765625 8.93359375 37.09765625 11.93359375 39.09765625 C12.82304687 38.93394531 13.7125 38.77023437 14.62890625 38.6015625 C18.7199687 37.97774801 21.92994421 38.87482148 25.80859375 40.03515625 C28.15984375 40.71578125 30.51109375 41.39640625 32.93359375 42.09765625 C32.93359375 48.69765625 32.93359375 55.29765625 32.93359375 62.09765625 C32.60359375 62.09765625 32.27359375 62.09765625 31.93359375 62.09765625 C31.93359375 56.15765625 31.93359375 50.21765625 31.93359375 44.09765625 C28.53046875 44.53078125 28.53046875 44.53078125 25.05859375 44.97265625 C13.05654828 46.4378442 0.99068362 47.23276063 -11.06640625 48.09765625 C-10.07640625 47.60265625 -10.07640625 47.60265625 -9.06640625 47.09765625 C-8.73640625 46.10765625 -8.40640625 45.11765625 -8.06640625 44.09765625 C-7.22078125 43.60265625 -6.37515625 43.10765625 -5.50390625 42.59765625 C-4.69953125 42.10265625 -3.89515625 41.60765625 -3.06640625 41.09765625 C-3.06640625 40.10765625 -3.06640625 39.11765625 -3.06640625 38.09765625 C-4.38640625 38.09765625 -5.70640625 38.09765625 -7.06640625 38.09765625 C-7.18352636 33.61871304 -7.25396705 29.14016911 -7.31640625 24.66015625 C-7.34992188 23.40009766 -7.3834375 22.14003906 -7.41796875 20.84179688 C-7.49569019 13.39996888 -7.04775428 7.51843713 -3.06640625 1.09765625 C-2.06640625 0.09765625 -2.06640625 0.09765625 0 0 Z M-3.06640625 21.09765625 C-2.06640625 23.09765625 -2.06640625 23.09765625 -2.06640625 23.09765625 Z " fill="#B2947C" transform="translate(245.06640625,229.90234375)"/>
<path d="M0 0 C-5.3986962 3.5991308 -10.6000073 4.26122419 -17 4 C-17 6.31 -17 8.62 -17 11 C-17.33 11 -17.66 11 -18 11 C-18.33 13.31 -18.66 15.62 -19 18 C-19.33 18 -19.66 18 -20 18 C-20.08078641 20.12438339 -20.13909141 22.2496323 -20.1875 24.375 C-20.22230469 25.55835938 -20.25710937 26.74171875 -20.29296875 27.9609375 C-20.19628906 28.96382813 -20.09960938 29.96671875 -20 31 C-19.01 31.66 -18.02 32.32 -17 33 C-22.61 32.67 -28.22 32.34 -34 32 C-34.10851899 28.64495448 -34.18756353 25.29346028 -34.25 21.9375 C-34.28351563 20.99455078 -34.31703125 20.05160156 -34.3515625 19.08007812 C-34.43917403 12.79395102 -33.63693556 9.16187115 -30 4 C-32.31 3.67 -34.62 3.34 -37 3 C-37 2.67 -37 2.34 -37 2 C-11.0298471 -0.38776806 -11.0298471 -0.38776806 0 0 Z " fill="#CBAF97" transform="translate(275,278)"/>
<path d="M0 0 C0.33 0 0.66 0 1 0 C1.14585463 7.64153965 1.28777206 15.28314595 1.42724609 22.92480469 C1.47489165 25.51173468 1.52336286 28.09864962 1.57275391 30.68554688 C2.07121274 56.84954943 2.08955486 82.96300861 1.5 109.125 C1.45156783 111.367182 1.40339 113.60936952 1.35546875 115.8515625 C1.23988811 121.23444155 1.12125647 126.61724595 1 132 C-0.875 132.625 -0.875 132.625 -3 133 C-3.66 132.34 -4.32 131.68 -5 131 C-4.34 131 -3.68 131 -3 131 C-3.16265854 130.30787918 -3.32531708 129.61575836 -3.49290466 128.90266418 C-4.04759445 125.72756465 -4.11988294 122.78064951 -4.11352539 119.55737305 C-4.11344986 118.27642258 -4.11337433 116.99547211 -4.11329651 115.67570496 C-4.10819065 114.28770915 -4.10297467 112.89971375 -4.09765625 111.51171875 C-4.09578975 110.08396962 -4.09436694 108.65621985 -4.09336853 107.22846985 C-4.08956165 103.48186455 -4.07974707 99.7352984 -4.06866455 95.9887085 C-4.05841102 92.16109751 -4.05386248 88.33348016 -4.04882812 84.50585938 C-4.03812307 77.00388846 -4.02106873 69.50194973 -4 62 C-3.67 62 -3.34 62 -3 62 C-3 64.97 -3 67.94 -3 71 C-2.34 71 -1.68 71 -1 71 C-1.00523682 69.95062256 -1.01047363 68.90124512 -1.01586914 67.82006836 C-1.11865053 45.18916521 -0.93888653 22.61318194 0 0 Z " fill="#A07D61" transform="translate(322,258)"/>
<path d="M0 0 C0.99 0.495 0.99 0.495 2 1 C2.07329796 5.39787789 2.07396066 8.70415737 1 13 C4.3 13 7.6 13 11 13 C12.26693763 22.66039945 12.08984092 32.27721582 12 42 C12.66 42 13.32 42 14 42 C13.45184098 45.92847299 12.89723747 49.49011067 11 53 C8.5 54.625 8.5 54.625 6 56 C5.34 56.99 4.68 57.98 4 59 C3.34 58.67 2.68 58.34 2 58 C2.49371094 57.18015625 2.98742187 56.3603125 3.49609375 55.515625 C4.13675781 54.43796875 4.77742187 53.3603125 5.4375 52.25 C6.07558594 51.18265625 6.71367187 50.1153125 7.37109375 49.015625 C9.18804166 45.94956599 9.18804166 45.94956599 10 42 C5.05 42.495 5.05 42.495 0 43 C0 28.81 0 14.62 0 0 Z " fill="#5F452D" transform="translate(224,269)"/>
<path d="M0 0 C5.94 0 11.88 0 18 0 C17.67 1.65 17.34 3.3 17 5 C16.34 5 15.68 5 15 5 C12.56197916 11.61337149 12.77175355 17.95248062 12.875 24.9375 C12.88853516 26.67870117 12.88853516 26.67870117 12.90234375 28.45507812 C12.92578838 31.30360108 12.95860478 34.15169078 13 37 C14.65 37.33 16.3 37.66 18 38 C17.01 38.99 16.02 39.98 15 41 C14.67 40.34 14.34 39.68 14 39 C11.1840151 38.53101037 11.1840151 38.53101037 7.9375 38.375 C6.83277344 38.30023438 5.72804687 38.22546875 4.58984375 38.1484375 C3.73519531 38.09945312 2.88054687 38.05046875 2 38 C-0.19466193 32.57789405 0.16568189 29.17040881 1.625 23.625 C1.98320836 21.11754145 1.83054514 19.46924829 1.4375 17 C0.93206805 13.35269374 1.03599651 11.24487532 3 8 C4.91191441 5.87508717 6.90709017 3.95641571 9 2 C6.03 1.67 3.06 1.34 0 1 C0 0.67 0 0.34 0 0 Z " fill="#CDB19A" transform="translate(242,229)"/>
<path d="M0 0 C6.0546875 -0.1953125 6.0546875 -0.1953125 8 0 C8.66 0.66 9.32 1.32 10 2 C9.67 2.66 9.34 3.32 9 4 C9.66 4 10.32 4 11 4 C10.90388428 4.589021 10.80776855 5.17804199 10.70874023 5.78491211 C10.27274563 8.50063446 9.85504752 11.21888275 9.4375 13.9375 C9.21030273 15.32678711 9.21030273 15.32678711 8.97851562 16.74414062 C8.06684165 22.7866309 8.06407804 27.95679528 9 34 C9.99 33.505 9.99 33.505 11 33 C11.33 36.96 11.66 40.92 12 45 C14.97 45 17.94 45 21 45 C20.67 45.99 20.34 46.98 20 48 C14.39 48 8.78 48 3 48 C1.97733111 39.58327267 1.85009109 31.28568216 1.875 22.8125 C1.87142924 21.47200427 1.86752487 20.13150939 1.86328125 18.79101562 C1.86457031 17.50517578 1.86585938 16.21933594 1.8671875 14.89453125 C1.86831543 13.73800049 1.86944336 12.58146973 1.87060547 11.38989258 C2.00505713 7.86751282 2.44271048 4.4784938 3 1 C2.01 0.67 1.02 0.34 0 0 Z " fill="#A38870" transform="translate(234,178)"/>
<path d="M0 0 C0.33 0.99 0.66 1.98 1 3 C7.6 3 14.2 3 21 3 C19.68 5.64 18.36 8.28 17 11 C16.38611595 13.7704326 16.38611595 13.7704326 16.390625 16.375 C16.35839844 17.29667969 16.32617188 18.21835937 16.29296875 19.16796875 C16.27169922 20.56982422 16.27169922 20.56982422 16.25 22 C16.20552734 23.44826172 16.20552734 23.44826172 16.16015625 24.92578125 C16.09011209 27.28393466 16.03709708 29.64113746 16 32 C17.32 32.33 18.64 32.66 20 33 C18.71862945 38.06690526 16.92579736 40.42163674 12.9375 43.75 C9.47380531 46.48168677 9.47380531 46.48168677 7 50 C5.68 49.67 4.36 49.34 3 49 C4.62339805 47.29115995 6.29319053 45.62553283 8 44 C8.66 44 9.32 44 10 44 C10.99 40.37 11.98 36.74 13 33 C12.34 33 11.68 33 11 33 C10.67 23.43 10.34 13.86 10 4 C6.7 4 3.4 4 0 4 C0 2.68 0 1.36 0 0 Z " fill="#A2866B" transform="translate(225,278)"/>
<path d="M0 0 C17.49 0 34.98 0 53 0 C53 1.32 53 2.64 53 4 C45.08511273 4.86552136 37.27162676 5.15812852 29.3125 5.125 C28.18215332 5.12306641 27.05180664 5.12113281 25.88720703 5.11914062 C17.225199 5.07465036 8.63140337 4.73014893 0 4 C0 2.68 0 1.36 0 0 Z " fill="#DCC4AF" transform="translate(226,174)"/>
<path d="M0 0 C3.96 0 7.92 0 12 0 C11.690625 1.299375 11.38125 2.59875 11.0625 3.9375 C10.01581675 8.61416985 9.45414596 13.23146739 9 18 C10.98 18 12.96 18 15 18 C12.8515625 23.859375 12.8515625 23.859375 12 26 C11.75121094 26.63164062 11.50242188 27.26328125 11.24609375 27.9140625 C9.44198147 30.93411253 6.95877182 33.21026079 4.4375 35.625 C0.77285984 38.96402902 0.77285984 38.96402902 -2 43 C-3.32 42.67 -4.64 42.34 -6 42 C-5.62488281 41.50371094 -5.24976563 41.00742187 -4.86328125 40.49609375 C-3.79088252 39.07253171 -2.72348931 37.64519012 -1.66015625 36.21484375 C-0.64451229 34.85985522 0.38600526 33.51566277 1.44140625 32.19140625 C4.73563229 27.93349617 5.97910273 24.29010404 7 19 C6.34 19 5.68 19 5 19 C5 13.06 5 7.12 5 1 C3.35 1 1.7 1 0 1 C0 0.67 0 0.34 0 0 Z " fill="#95785D" transform="translate(231,331)"/>
<path d="M0 0 C5.61 0 11.22 0 17 0 C16.35546875 1.34835938 15.7109375 2.69671875 15.046875 4.0859375 C12.3443708 10.84219801 12.33154352 17.42693075 12.25 24.625 C12.22035156 25.91535156 12.19070312 27.20570313 12.16015625 28.53515625 C12.09004495 31.6901648 12.03705636 34.84445945 12 38 C13.32 38 14.64 38 16 38 C16.33 38.99 16.66 39.98 17 41 C16.071875 41.598125 15.14375 42.19625 14.1875 42.8125 C11.10258265 44.72816328 11.10258265 44.72816328 9.5 46.75 C7.15818691 48.7015109 4.926537 48.19510247 2 48 C3 46 3 46 6 45 C8.78969073 39.47585994 8.18210239 33.52123291 8.0625 27.5 C7.96544695 18.59807836 8.12581638 9.86671955 9 1 C6.03 1 3.06 1 0 1 C0 0.67 0 0.34 0 0 Z " fill="#8F7256" transform="translate(226,230)"/>
<path d="M0 0 C0.33 0 0.66 0 1 0 C1.86619289 4.48273099 2.12875559 8.72281516 2.1328125 13.28564453 C2.13417709 13.99503048 2.13554169 14.70441643 2.13694763 15.43529892 C2.13899238 17.79284908 2.13257339 20.1502747 2.125 22.5078125 C2.12378143 23.33228001 2.12256287 24.15674751 2.12130737 25.00619888 C2.08610833 45.65643833 1.58952046 66.29637881 1.07287598 86.93914795 C0.94884243 91.93591311 0.83016329 96.93280572 0.7109375 101.9296875 C0.47898675 111.61991801 0.24145175 121.31000187 0 131 C-0.33 131 -0.66 131 -1 131 C-1.02356661 119.53059774 -1.04113377 108.06120159 -1.05181217 96.59177971 C-1.05694703 91.26137286 -1.06386455 85.930983 -1.07543945 80.60058594 C-1.13230814 53.71547862 -0.89949763 26.87126361 0 0 Z " fill="#775842" transform="translate(324,184)"/>
<path d="M0 0 C0.33 0 0.66 0 1 0 C1.0154612 0.9859893 1.0154612 0.9859893 1.03123474 1.99189758 C1.13924871 8.82111665 1.25385097 15.65020241 1.37231445 22.47924805 C1.41567967 25.02934994 1.45735356 27.57948116 1.49731445 30.12963867 C1.55497839 33.79094289 1.61868425 37.45209922 1.68359375 41.11328125 C1.70030624 42.2571077 1.71701874 43.40093414 1.73423767 44.579422 C1.75418289 45.64029526 1.77412811 46.70116852 1.79467773 47.79418945 C1.81022202 48.72906693 1.8257663 49.6639444 1.84178162 50.62715149 C1.90972708 53.14986513 1.90972708 53.14986513 3 56 C3.2295082 62.54098361 3.2295082 62.54098361 2 65 C1.87373185 67.51361705 1.81020883 69.98601723 1.8125 72.5 C1.81185547 73.22396973 1.81121094 73.94793945 1.81054688 74.69384766 C1.85806501 79.53529773 2.41608274 83.95708909 3.5546875 88.671875 C4.33613515 92.75733814 4.15859599 96.85888252 4 101 C3.67 101 3.34 101 3 101 C2.505 98.525 2.505 98.525 2 96 C2 101.94 2 107.88 2 114 C1.34 114 0.68 114 0 114 C0 76.38 0 38.76 0 0 Z " fill="#897568" transform="translate(144,264)"/>
<path d="M0 0 C0.99 0 1.98 0 3 0 C3.71390376 2.69696974 4.06292356 4.66831819 3.5390625 7.4296875 C2.75553761 12.61912048 2.81566468 17.75929742 2.8125 23 C2.80025391 24.06734375 2.78800781 25.1346875 2.77539062 26.234375 C2.76535044 31.61591195 2.99784203 35.93525255 5 41 C5 42.32 5 43.64 5 45 C6.98 45 8.96 45 11 45 C7.91111478 47.05925681 7.29064073 47.2390374 3.8125 47.125 C2.554375 47.08375 1.29625 47.0425 0 47 C-1.08856282 38.60269252 -1.14986383 30.27034775 -1.125 21.8125 C-1.12857076 20.47200427 -1.13247513 19.13150939 -1.13671875 17.79101562 C-1.13542969 16.50517578 -1.13414062 15.21933594 -1.1328125 13.89453125 C-1.13168457 12.73800049 -1.13055664 11.58146973 -1.12939453 10.38989258 C-0.99494287 6.86751282 -0.55728952 3.4784938 0 0 Z " fill="#876B50" transform="translate(237,179)"/>
<path d="M0 0 C0 0.99 0 1.98 0 3 C-6.25831829 3.86159229 -12.51762567 4.71571025 -18.77783203 5.56347656 C-20.9195511 5.85362611 -23.06115372 6.1446366 -25.20263672 6.43652344 C-28.3012122 6.85768904 -31.40048928 7.27327967 -34.5 7.6875 C-35.4597876 7.81874268 -36.4195752 7.94998535 -37.40844727 8.08520508 C-41.97487307 8.69013985 -46.38068036 9.16167619 -51 9 C-50.67 7.68 -50.34 6.36 -50 5 C-48.37630685 4.80464789 -46.75260756 4.60934681 -45.12890625 4.4140625 C-44.08726318 4.28878174 -43.04562012 4.16350098 -41.97241211 4.03442383 C-39.68814979 3.76015535 -37.40380639 3.48656146 -35.11938477 3.21362305 C-30.02353057 2.60477055 -24.92813143 1.9942854 -19.8359375 1.35546875 C-19.0823999 1.26249512 -18.3288623 1.16952148 -17.55249023 1.07373047 C-15.5749872 0.82948157 -13.5980185 0.58091738 -11.62109375 0.33203125 C-7.7095926 -0.02662851 -3.92537387 -0.05638659 0 0 Z " fill="#DBC1AC" transform="translate(276,323)"/>
<path d="M0 0 C0 0.99 0 1.98 0 3 C-4.83364515 3.29088518 -9.66761449 3.57536894 -14.50195312 3.85449219 C-16.13876958 3.94983451 -17.77549358 4.04678079 -19.41210938 4.14550781 C-30.29196127 4.80043747 -41.09900154 5.13532274 -52 5 C-52 3.68 -52 2.36 -52 1 C-47.16610065 0.85454976 -42.33212005 0.71230786 -37.49804688 0.57275391 C-35.86130364 0.52508488 -34.22458357 0.47661193 -32.58789062 0.42724609 C-21.72089696 0.10016827 -10.87227908 -0.06748311 0 0 Z " fill="#E1CAB6" transform="translate(278,225)"/>
<path d="M0 0 C1.65 0.33 3.3 0.66 5 1 C5 2.98 5 4.96 5 7 C4.34 7 3.68 7 3 7 C3 18.55 3 30.1 3 42 C1.68 41.67 0.36 41.34 -1 41 C-2.17759935 29.66560627 -2.10492107 18.3815148 -2 7 C-1.01 7 -0.02 7 1 7 C0.67 4.69 0.34 2.38 0 0 Z " fill="#91765A" transform="translate(240,132)"/>
<path d="M0 0 C0.99 0 1.98 0 3 0 C3.33 2.97 3.66 5.94 4 9 C3.34 8.34 2.68 7.68 2 7 C1.87625 8.051875 1.7525 9.10375 1.625 10.1875 C1.08859218 13.45958771 0.36119965 16.00536076 -1 19 C-0.34 19.33 0.32 19.66 1 20 C-2.3 20 -5.6 20 -9 20 C-11.21411976 15.57176049 -11.37738474 14.59128246 -10 10 C-8.53301432 7.50782356 -7.15082958 6.0530646 -5 4 C-2.1875 3.625 -2.1875 3.625 0 4 C0 2.68 0 1.36 0 0 Z " fill="#C0A38A" transform="translate(254,328)"/>
<path d="M0 0 C0.33 0 0.66 0 1 0 C1 24.42 1 48.84 1 74 C0.01 74 -0.98 74 -2 74 C-2.40265184 49.28646889 -1.2342403 24.6765996 0 0 Z " fill="#755844" transform="translate(322,316)"/>
<path d="M0 0 C0 0.99 0 1.98 0 3 C-9.03739481 4.36140242 -18.08223552 5.34353571 -27.1875 6.125 C-28.66379883 6.25624268 -28.66379883 6.25624268 -30.16992188 6.39013672 C-37.12615372 6.96519447 -44.02178595 7.09714451 -51 7 C-51 6.01 -51 5.02 -51 4 C-44.70150825 3.42658223 -38.40264735 2.85735958 -32.10351562 2.29101562 C-29.96182727 2.09796568 -27.8202244 1.90396482 -25.67871094 1.70898438 C-22.59592459 1.42847085 -19.51284435 1.15140777 -16.4296875 0.875 C-14.99965897 0.74375732 -14.99965897 0.74375732 -13.54074097 0.60986328 C-9.00998232 0.20692649 -4.55459989 -0.10607511 0 0 Z " fill="#E4CCB8" transform="translate(277,274)"/>
<path d="M0 0 C0.33 0 0.66 0 1 0 C1 14.52 1 29.04 1 44 C0.67 42.68 0.34 41.36 0 40 C-8.91 40 -17.82 40 -27 40 C-27 39.01 -27 38.02 -27 37 C-21.25 34 -21.25 34 -19 34 C-19 34.99 -19 35.98 -19 37 C-18.47664063 36.65324219 -17.95328125 36.30648437 -17.4140625 35.94921875 C-14.11118956 34.65051628 -11.84695314 35.20510413 -8.375 35.8125 C-7.22773438 36.00457031 -6.08046875 36.19664062 -4.8984375 36.39453125 C-2 37 -2 37 0 38 C0 25.46 0 12.92 0 0 Z " fill="#A4866E" transform="translate(279,134)"/>
<path d="M0 0 C0.66 0 1.32 0 2 0 C2 24.42 2 48.84 2 74 C1.67 74 1.34 74 1 74 C-0.12995229 61.10565362 -0.31969817 48.21615754 -0.55224609 35.28149414 C-0.60437569 32.45190931 -0.66141415 29.62245215 -0.71875 26.79296875 C-0.73911316 25.51766548 -0.73911316 25.51766548 -0.7598877 24.21659851 C-0.8588747 19.39071357 -1.20495104 14.69767645 -1.88879395 9.91743469 C-2 8 -2 8 -1 5 C-0.34 5 0.32 5 1 5 C0.67 3.35 0.34 1.7 0 0 Z " fill="#B29B8D" transform="translate(154,121)"/>
<path d="M0 0 C0.66 0 1.32 0 2 0 C2.12783986 20.69629037 1.88775124 41.31964603 1 62 C0.01 62.495 0.01 62.495 -1 63 C-1.02508834 56.92090135 -1.04303974 50.84183413 -1.05493164 44.76269531 C-1.05989949 42.70311965 -1.06667606 40.64354739 -1.07543945 38.58398438 C-1.12888053 25.6826797 -0.89718331 12.87210231 0 0 Z " fill="#72533E" transform="translate(326,119)"/>
<path d="M0 0 C0.33 1.32 0.66 2.64 1 4 C0.34 4 -0.32 4 -1 4 C-0.938125 5.0209375 -0.938125 5.0209375 -0.875 6.0625 C-1.02549965 9.59924168 -1.94375853 12.63323033 -3 16 C-3.66 15.01 -4.32 14.02 -5 13 C-7.76531192 15.76531192 -7.36369014 17.70897263 -7.5625 21.5625 C-7.90277778 27.90277778 -7.90277778 27.90277778 -9 29 C-9.23075082 30.34747084 -9.41153063 31.70377565 -9.5625 33.0625 C-9.706875 34.361875 -9.85125 35.66125 -10 37 C-10.33 37 -10.66 37 -11 37 C-11.28618475 34.1637047 -11.53328313 31.3324331 -11.73046875 28.48828125 C-11.9050926 26.22829432 -12.15347529 23.97232944 -12.48828125 21.73046875 C-13.27624502 13.87931165 -13.27624502 13.87931165 -10.81787109 10.25927734 C-7.55860216 6.44596466 -3.86107391 3.18883336 0 0 Z " fill="#917F72" transform="translate(154,122)"/>
<path d="M0 0 C5.94 0 11.88 0 18 0 C17.67 1.32 17.34 2.64 17 4 C16.67 3.01 16.34 2.02 16 1 C11.49846896 3.41832237 11.49846896 3.41832237 8 7 C8.31595508 8.67004829 8.65179959 10.33637583 9 12 C8.71125 12.845625 8.4225 13.69125 8.125 14.5625 C6.47232701 19.61233414 6.32470133 24.71933106 6 30 C5.01 30 4.02 30 3 30 C2.8828107 26.64613239 2.81242416 23.29279851 2.75 19.9375 C2.71648437 18.99455078 2.68296875 18.05160156 2.6484375 17.08007812 C2.56082597 10.79395102 3.36306444 7.16187115 7 2 C4.69 1.67 2.38 1.34 0 1 C0 0.67 0 0.34 0 0 Z " fill="#B89A82" transform="translate(238,280)"/>
<path d="M0 0 C0 0.33 0 0.66 0 1 C-4.6256386 1.85902541 -9.25210496 2.71338921 -13.87939453 3.56347656 C-15.4528721 3.85321682 -17.02611742 4.14422136 -18.59912109 4.43652344 C-20.86235392 4.85685853 -23.12638764 5.27261466 -25.390625 5.6875 C-26.09181458 5.81874268 -26.79300415 5.94998535 -27.51544189 6.08520508 C-30.76422907 6.6761639 -33.68038834 7 -37 7 C-37 5.68 -37 4.36 -37 3 C-24.31968033 0.31177223 -13.01566346 -1.45363939 0 0 Z " fill="#C2A893" transform="translate(262,371)"/>
<path d="M0 0 C0.33 0.99 0.66 1.98 1 3 C6.94 3 12.88 3 19 3 C17.68 5.64 16.36 8.28 15 11 C13.69429517 15.4736444 13.67451354 20.17713688 13.4375 24.8125 C13.39431641 25.60076172 13.35113281 26.38902344 13.30664062 27.20117188 C13.20121679 29.13394215 13.10016906 31.06695026 13 33 C12.34 33 11.68 33 11 33 C10.67 23.43 10.34 13.86 10 4 C6.7 4 3.4 4 0 4 C0 2.68 0 1.36 0 0 Z " fill="#876A4F" transform="translate(225,278)"/>
<path d="M0 0 C0.99 0 1.98 0 3 0 C3.33 2.31 3.66 4.62 4 7 C3.01 7 2.02 7 1 7 C1.50054129 18.34828502 2.0130599 29.6816869 3 41 C1.02 41.495 1.02 41.495 -1 42 C-2.07727906 27.82963692 -2.15525755 14.08223363 0 0 Z " fill="#74583F" transform="translate(237,132)"/>
<path d="M0 0 C1.65 0 3.3 0 5 0 C4.835 1.093125 4.67 2.18625 4.5 3.3125 C3.93281816 6.87525873 3.93281816 6.87525873 4 10 C2.0698425 12.12229987 0.13905036 14.09437338 -1.9375 16.0625 C-5.9520932 19.65549343 -5.9520932 19.65549343 -9 24 C-10.32 23.67 -11.64 23.34 -13 23 C-12.62488281 22.50371094 -12.24976563 22.00742187 -11.86328125 21.49609375 C-10.79088252 20.07253171 -9.72348931 18.64519012 -8.66015625 17.21484375 C-7.64451229 15.85985522 -6.61399474 14.51566277 -5.55859375 13.19140625 C-2.26436771 8.93349617 -1.02089727 5.29010404 0 0 Z " fill="#896F58" transform="translate(238,350)"/>
<path d="M0 0 C0.33 0 0.66 0 1 0 C1.19956481 3.47858216 1.38240361 6.9578599 1.5625 10.4375 C1.61857422 11.41138672 1.67464844 12.38527344 1.73242188 13.38867188 C2.0343548 19.40720159 1.83345928 25.02996204 1 31 C-0.32 30.67 -1.64 30.34 -3 30 C-3 21.75 -3 13.5 -3 5 C-2.01 4.67 -1.02 4.34 0 4 C0 2.68 0 1.36 0 0 Z " fill="#E0C8B4" transform="translate(257,236)"/>
<path d="M0 0 C5.21745066 0.52506828 9.22651111 1.7798559 13.9375 4.0625 C15.65259766 4.88427734 15.65259766 4.88427734 17.40234375 5.72265625 C18.25957031 6.14417969 19.11679687 6.56570313 20 7 C20 7.66 20 8.32 20 9 C21.32 9 22.64 9 24 9 C26.125 10.9375 26.125 10.9375 28 13 C28.66 13.33 29.32 13.66 30 14 C30 12.35 30 10.7 30 9 C30.33 9 30.66 9 31 9 C31 11.64 31 14.28 31 17 C25.42647184 15.39851545 20.57685988 12.79831951 15.5 10.0625 C13.84403185 9.17785761 12.18778805 8.293731 10.53125 7.41015625 C9.36722656 6.78778076 9.36722656 6.78778076 8.1796875 6.15283203 C5.47465606 4.72214672 2.74576728 3.35059657 0 2 C0 1.34 0 0.68 0 0 Z " fill="#9D7C60" transform="translate(278,368)"/>
<path d="M0 0 C-0.59713411 4.0978328 -1.96235713 7.09713407 -4 10.6875 C-4.804375 12.11642578 -4.804375 12.11642578 -5.625 13.57421875 C-6.07875 14.37472656 -6.5325 15.17523438 -7 16 C-7.33 16.66 -7.66 17.32 -8 18 C-8.66 18 -9.32 18 -10 18 C-10 12.39 -10 6.78 -10 1 C-6.33418546 0.26683709 -3.63300168 -0.10380005 0 0 Z " fill="#4D361E" transform="translate(234,311)"/>
<path d="M0 0 C-6.76653881 2.61274446 -13.616456 4.79992293 -20.54882812 6.92578125 C-21.36673828 7.17972656 -22.18464844 7.43367187 -23.02734375 7.6953125 C-23.76718506 7.92234863 -24.50702637 8.14938477 -25.26928711 8.38330078 C-27.00549971 8.8625862 -27.00549971 8.8625862 -28 10 C-28.15620555 11.41327947 -28.25056173 12.8335459 -28.31640625 14.25390625 C-28.35830078 15.10791016 -28.40019531 15.96191406 -28.44335938 16.84179688 C-28.48267578 17.73962891 -28.52199219 18.63746094 -28.5625 19.5625 C-28.60568359 20.46419922 -28.64886719 21.36589844 -28.69335938 22.29492188 C-28.79978142 24.52978485 -28.90179988 26.76476308 -29 29 C-29.33 29 -29.66 29 -30 29 C-29.99476318 28.40985107 -29.98952637 27.81970215 -29.98413086 27.21166992 C-29.96333953 24.53695745 -29.95033299 21.86226199 -29.9375 19.1875 C-29.92912109 18.25873047 -29.92074219 17.32996094 -29.91210938 16.37304688 C-29.90888672 15.48037109 -29.90566406 14.58769531 -29.90234375 13.66796875 C-29.89710693 12.84578857 -29.89187012 12.0236084 -29.88647461 11.17651367 C-29.91258476 8.81827404 -29.91258476 8.81827404 -31 6 C-29.68 5.67 -28.36 5.34 -27 5 C-27 4.34 -27 3.68 -27 3 C-26.43152344 2.95101562 -25.86304688 2.90203125 -25.27734375 2.8515625 C-21.53974982 2.48965858 -18.12338475 2.03525279 -14.5 1 C-4 -2 -4 -2 0 0 Z " fill="#9B785C" transform="translate(311,125)"/>
<path d="M0 0 C0.80395025 4.22282518 1.11811363 8.19613764 1.09765625 12.4921875 C1.09443359 13.69101563 1.09121094 14.88984375 1.08789062 16.125 C1.07951172 17.3625 1.07113281 18.6 1.0625 19.875 C1.05798828 21.13570312 1.05347656 22.39640625 1.04882812 23.6953125 C1.0370796 26.79692386 1.02065167 29.89843725 1 33 C0.01 33.495 0.01 33.495 -1 34 C-1.66 33.67 -2.32 33.34 -3 33 C-3 22.44 -3 11.88 -3 1 C-1 0 -1 0 0 0 Z " fill="#DCC4B0" transform="translate(258,187)"/>
<path d="M0 0 C0.33 0 0.66 0 1 0 C1 13.2 1 26.4 1 40 C2.98 40 4.96 40 7 40 C9.375 41 9.375 41 11 42 C11 42.99 11 43.98 11 45 C9.35 44.67 7.7 44.34 6 44 C5.67 44.66 5.34 45.32 5 46 C3.515 46.495 3.515 46.495 2 47 C1.67 52.28 1.34 57.56 1 63 C0.67 63 0.34 63 0 63 C0 42.21 0 21.42 0 0 Z " fill="#4F3822" transform="translate(225,138)"/>
<path d="M0 0 C0.33 0 0.66 0 1 0 C1.02485982 4.57152925 1.04293526 9.14301847 1.05493164 13.71459961 C1.05993684 15.26734096 1.06674301 16.82007766 1.07543945 18.37280273 C1.08767307 20.61443232 1.09326657 22.85599918 1.09765625 25.09765625 C1.10281754 25.78336197 1.10797882 26.46906769 1.11329651 27.17555237 C1.1137986 31.56391821 0.70910669 35.68401845 0 40 C-2 38 -2 38 -2.22705078 34.83544922 C-2.22673389 33.49182037 -2.21542181 32.1481659 -2.1953125 30.8046875 C-2.1924826 30.09724396 -2.18965271 29.38980042 -2.18673706 28.66091919 C-2.17553137 26.3987749 -2.15042679 24.13702485 -2.125 21.875 C-2.11497067 20.34245363 -2.10584474 18.80990106 -2.09765625 17.27734375 C-2.07559086 13.51807699 -2.04105896 9.75910536 -2 6 C-1.67 6 -1.34 6 -1 6 C-0.67 4.02 -0.34 2.04 0 0 Z " fill="#C19B82" transform="translate(322,215)"/>
<path d="M0 0 C1.32 0.33 2.64 0.66 4 1 C3.7834375 2.03060547 3.7834375 2.03060547 3.5625 3.08203125 C3.376875 3.98308594 3.19125 4.88414062 3 5.8125 C2.814375 6.70582031 2.62875 7.59914062 2.4375 8.51953125 C1.91315157 11.07260693 1.91315157 11.07260693 2 14 C1.814375 14.598125 1.62875 15.19625 1.4375 15.8125 C0.84021546 18.12044901 0.84021546 18.12044901 1.5 20.9375 C2.01583778 24.0970064 1.76739908 25.93040369 1 29 C0.66055205 30.99897128 0.32578384 32.99875639 0 35 C-2.76608085 32.23391915 -2.71169236 30.16185073 -3.04296875 26.34375 C-2.95045439 19.14445082 -2.23355658 9.46711316 1 3 C0.34 3 -0.32 3 -1 3 C-0.67 2.01 -0.34 1.02 0 0 Z " fill="#B79A83" transform="translate(244,179)"/>
<path d="M0 0 C0.33 0 0.66 0 1 0 C1.89025574 9.43981643 2.21560151 18.81088432 2.24023438 28.28735352 C2.25012234 30.59100106 2.2813559 32.89381912 2.3125 35.19726562 C2.3190162 36.67447398 2.32427206 38.15168855 2.328125 39.62890625 C2.3404718 40.3111879 2.3528186 40.99346954 2.36553955 41.69642639 C2.34422744 46.23029229 1.90172041 47.13103945 -1 51 C-0.67 34.17 -0.34 17.34 0 0 Z " fill="#C8A184" transform="translate(313,215)"/>
<path d="M0 0 C0.66 0 1.32 0 2 0 C2 5.94 2 11.88 2 18 C2.66 18 3.32 18 4 18 C3.8576876 25.68486945 0.66758993 30.05278359 -4 36 C-4.33 35.34 -4.66 34.68 -5 34 C-4.29541627 32.30259375 -3.58555926 30.60548537 -2.7890625 28.94921875 C-1.18457815 24.98566582 -0.85712865 20.93842847 -0.68359375 16.69921875 C-0.64169922 15.72275391 -0.59980469 14.74628906 -0.55664062 13.74023438 C-0.51732422 12.73283203 -0.47800781 11.72542969 -0.4375 10.6875 C-0.39431641 9.66076172 -0.35113281 8.63402344 -0.30664062 7.57617188 C-0.20093175 5.05090431 -0.09883532 2.52554438 0 0 Z " fill="#664C35" transform="translate(234,332)"/>
<path d="M0 0 C0.99 0.33 1.98 0.66 3 1 C2.35708008 1.6705542 1.71416016 2.3411084 1.05175781 3.03198242 C-1.49227395 6.71211023 -1.61563438 9.04368584 -1.828125 13.48828125 C-1.8668573 14.19147995 -1.9055896 14.89467865 -1.94549561 15.6191864 C-2.06438439 17.84980846 -2.15755757 20.08064131 -2.25 22.3125 C-2.32642599 23.83146665 -2.40453336 25.35034969 -2.484375 26.86914062 C-2.67571861 30.57865861 -2.84403289 34.288807 -3 38 C-3.66 38 -4.32 38 -5 38 C-5.11712011 33.52105679 -5.1875608 29.04251286 -5.25 24.5625 C-5.28351563 23.30244141 -5.31703125 22.04238281 -5.3515625 20.74414062 C-5.42928394 13.30231263 -4.98134803 7.42078088 -1 1 C-0.67 0.67 -0.34 0.34 0 0 Z " fill="#A3876E" transform="translate(243,230)"/>
<path d="M0 0 C3.96 0 7.92 0 12 0 C11.83935059 0.81911865 11.67870117 1.6382373 11.51318359 2.48217773 C10.93729167 6.42985935 10.82828525 10.30556206 10.7890625 14.28515625 C10.76101259 15.88347411 10.73234828 17.48178129 10.703125 19.08007812 C10.66180506 21.57722887 10.6248773 24.07417577 10.59863281 26.5715332 C10.57098858 28.99731465 10.52514763 31.42221579 10.4765625 33.84765625 C10.47330963 34.59048355 10.47005676 35.33331085 10.46670532 36.09864807 C10.36183481 40.53620084 9.806009 43.50357061 7 47 C4.3125 47.8125 4.3125 47.8125 2 48 C3 46 3 46 6 45 C8.78969073 39.47585994 8.18210239 33.52123291 8.0625 27.5 C7.96544695 18.59807836 8.12581638 9.86671955 9 1 C6.03 1 3.06 1 0 1 C0 0.67 0 0.34 0 0 Z " fill="#7B5D43" transform="translate(226,230)"/>
<path d="M0 0 C5.28 0.33 10.56 0.66 16 1 C16 2.98 16 4.96 16 7 C11.71 7 7.42 7 3 7 C3 5.02 3 3.04 3 1 C2.01 0.67 1.02 0.34 0 0 Z " fill="#AB8F77" transform="translate(242,132)"/>
<path d="M0 0 C0.33 0 0.66 0 1 0 C1.33 2.97 1.66 5.94 2 9 C2.66 8.67 3.32 8.34 4 8 C4.33 11.96 4.66 15.92 5 20 C7.97 20 10.94 20 14 20 C13.67 20.99 13.34 21.98 13 23 C11.5629191 23.05422947 10.12524538 23.09289723 8.6875 23.125 C7.48673828 23.15980469 7.48673828 23.15980469 6.26171875 23.1953125 C4 23 4 23 1 21 C-0.43457329 14.08796504 -0.09645745 7.03067638 0 0 Z " fill="#AA8D74" transform="translate(241,203)"/>
<path d="M0 0 C0.66 0 1.32 0 2 0 C2.71390376 2.69696974 3.06292356 4.66831819 2.5390625 7.4296875 C1.75553761 12.61912048 1.81566468 17.75929742 1.8125 23 C1.80025391 24.06734375 1.78800781 25.1346875 1.77539062 26.234375 C1.76535044 31.61591195 1.99784203 35.93525255 4 41 C4 42.32 4 43.64 4 45 C2.68 44.67 1.36 44.34 0 44 C0 29.48 0 14.96 0 0 Z " fill="#94785E" transform="translate(238,179)"/>
<path d="M0 0 C1.65 0 3.3 0 5 0 C5.30859375 2.703125 5.30859375 2.703125 5 6 C2.84765625 8.484375 2.84765625 8.484375 0.0625 10.75 C-3.47761797 13.4653137 -3.47761797 13.4653137 -6 17 C-7.32 16.67 -8.64 16.34 -10 16 C-8.37660195 14.29115995 -6.70680947 12.62553283 -5 11 C-4.34 11 -3.68 11 -3 11 C-2.01 7.37 -1.02 3.74 0 0 Z " fill="#8A6E56" transform="translate(238,311)"/>
<path d="M0 0 C0.33 1.32 0.66 2.64 1 4 C0.34 4 -0.32 4 -1 4 C-0.938125 5.0209375 -0.938125 5.0209375 -0.875 6.0625 C-1.02549965 9.59924168 -1.94375853 12.63323033 -3 16 C-3.66 15.01 -4.32 14.02 -5 13 C-5.99 13.66 -6.98 14.32 -8 15 C-8.66 14.67 -9.32 14.34 -10 14 C-8.72130795 7.60653976 -4.61738504 4.23081327 0 0 Z " fill="#9A8678" transform="translate(154,122)"/>
<path d="M0 0 C0.66 0 1.32 0 2 0 C2.10152799 6.7685324 2.03026944 13.30324864 1 20 C0.01 19.67 -0.98 19.34 -2 19 C-2.05411124 16.58303128 -2.09372278 14.16728213 -2.125 11.75 C-2.14175781 11.06808594 -2.15851563 10.38617188 -2.17578125 9.68359375 C-2.21213482 5.9391765 -2.07944349 3.17647273 0 0 Z " fill="#DEC4AE" transform="translate(256,290)"/>
<path d="M0 0 C0.33 0 0.66 0 1 0 C1.22331199 1.58129029 1.42804644 3.16521089 1.625 4.75 C1.74101562 5.63171875 1.85703125 6.5134375 1.9765625 7.421875 C2.00271163 10.29827883 1.26121328 11.47757344 0 14 C-0.02853647 16.60122413 -0.02853647 16.60122413 0.375 19.25 C0.48585937 20.14203125 0.59671875 21.0340625 0.7109375 21.953125 C0.80632812 22.62859375 0.90171875 23.3040625 1 24 C2.98 24 4.96 24 7 24 C7 24.33 7 24.66 7 25 C0.25 25.125 0.25 25.125 -2 24 C-2.0544207 21.31222198 -2.09387266 18.62556788 -2.125 15.9375 C-2.14175781 15.18533203 -2.15851563 14.43316406 -2.17578125 13.65820312 C-2.21865121 8.70672291 -1.58399375 4.69585549 0 0 Z M-1 8 C0 10 0 10 0 10 Z " fill="#BB9D84" transform="translate(243,243)"/>
<path d="M0 0 C2.475 0.495 2.475 0.495 5 1 C5 2.98 5 4.96 5 7 C4.34 7 3.68 7 3 7 C3 14.92 3 22.84 3 31 C0.20822431 28.20822431 0.68786516 26.36816428 0.5859375 22.4609375 C0.54726562 21.15898437 0.50859375 19.85703125 0.46875 18.515625 C0.43729237 17.13542138 0.40604509 15.75521296 0.375 14.375 C0.33682066 12.98695459 0.29776895 11.59893289 0.2578125 10.2109375 C0.16327057 6.80742815 0.07772103 3.40392835 0 0 Z " fill="#9D8268" transform="translate(240,132)"/>
<path d="M0 0 C-2.87096939 1.91397959 -4.04397188 2.35327994 -7.30859375 2.8515625 C-8.13810547 2.98046875 -8.96761719 3.109375 -9.82226562 3.2421875 C-10.68529297 3.36851562 -11.54832031 3.49484375 -12.4375 3.625 C-13.29666016 3.7590625 -14.15582031 3.893125 -15.04101562 4.03125 C-18.7744664 4.59894306 -22.20707982 5 -26 5 C-26 4.34 -26 3.68 -26 3 C-17.19421143 0.81157917 -9.08009321 -0.4490156 0 0 Z " fill="#D8C0AA" transform="translate(252,371)"/>
<path d="M0 0 C0.33 0 0.66 0 1 0 C1 6.27 1 12.54 1 19 C1.66 19 2.32 19 3 19 C2.45184098 22.92847299 1.89723747 26.49011067 0 30 C-2.5 31.625 -2.5 31.625 -5 33 C-5.66 33.99 -6.32 34.98 -7 36 C-7.66 35.67 -8.32 35.34 -9 35 C-4 30 -4 30 -2.36401367 28.71948242 C-0.33475485 26.16138865 -0.56405772 24.02885901 -0.48828125 20.80078125 C-0.45283203 19.59228516 -0.41738281 18.38378906 -0.38085938 17.13867188 C-0.35830078 15.87603516 -0.33574219 14.61339844 -0.3125 13.3125 C-0.27833984 12.03826172 -0.24417969 10.76402344 -0.20898438 9.45117188 C-0.12639216 6.30086897 -0.05727665 3.15084843 0 0 Z " fill="#76583F" transform="translate(235,292)"/>
<path d="M0 0 C5.94 0 11.88 0 18 0 C17.67 1.32 17.34 2.64 17 4 C16.67 3.01 16.34 2.02 16 1 C11.91036181 3.28538605 8.53637896 5.95706926 5 9 C5 5.89448334 5.5393715 4.64738916 7 2 C4.69 1.67 2.38 1.34 0 1 C0 0.67 0 0.34 0 0 Z M3 9 C4 13 4 13 4 13 Z " fill="#B1937B" transform="translate(238,280)"/>
<path d="M0 0 C-5.12455516 4.41281139 -5.12455516 4.41281139 -9 5 C-10.0725 5.185625 -11.145 5.37125 -12.25 5.5625 C-13.1575 5.706875 -14.065 5.85125 -15 6 C-15 4.35 -15 2.7 -15 1 C-9.91913204 0.15318867 -5.15171623 -0.09038099 0 0 Z " fill="#A78C76" transform="translate(272,327)"/>
<path d="M0 0 C1.32 0.33 2.64 0.66 4 1 C2.99088542 2.66015625 1.98177083 4.3203125 0.97265625 5.98046875 C-1.40404163 10.91521896 -1.28761151 16.43640215 -1.5625 21.8125 C-1.60568359 22.60076172 -1.64886719 23.38902344 -1.69335938 24.20117188 C-1.79878321 26.13394215 -1.89983094 28.06695026 -2 30 C-2.33 30 -2.66 30 -3 30 C-3.08776185 26.31265225 -3.14064603 22.62557653 -3.1875 18.9375 C-3.22520508 17.37999023 -3.22520508 17.37999023 -3.26367188 15.79101562 C-3.32160147 9.70840838 -2.90687164 5.37885697 0 0 Z " fill="#94775A" transform="translate(240,281)"/>
<path d="M0 0 C3.3 0 6.6 0 10 0 C9.67 0.99 9.34 1.98 9 3 C8.34 3 7.68 3 7 3 C7 8.28 7 13.56 7 19 C6.34 19 5.68 19 5 19 C5 13.06 5 7.12 5 1 C3.35 1 1.7 1 0 1 C0 0.67 0 0.34 0 0 Z " fill="#86684D" transform="translate(231,331)"/>
<path d="M0 0 C3.63 0 7.26 0 11 0 C9.37660195 1.70884005 7.70680947 3.37446717 6 5 C5.34 5 4.68 5 4 5 C3.95101562 5.84304688 3.90203125 6.68609375 3.8515625 7.5546875 C3.77679688 8.65039062 3.70203125 9.74609375 3.625 10.875 C3.55539063 11.96554687 3.48578125 13.05609375 3.4140625 14.1796875 C3 17 3 17 1 19 C0.68014269 12.28299653 1.5206176 7.24273068 4 1 C2.68 0.67 1.36 0.34 0 0 Z " fill="#A3876D" transform="translate(239,330)"/>
<path d="M0 0 C0.33 0 0.66 0 1 0 C1.01981934 0.57967529 1.03963867 1.15935059 1.06005859 1.7565918 C1.15572601 4.40065937 1.26523453 7.0439817 1.375 9.6875 C1.4059375 10.59951172 1.436875 11.51152344 1.46875 12.45117188 C1.67199725 17.10892132 2.0701996 20.70463781 4 25 C4.1953125 27.45703125 4.1953125 27.45703125 4.125 29.8125 C4.10695312 30.60269531 4.08890625 31.39289063 4.0703125 32.20703125 C4.03550781 33.09455078 4.03550781 33.09455078 4 34 C3.01 34 2.02 34 1 34 C-0.17759935 22.66560627 -0.10492107 11.3815148 0 0 Z " fill="#886A4F" transform="translate(238,139)"/>
<path d="M0 0 C1.65 0.33 3.3 0.66 5 1 C4.67 13.21 4.34 25.42 4 38 C3.67 38 3.34 38 3 38 C3 26.12 3 14.24 3 2 C1.68 1.67 0.36 1.34 -1 1 C-0.67 0.67 -0.34 0.34 0 0 Z " fill="#977B5C" transform="translate(318,121)"/>
<path d="M0 0 C1.16144531 0.00902344 2.32289063 0.01804687 3.51953125 0.02734375 C4.39996094 0.03894531 5.28039062 0.05054688 6.1875 0.0625 C0.42509526 3.90410316 -5.10407865 4.29788321 -11.8125 4.0625 C-11.8125 3.0725 -11.8125 2.0825 -11.8125 1.0625 C-7.81454108 0.10630267 -4.10446078 -0.0414592 0 0 Z " fill="#B89C87" transform="translate(268.8125,277.9375)"/>
<path d="M0 0 C0.33 0 0.66 0 1 0 C2.16711095 8.66996704 2.09744014 17.27369392 2 26 C1.01 26.33 0.02 26.66 -1 27 C-1.13534286 17.94706663 -0.75741925 9.02140429 0 0 Z " fill="#B99577" transform="translate(311,229)"/>
<path d="M0 0 C0.99 0 1.98 0 3 0 C2.4509121 6.86359876 0.47044536 10.86643355 -4.75 15.375 C-5.86375 16.179375 -5.86375 16.179375 -7 17 C-6.06867353 14.42094207 -5.258367 12.31219346 -3.5 10.1875 C-1.30468655 6.98600121 -0.81971132 3.78328303 0 0 Z " fill="#795E47" transform="translate(238,350)"/>
<path d="M0 0 C0.13794954 7.06608191 -0.25194283 13.97360585 -1 21 C-1.33 21 -1.66 21 -2 21 C-2.07347656 19.53626953 -2.07347656 19.53626953 -2.1484375 18.04296875 C-2.22320312 16.77066406 -2.29796875 15.49835938 -2.375 14.1875 C-2.44460938 12.92292969 -2.51421875 11.65835938 -2.5859375 10.35546875 C-2.76102939 6.87244766 -2.76102939 6.87244766 -5 4 C-5 3.01 -5 2.02 -5 1 C-1.125 0 -1.125 0 0 0 Z " fill="#DBC3AD" transform="translate(260,138)"/>
<path d="M0 0 C0.33 0 0.66 0 1 0 C1.11614929 4.0830942 1.18723457 8.16576377 1.25 12.25 C1.28351563 13.40886719 1.31703125 14.56773437 1.3515625 15.76171875 C1.36445313 16.87675781 1.37734375 17.99179687 1.390625 19.140625 C1.41157227 20.16704102 1.43251953 21.19345703 1.45410156 22.25097656 C0.8836859 25.70413805 -0.27310577 26.87908227 -3 29 C-3.66 29 -4.32 29 -5 29 C-3 25 -3 25 -1.95556641 23.17089844 C-0.85150073 20.66263272 -0.68592192 18.74853238 -0.5859375 16.015625 C-0.52792969 14.61376953 -0.52792969 14.61376953 -0.46875 13.18359375 C-0.42234375 11.73146484 -0.42234375 11.73146484 -0.375 10.25 C-0.31699219 8.77466797 -0.31699219 8.77466797 -0.2578125 7.26953125 C-0.16371574 4.84653963 -0.07807672 2.42355204 0 0 Z " fill="#674B33" transform="translate(234,294)"/>
<path d="M0 0 C1.32 0 2.64 0 4 0 C4 11.22 4 22.44 4 34 C3.67 34 3.34 34 3 34 C3 23.44 3 12.88 3 2 C2.01 2.33 1.02 2.66 0 3 C0 2.01 0 1.02 0 0 Z " fill="#C6A991" transform="translate(275,178)"/>
<path d="M0 0 C0.66 0 1.32 0 2 0 C2 0.99 2 1.98 2 3 C2.52335937 2.65453125 3.04671875 2.3090625 3.5859375 1.953125 C6.88054834 0.65234014 9.15388895 1.17017558 12.625 1.75 C13.77226562 1.93046875 14.91953125 2.1109375 16.1015625 2.296875 C19 3 19 3 21 5 C13.74 4.67 6.48 4.34 -1 4 C-0.67 2.68 -0.34 1.36 0 0 Z " fill="#B29782" transform="translate(258,168)"/>
<path d="M0 0 C0 0.33 0 0.66 0 1 C-0.98742187 1.06058594 -1.97484375 1.12117187 -2.9921875 1.18359375 C-4.27351563 1.26738281 -5.55484375 1.35117188 -6.875 1.4375 C-8.15117187 1.51871094 -9.42734375 1.59992188 -10.7421875 1.68359375 C-13.88300152 1.79206027 -13.88300152 1.79206027 -16 3 C-18.6723621 3.13415472 -21.32250488 3.04318541 -24 3 C-23 1 -23 1 -20 0 C-13.16746472 -0.9110047 -6.79546242 -1.17613773 0 0 Z " fill="#BDA18B" transform="translate(278,223)"/>
<path d="M0 0 C0.33 0 0.66 0 1 0 C1.05451714 2.04136395 1.09302485 4.08315856 1.125 6.125 C1.14820313 7.26195312 1.17140625 8.39890625 1.1953125 9.5703125 C0.99672109 13.05757767 0.2524801 15.7553862 -1 19 C-1.33 19 -1.66 19 -2 19 C-2.19818283 12.29481414 -2.30844801 6.34823202 0 0 Z " fill="#876A55" transform="translate(325,215)"/>
<path d="M0 0 C2.31 0 4.62 0 7 0 C6.67 1.65 6.34 3.3 6 5 C4.68 5 3.36 5 2 5 C1.67 6.32 1.34 7.64 1 9 C0.67 9 0.34 9 0 9 C0 6.03 0 3.06 0 0 Z " fill="#C1A590" transform="translate(253,229)"/>
<path d="M0 0 C0 0.99 0 1.98 0 3 C-3.10860106 3.9991932 -4.88611292 3.83036989 -8 3 C-8.99 3.495 -8.99 3.495 -10 4 C-10 3.34 -10 2.68 -10 2 C-11.32 2.33 -12.64 2.66 -14 3 C-14.33 2.34 -14.66 1.68 -15 1 C-10.03926578 -0.32286246 -5.08888488 -0.08893197 0 0 Z " fill="#C7AC97" transform="translate(278,228)"/>
<path d="M0 0 C0.33 0 0.66 0 1 0 C1.33 2.97 1.66 5.94 2 9 C2.66 8.67 3.32 8.34 4 8 C4.33 11.96 4.66 15.92 5 20 C4.01 20 3.02 20 2 20 C0.3879491 13.23514355 -0.26618595 6.95041086 0 0 Z " fill="#AF937C" transform="translate(241,203)"/>
<path d="M0 0 C2 2 2 2 2.13525391 3.87939453 C2.08288574 4.62302246 2.03051758 5.36665039 1.9765625 6.1328125 C1.89921875 7.34130859 1.89921875 7.34130859 1.8203125 8.57421875 C1.75585938 9.41597656 1.69140625 10.25773438 1.625 11.125 C1.56828125 11.97449219 1.5115625 12.82398438 1.453125 13.69921875 C1.31149023 15.8001345 1.15695674 17.90017334 1 20 C0.34 20.33 -0.32 20.66 -1 21 C-1.02710123 18.4374282 -1.04688771 15.87514635 -1.0625 13.3125 C-1.07087891 12.59126953 -1.07925781 11.87003906 -1.08789062 11.12695312 C-1.10543632 7.28444618 -0.93524221 3.73360474 0 0 Z " fill="#A78B73" transform="translate(243,139)"/>
<path d="M0 0 C4.75 -0.125 4.75 -0.125 7 1 C8.37548156 1.08308638 9.75485796 1.10736016 11.1328125 1.09765625 C11.93847656 1.09443359 12.74414062 1.09121094 13.57421875 1.08789062 C14.41597656 1.07951172 15.25773438 1.07113281 16.125 1.0625 C17.39923828 1.05573242 17.39923828 1.05573242 18.69921875 1.04882812 C20.79950909 1.03702874 22.8997633 1.01909306 25 1 C25 1.33 25 1.66 25 2 C12.625 2.495 12.625 2.495 0 3 C0 2.01 0 1.02 0 0 Z " fill="#C3AC96" transform="translate(227,129)"/>
<path d="M0 0 C0 1.32 0 2.64 0 4 C-3.9813783 5.3271261 -7.85045227 5.06915913 -12 5 C-10.68 4.34 -9.36 3.68 -8 3 C-8.66 2.34 -9.32 1.68 -10 1 C-2.25 0 -2.25 0 0 0 Z " fill="#C5AB94" transform="translate(276,366)"/>
<path d="M0 0 C0.33 0 0.66 0 1 0 C2.6120509 6.76485645 3.26618595 13.04958914 3 20 C2.67 20 2.34 20 2 20 C1.67 18.35 1.34 16.7 1 15 C0.67 15 0.34 15 0 15 C0 10.05 0 5.1 0 0 Z " fill="#957E6B" transform="translate(145,345)"/>
<path d="M0 0 C0.33 0 0.66 0 1 0 C1.33 3.3 1.66 6.6 2 10 C2.33 10 2.66 10 3 10 C3 13.96 3 17.92 3 22 C-0.31639581 17.02540629 -0.12219877 11.97547992 -0.0625 6.125 C-0.05347656 4.97257813 -0.04445313 3.82015625 -0.03515625 2.6328125 C-0.02355469 1.76398438 -0.01195312 0.89515625 0 0 Z " fill="#8F7461" transform="translate(324,171)"/>
<path d="M0 0 C0.53625 0.37125 1.0725 0.7425 1.625 1.125 C1.625 2.445 1.625 3.765 1.625 5.125 C-2.59412747 4.6455537 -5.17163178 3.95874881 -8.375 1.125 C-2.95961538 -1.09038462 -2.95961538 -1.09038462 0 0 Z " fill="#987658" transform="translate(317.375,383.875)"/>
<path d="M0 0 C2.31 0.33 4.62 0.66 7 1 C7.33 1.99 7.66 2.98 8 4 C10.50447516 5.21869929 10.50447516 5.21869929 13 6 C11.4375 6.75 11.4375 6.75 9 7 C6.49974974 5.87516581 4.3320943 4.46835567 2 3 C1.34 2.67 0.68 2.34 0 2 C0 1.34 0 0.68 0 0 Z " fill="#8E6C4F" transform="translate(278,368)"/>
<path d="M0 0 C-2.80478513 2.80478513 -4.88543472 2.96108361 -8.796875 3.09765625 C-9.77140625 3.08605469 -10.7459375 3.07445312 -11.75 3.0625 C-12.73484375 3.05347656 -13.7196875 3.04445313 -14.734375 3.03515625 C-15.48203125 3.02355469 -16.2296875 3.01195312 -17 3 C-11.72346191 -0.51769206 -6.13607598 -0.10579441 0 0 Z " fill="#D4BBA5" transform="translate(270,368)"/>
<path d="M0 0 C0.33 0 0.66 0 1 0 C1 3.63 1 7.26 1 11 C-1.475 10.01 -1.475 10.01 -4 9 C-4 7.35 -4 5.7 -4 4 C-3.01 4.33 -2.02 4.66 -1 5 C-0.67 3.35 -0.34 1.7 0 0 Z " fill="#907155" transform="translate(320,254)"/>
<path d="M0 0 C1.48828125 1.11328125 1.48828125 1.11328125 3 3 C3.29296875 5.91796875 3.29296875 5.91796875 3.1875 9.1875 C3.16042969 10.27417969 3.13335937 11.36085937 3.10546875 12.48046875 C3.07066406 13.31191406 3.03585937 14.14335937 3 15 C2.01 14.34 1.02 13.68 0 13 C-0.29296875 9.9609375 -0.29296875 9.9609375 -0.1875 6.375 C-0.16042969 5.18648437 -0.13335937 3.99796875 -0.10546875 2.7734375 C-0.07066406 1.85820312 -0.03585937 0.94296875 0 0 Z " fill="#806452" transform="translate(325,137)"/>
<path d="M0 0 C0.33 0 0.66 0 1 0 C1 3.96 1 7.92 1 12 C0.01 11.67 -0.98 11.34 -2 11 C-2.05399736 9.54207116 -2.09279177 8.08357288 -2.125 6.625 C-2.15980469 5.40683594 -2.15980469 5.40683594 -2.1953125 4.1640625 C-2 2 -2 2 0 0 Z " fill="#E4CCB6" transform="translate(256,298)"/>
<path d="M0 0 C0.99 0.495 0.99 0.495 2 1 C1.67 1.66 1.34 2.32 1 3 C1.99 3.33 2.98 3.66 4 4 C3.34 4.66 2.68 5.32 2 6 C1.6936141 8.73434962 1.4886664 11.38279821 1.375 14.125 C1.33632812 14.87910156 1.29765625 15.63320312 1.2578125 16.41015625 C1.16348969 18.27303184 1.08065338 20.13648255 1 22 C0.67 22 0.34 22 0 22 C0 14.74 0 7.48 0 0 Z " fill="#513A23" transform="translate(225,179)"/>
<path d="M0 0 C4.38889325 0.66498383 7.9811485 2.18757677 12 4 C12 4.66 12 5.32 12 6 C9.69 6 7.38 6 5 6 C4.67 5.01 4.34 4.02 4 3 C2.00334686 1.31461399 2.00334686 1.31461399 0 0 Z " fill="#987556" transform="translate(286,371)"/>
<path d="M0 0 C0.33 0 0.66 0 1 0 C1 3.3 1 6.6 1 10 C-0.32 9.67 -1.64 9.34 -3 9 C-2.44271087 5.65626525 -1.64826111 2.96687001 0 0 Z " fill="#D8BEA7" transform="translate(256,338)"/>
<path d="M0 0 C3.3 0 6.6 0 10 0 C9.67 0.66 9.34 1.32 9 2 C6.93359375 2.6328125 6.93359375 2.6328125 4.4375 3.125 C3.19806641 3.37636719 3.19806641 3.37636719 1.93359375 3.6328125 C1.29550781 3.75398437 0.65742188 3.87515625 0 4 C0 2.68 0 1.36 0 0 Z " fill="#B99D86" transform="translate(260,133)"/>
<path d="M0 0 C2.64 0 5.28 0 8 0 C8 0.66 8 1.32 8 2 C4.04 2.99 0.08 3.98 -4 5 C-4 4.34 -4 3.68 -4 3 C-2.68 2.67 -1.36 2.34 0 2 C0 1.34 0 0.68 0 0 Z " fill="#AC9079" transform="translate(284,128)"/>
<path d="M0 0 C0.66 0.33 1.32 0.66 2 1 C1.814375 1.5775 1.62875 2.155 1.4375 2.75 C0.95976454 5.20692525 1.24270636 6.64397534 2 9 C3.32 9.33 4.64 9.66 6 10 C3.36 10 0.72 10 -2 10 C-1.85950482 8.52031676 -1.71245174 7.04125484 -1.5625 5.5625 C-1.48128906 4.73878906 -1.40007812 3.91507812 -1.31640625 3.06640625 C-1 1 -1 1 0 0 Z " fill="#B1947B" transform="translate(243,339)"/>
<path d="M0 0 C2.475 0.495 2.475 0.495 5 1 C5 2.98 5 4.96 5 7 C3.68 7 2.36 7 1 7 C0.67 4.69 0.34 2.38 0 0 Z " fill="#8D7156" transform="translate(240,132)"/>
<path d="M0 0 C0.99 0 1.98 0 3 0 C2.125 5.75 2.125 5.75 1 8 C0.01 8 -0.98 8 -2 8 C-1.34 5.36 -0.68 2.72 0 0 Z " fill="#87684C" transform="translate(238,311)"/>
<path d="M0 0 C0.99 0.33 1.98 0.66 3 1 C-2.28571429 7.42857143 -2.28571429 7.42857143 -5 10 C-4.49701212 5.59885603 -2.91227269 3.28804981 0 0 Z " fill="#AC907A" transform="translate(246,230)"/>
<path d="M0 0 C1.98 0 3.96 0 6 0 C5.67 1.32 5.34 2.64 5 4 C2.36 4.33 -0.28 4.66 -3 5 C-2 3 -2 3 1 2 C0.67 1.34 0.34 0.68 0 0 Z " fill="#C7AC96" transform="translate(271,277)"/>
<path d="M0 0 C0.66 0 1.32 0 2 0 C2.36923077 5.53846154 2.36923077 5.53846154 0.5 7.875 C-0.2425 8.431875 -0.2425 8.431875 -1 9 C-1.66 8.67 -2.32 8.34 -3 8 C-2.01 5.36 -1.02 2.72 0 0 Z " fill="#95775B" transform="translate(241,311)"/>
<path d="M0 0 C2.97 0 5.94 0 9 0 C9 0.33 9 0.66 9 1 C7.35 1 5.7 1 4 1 C4 1.66 4 2.32 4 3 C2.68 3 1.36 3 0 3 C0 2.01 0 1.02 0 0 Z " fill="#B0947E" transform="translate(257,279)"/>
</svg>
