<?xml version="1.0" encoding="UTF-8"?>
<svg version="1.1" xmlns="http://www.w3.org/2000/svg" width="606" height="842">
<path d="M0 0 C199.98 0 399.96 0 606 0 C606 277.86 606 555.72 606 842 C406.02 842 206.04 842 0 842 C0 564.14 0 286.28 0 0 Z " fill="#EFEFEF" transform="translate(0,0)"/>
<path d="M0 0 C28.71 0 57.42 0 87 0 C83.11546137 2.58969242 79.89481607 2.25250329 75.39453125 2.1953125 C74.65054077 2.19329834 73.90655029 2.19128418 73.14001465 2.18920898 C70.36411361 2.17875468 67.58830053 2.15083203 64.8125 2.125 C55.5003125 2.063125 55.5003125 2.063125 46 2 C46 18.83 46 35.66 46 53 C55.24 53 64.48 53 74 53 C75.85081746 71.50817457 77.42159177 89.92232526 78.26513672 108.50097656 C78.57620014 115.0693327 79.00804866 121.51768343 79.96484375 128.03125 C81.50198438 138.77421023 81.90941167 149.60923372 82.5 160.4375 C83.17338839 172.76347569 83.87136935 184.99582064 85.54052734 197.23022461 C86.38390377 204.14976522 86.69827306 211.10409899 87.0625 218.0625 C87.17914205 220.2369891 87.29747239 222.41135086 87.41929626 224.58555603 C87.52808174 226.53347932 87.63153601 228.48169826 87.73461914 230.42993164 C87.91118267 232.80517406 88.16947611 235.17577097 88.50927734 237.53320312 C88.99737183 240.98143286 89.20416637 244.3291574 89.31640625 247.80859375 C89.35830078 249.04931641 89.40019531 250.29003906 89.44335938 251.56835938 C89.48267578 252.84517578 89.52199219 254.12199219 89.5625 255.4375 C89.60568359 256.74138672 89.64886719 258.04527344 89.69335938 259.38867188 C89.79897524 262.59235316 89.90108101 265.79610611 90 269 C90.66 269 91.32 269 92 269 C92.05304543 270.03237289 92.05304543 270.03237289 92.10716248 271.08560181 C92.47626652 278.25601613 92.85015416 285.42616972 93.22680664 292.59619141 C93.36708659 295.27124093 93.50567812 297.94636995 93.64282227 300.62158203 C93.84070644 304.46925045 94.04297566 308.31666727 94.24609375 312.1640625 C94.3065538 313.35802643 94.36701385 314.55199036 94.42930603 315.78213501 C94.48929276 316.90284393 94.54927948 318.02355286 94.61108398 319.17822266 C94.66215805 320.15973297 94.71323212 321.14124329 94.76585388 322.15249634 C95.01178533 325.14332401 95.49733808 328.04260552 96 331 C96.14983559 332.59652718 96.27482179 334.19561093 96.37304688 335.79614258 C96.42980591 336.69339554 96.48656494 337.5906485 96.54504395 338.51509094 C96.60236694 339.46530624 96.65968994 340.41552155 96.71875 341.39453125 C96.84758071 343.42122876 96.97648922 345.44792133 97.10546875 347.47460938 C97.30444719 350.65900509 97.50190562 353.84348639 97.69775391 357.02807617 C97.88833501 360.10882211 98.08448885 363.1891748 98.28125 366.26953125 C98.338573 367.22986771 98.395896 368.19020416 98.45495605 369.17964172 C98.5400946 370.50187996 98.5400946 370.50187996 98.62695312 371.85083008 C98.67501099 372.6299324 98.72306885 373.40903473 98.77258301 374.21174622 C98.8172903 376.02137399 98.8172903 376.02137399 100 377 C100.08685603 378.56172745 100.10702219 380.12729344 100.09765625 381.69140625 C100.09282227 383.10776367 100.09282227 383.10776367 100.08789062 384.55273438 C100.07532227 386.04256836 100.07532227 386.04256836 100.0625 387.5625 C100.05798828 388.55958984 100.05347656 389.55667969 100.04882812 390.58398438 C100.03700007 393.05604849 100.02051849 395.52799518 100 398 C98.58430936 398.08167446 97.16723195 398.13949698 95.75 398.1875 C94.96109375 398.22230469 94.1721875 398.25710938 93.359375 398.29296875 C90.35942861 397.92045885 89.18457875 397.07398896 87 395 C86.41181946 392.66752625 86.41181946 392.66752625 86.28637695 389.8894043 C86.22984451 388.84789719 86.17331207 387.80639008 86.11506653 386.73332214 C86.07322739 385.60831802 86.03138824 384.4833139 85.98828125 383.32421875 C85.92972458 382.16630325 85.87116791 381.00838776 85.81083679 379.81538391 C85.62675169 376.10669725 85.46883232 372.39745089 85.3125 368.6875 C85.14009883 364.98868934 84.96237235 361.29018245 84.7820282 357.5917511 C84.67157142 355.28927802 84.56670713 352.98652818 84.46809387 350.68351746 C84.2449862 345.70267258 83.91662739 340.90938638 83 336 C82.84006801 334.0854954 82.70998085 332.16832826 82.60546875 330.25 C82.53908203 329.10700439 82.47269531 327.96400879 82.40429688 326.78637695 C82.33275391 325.53687256 82.26121094 324.28736816 82.1875 323 C81.35288737 309.08412511 80.21639006 295.19974916 79 281.3125 C78.91632172 280.35206787 78.83264343 279.39163574 78.74642944 278.40209961 C77.95316792 269.3217332 77.13858433 260.24589846 76.19265747 251.18003845 C75.26302866 242.24434964 74.62942167 233.34083076 74.22314453 224.36737061 C73.66235607 212.26891746 72.66796024 200.37653096 71 188.375 C69.25585216 175.70059109 68.34129655 163.08983403 67.75 150.3125 C67.70907227 149.44091248 67.66814453 148.56932495 67.62597656 147.67132568 C67.17240925 137.77554586 66.87932604 127.90755579 67 118 C66.34 118 65.68 118 65 118 C64.01 101.83 63.02 85.66 62 69 C52.50107036 69.03959626 52.50107036 69.03959626 43.00219727 69.09008789 C41.82713623 69.09258545 40.6520752 69.09508301 39.44140625 69.09765625 C38.23170166 69.10289307 37.02199707 69.10812988 35.77563477 69.11352539 C33 69 33 69 32 68 C31.92755947 65.98035801 31.91622812 63.95832876 31.9375 61.9375 C31.94652344 60.83277344 31.95554687 59.72804688 31.96484375 58.58984375 C31.97644531 57.73519531 31.98804688 56.88054687 32 56 C31.01 56.495 31.01 56.495 30 57 C28.61509626 64.8699738 28.82221648 73.13977797 28.71875 81.11328125 C28.70074844 82.23282196 28.68274689 83.35236267 28.66419983 84.50582886 C28.62611688 86.88247222 28.58965545 89.25914206 28.55471802 91.63583374 C28.46217981 97.85375122 28.35390632 104.07139399 28.24609375 110.2890625 C28.21478615 112.10911049 28.21478615 112.10911049 28.18284607 113.96592712 C27.89204511 130.57366321 27.40757575 147.16818383 26.5625 163.7578125 C26.39397667 167.10928456 26.22759051 170.46085714 26.0625 173.8125 C26.01990051 174.67117676 25.97730103 175.52985352 25.93341064 176.41455078 C24.73341459 201.10982824 24.28746061 225.83456288 23.75656128 250.5513916 C23.67981626 254.10077938 23.60026546 257.6501017 23.52042007 261.19942093 C23.46623869 263.6669407 23.4166023 266.13452385 23.36715698 268.60214233 C23.2288531 275.0208571 23.06666865 281.37507328 22.23756409 287.7490387 C21.67426488 293.08639729 21.65164582 298.47435315 21.5 303.8359375 C21.43793979 305.84595272 21.37587582 307.85596783 21.31359863 309.86597633 C21.2060542 313.36889493 21.10322948 316.87195205 21 320.375 C20.87666732 324.55253328 20.75233932 328.73002559 20.62304688 332.90737915 C20.54312858 335.49955038 20.46613743 338.09181411 20.39257812 340.68417358 C20.19908902 346.95883206 19.83886075 353.1651239 19.22290039 359.41171265 C18.85447163 363.6898546 18.78552826 367.9660243 18.71875 372.2578125 C18.70065781 373.19699524 18.68256561 374.13617798 18.66392517 375.1038208 C18.62576606 377.09170626 18.58920733 379.07962301 18.5541687 381.06756592 C18.46311871 386.20668409 18.35925296 391.3455325 18.25390625 396.484375 C18.23344742 397.48653046 18.21298859 398.48868591 18.19190979 399.52120972 C17.95585608 410.68781185 17.53179594 421.84360015 17 433 C16.34 433 15.68 433 15 433 C14.34 434.32 13.68 435.64 13 437 C6.375 437.125 6.375 437.125 3 436 C2.84509865 422.76454008 3.10733619 409.5430729 3.4375 396.3125 C3.45714813 395.48773163 3.47679626 394.66296326 3.49703979 393.8132019 C3.55591074 391.37146514 3.61911891 388.92987591 3.68359375 386.48828125 C3.70031128 385.78629608 3.71702881 385.08431091 3.73425293 384.36105347 C3.87777801 379.21046016 4.17080954 374.07351874 4.48852539 368.93115234 C5.00368806 360.4949494 5.28740651 352.06210287 5.5 343.61328125 C5.54046173 342.08094291 5.58111659 340.54860966 5.62194824 339.01628113 C5.72936859 334.95386493 5.83304682 330.8913614 5.93588257 326.8288269 C6.00054454 324.29112929 6.06657525 321.75347087 6.13305664 319.21582031 C6.69784582 297.64488663 7.16067666 276.07577143 7.5 254.5 C7.75187224 238.51185068 8.25997356 222.58289336 9.26733398 206.62451172 C10.02801141 194.48678047 10.39820891 182.35295676 10.65820312 170.19482422 C10.6744725 169.48279846 10.69074188 168.77077271 10.70750427 168.03717041 C10.75039621 166.13243542 10.78861444 164.22759672 10.82641602 162.32275391 C10.93792322 158.70205756 11.20857876 155.10118783 11.48413086 151.48950195 C12.0555487 143.72801419 12.30092048 135.96901704 12.5 128.19140625 C12.5407247 126.69383463 12.5817477 125.1962711 12.62304688 123.69871521 C12.73052198 119.77679121 12.83448424 115.85478262 12.9375 111.93273926 C13.1007568 105.74141644 13.26952339 99.55023952 13.43777466 93.35905075 C13.47915017 91.83460223 13.5203903 90.31015003 13.56149292 88.78569412 C13.98236127 73.18850474 14.47736472 57.59408809 15 42 C18.42595393 40.53173403 21.26930717 39.74613857 25 39 C19.39 38.34 13.78 37.68 8 37 C7.33829558 45.01171351 6.93112643 52.87212089 7.06494141 60.90673828 C7.36188853 79.29090399 6.41123739 97.58123954 5.41906738 115.93432617 C4.59526653 131.22488563 3.86630963 146.50719473 3.390625 161.8125 C3.36792416 162.54275265 3.34522331 163.27300529 3.32183456 164.02538681 C3.10204245 171.1596846 2.8962422 178.29432801 2.70276642 185.42938614 C2.64835715 187.41862042 2.5918753 189.40779768 2.53533936 191.39697266 C2.46649612 193.83126325 2.40171874 196.26567329 2.34161377 198.70019531 C2.31122009 199.76995605 2.28082642 200.8397168 2.24951172 201.94189453 C2.22525116 202.87566925 2.2009906 203.80944397 2.17599487 204.77151489 C2 207 2 207 1 209 C0.85480561 211.58243933 0.76560661 214.14197577 0.71875 216.7265625 C0.70034058 217.50703949 0.68193115 218.28751648 0.66296387 219.09164429 C0.60416182 221.60268509 0.55155378 224.11380068 0.5 226.625 C0.25001595 238.44200295 -0.15847422 250.20842645 -1 262 C-1.66 262 -2.32 262 -3 262 C-2.99214478 263.18082153 -2.99214478 263.18082153 -2.98413086 264.38549805 C-2.89959825 279.18298421 -2.92800661 293.95922316 -3.4375 308.75 C-3.47673584 309.91877686 -3.51597168 311.08755371 -3.55639648 312.29174805 C-3.74460674 317.2932278 -4.01364167 322.25755143 -4.48632812 327.24047852 C-4.9905676 332.65059265 -5.29818861 338.0528491 -5.53515625 343.48046875 C-5.57813339 344.41933426 -5.62111053 345.35819977 -5.66539001 346.32551575 C-5.80008013 349.27941081 -5.93135361 352.23344571 -6.0625 355.1875 C-6.15406935 357.20899469 -6.24586428 359.23047918 -6.33789062 361.25195312 C-6.56119685 366.16785485 -6.78144237 371.08388496 -7 376 C-10.99165106 378.29982545 -13.49536847 377.93492352 -18 377 C-19.73060051 375.26939949 -19.13230306 373.03236477 -19.13891602 370.72344971 C-19.13202759 369.52229523 -19.13202759 369.52229523 -19.125 368.296875 C-19.12234131 367.43374695 -19.11968262 366.5706189 -19.11694336 365.68133545 C-19.01719669 350.71333787 -18.50485121 335.74790841 -18.07287598 320.78668213 C-17.95016687 316.51539822 -17.83070533 312.24402347 -17.7109375 307.97265625 C-17.47706401 299.64834741 -17.23969894 291.32414313 -17 283 C-16.34 283 -15.68 283 -15 283 C-15.00523682 282.38745361 -15.01047363 281.77490723 -15.01586914 281.14379883 C-15.2916158 242.73124232 -13.98104477 204.35617074 -12 166 C-11.95532593 165.12601563 -11.91065186 164.25203125 -11.86462402 163.3515625 C-11.60616939 158.30107405 -11.34098646 153.25102095 -11.06466675 148.20147705 C-10.98061295 146.66373825 -10.89768687 145.12593735 -10.81594849 143.58807373 C-10.7035692 141.49331915 -10.58523704 139.39899475 -10.46484375 137.3046875 C-10.399021 136.12890137 -10.33319824 134.95311523 -10.26538086 133.74169922 C-10 131 -10 131 -9 129 C-8.85333832 126.36636216 -8.76488419 123.75575189 -8.71875 121.11987305 C-8.70070313 120.3047525 -8.68265625 119.48963196 -8.6640625 118.64981079 C-8.60502015 115.93718715 -8.55262206 113.22447389 -8.5 110.51171875 C-8.45947769 108.61431333 -8.41845433 106.71691856 -8.37695312 104.8195343 C-8.26812546 99.79871323 -8.16453751 94.77779912 -8.0625 89.75683594 C-7.90025814 81.7892394 -7.73241099 73.8217688 -7.56030273 65.85437965 C-7.50188227 63.10044885 -7.44704424 60.34646442 -7.39257812 57.592453 C-7.13975233 45.38240394 -6.63643015 33.19591137 -6 21 C-1.72917215 20.97186326 2.54160686 20.95306286 6.8125 20.9375 C8.6059082 20.92493164 8.6059082 20.92493164 10.43554688 20.91210938 C17.69700754 20.89232338 24.779388 21.22352437 32 22 C32 15.4 32 8.8 32 2 C29.31875 2.020625 26.6375 2.04125 23.875 2.0625 C15.8694152 2.09253559 7.97667301 1.71815706 0 1 C0 0.67 0 0.34 0 0 Z " fill="#BFA081" transform="translate(269,249)"/>
<path d="M0 0 C3.3 0 6.6 0 10 0 C10.51185205 30.62975157 9.446477 61.14104339 8.13964844 91.73461914 C8.03589858 94.16378568 7.93215679 96.59295255 7.82850647 99.02212334 C7.76075355 100.60923235 7.69287308 102.19633592 7.62486267 103.78343391 C7.09840024 116.10339918 6.68935481 128.42121777 6.4375 140.75 C6.17130644 153.62874758 5.58954864 166.46605687 4.86547852 179.32684326 C3.96084073 195.59911909 3.61678485 211.86912457 3.32421875 228.16235352 C3.28787006 230.18115432 3.25141425 232.1999532 3.21484375 234.21875 C3.19735077 235.18574326 3.17985779 236.15273651 3.16183472 237.14903259 C3.0529775 242.91404191 2.89979909 248.67306077 2.63475037 254.43336487 C2.21429813 263.61194526 1.91128556 272.78591687 1.75 281.97265625 C1.72933472 283.0602272 1.70866943 284.14779816 1.68737793 285.26832581 C1.58203992 290.81663583 1.48426353 296.36502302 1.39257812 301.91357422 C1.22137034 311.79781415 0.97374465 321.65386149 0.36645508 331.52148438 C-0.09698196 339.18254204 -0.27523296 346.84594022 -0.4458313 354.51824951 C-0.74826481 368.02535607 -1.12222299 381.51585098 -2 395 C-8.625 395.125 -8.625 395.125 -12 394 C-12.15490135 380.76454008 -11.89266381 367.5430729 -11.5625 354.3125 C-11.54285187 353.48773163 -11.52320374 352.66296326 -11.50296021 351.8132019 C-11.44408926 349.37146514 -11.38088109 346.92987591 -11.31640625 344.48828125 C-11.29968872 343.78629608 -11.28297119 343.08431091 -11.26574707 342.36105347 C-11.12222199 337.21046016 -10.82919046 332.07351874 -10.51147461 326.93115234 C-9.99631194 318.4949494 -9.71259349 310.06210287 -9.5 301.61328125 C-9.45953827 300.08094291 -9.41888341 298.54860966 -9.37805176 297.01628113 C-9.27063141 292.95386493 -9.16695318 288.8913614 -9.06411743 284.8288269 C-8.99945546 282.29112929 -8.93342475 279.75347087 -8.86694336 277.21582031 C-8.30215418 255.64488663 -7.83932334 234.07577143 -7.5 212.5 C-7.24812776 196.51185068 -6.74002644 180.58289336 -5.73266602 164.62451172 C-4.97198859 152.48678047 -4.60179109 140.35295676 -4.34179688 128.19482422 C-4.3255275 127.48279846 -4.30925812 126.77077271 -4.29249573 126.03717041 C-4.24960379 124.13243542 -4.21138556 122.22759672 -4.17358398 120.32275391 C-4.06207678 116.70205756 -3.79142124 113.10118783 -3.51586914 109.48950195 C-2.9444513 101.72801419 -2.69907952 93.96901704 -2.5 86.19140625 C-2.4592753 84.69383463 -2.4182523 83.1962711 -2.37695312 81.69871521 C-2.26947802 77.77679121 -2.16551576 73.85478262 -2.0625 69.93273926 C-1.8992432 63.74141644 -1.73047661 57.55023952 -1.56222534 51.35905075 C-1.52084983 49.83460223 -1.4796097 48.31015003 -1.43850708 46.78569412 C-1.01763873 31.18850474 -0.52263528 15.59408809 0 0 Z " fill="#92745C" transform="translate(284,291)"/>
<path d="M0 0 C0.98396507 0.03541649 0.98396507 0.03541649 1.98780823 0.07154846 C4.0559437 0.14731751 6.12361929 0.23170638 8.19140625 0.31640625 C9.60479619 0.3697142 11.01820769 0.42245378 12.43164062 0.47460938 C15.8726694 0.60281239 19.31334156 0.73874098 22.75390625 0.87890625 C24.0575702 4.78989811 24.03544069 8.60884861 24.19140625 12.69140625 C24.5024342 19.67965084 25.1805627 26.46495934 26.28125 33.37890625 C26.92168567 38.12130591 27.19151209 42.86110949 27.41210938 47.6394043 C27.55905643 50.61620679 27.80477788 53.03152115 28.75390625 55.87890625 C28.95604801 57.51814955 29.11797384 59.16253717 29.25390625 60.80859375 C29.33640625 61.76894531 29.41890625 62.72929687 29.50390625 63.71875 C29.58640625 64.72035156 29.66890625 65.72195313 29.75390625 66.75390625 C29.91799677 68.73068428 30.08458156 70.70725718 30.25390625 72.68359375 C30.3621875 73.9981958 30.3621875 73.9981958 30.47265625 75.33935547 C30.71057749 77.86128538 30.71057749 77.86128538 31.24916077 80.2368927 C31.72939975 82.75063069 31.96932224 85.13780557 32.11108398 87.69067383 C32.16461533 88.61966995 32.21814667 89.54866608 32.27330017 90.5058136 C32.35457909 91.99953743 32.35457909 91.99953743 32.4375 93.5234375 C32.56176294 95.6673227 32.68611487 97.81120274 32.81054688 99.95507812 C33.00092853 103.30711163 33.18961506 106.65922876 33.3762207 110.01147461 C34.0174368 121.44720269 34.74625445 132.78116411 36.29663086 144.13110352 C37.13997099 151.04307063 37.45257292 157.99052507 37.81640625 164.94140625 C37.9330483 167.11589535 38.05137864 169.29025711 38.17320251 171.46446228 C38.28198799 173.41238557 38.38544226 175.36060451 38.48852539 177.30883789 C38.66508892 179.68408031 38.92338236 182.05467722 39.26318359 184.41210938 C39.75127808 187.86033911 39.95807262 191.20806365 40.0703125 194.6875 C40.11220703 195.92822266 40.15410156 197.16894531 40.19726562 198.44726562 C40.23658203 199.72408203 40.27589844 201.00089844 40.31640625 202.31640625 C40.35958984 203.62029297 40.40277344 204.92417969 40.44726562 206.26757812 C40.55288149 209.47125941 40.65498726 212.67501236 40.75390625 215.87890625 C41.41390625 215.87890625 42.07390625 215.87890625 42.75390625 215.87890625 C42.78926987 216.56715485 42.82463348 217.25540344 42.86106873 217.96450806 C43.23017277 225.13492238 43.60406041 232.30507597 43.98071289 239.47509766 C44.12099284 242.15014718 44.25958437 244.8252762 44.39672852 247.50048828 C44.59461269 251.3481567 44.79688191 255.19557352 45 259.04296875 C45.09069008 260.83391464 45.09069008 260.83391464 45.18321228 262.66104126 C45.24319901 263.78175018 45.30318573 264.90245911 45.36499023 266.05712891 C45.4160643 267.03863922 45.46713837 268.02014954 45.51976013 269.03140259 C45.76569158 272.02223026 46.25124433 274.92151177 46.75390625 277.87890625 C46.90374184 279.47543343 47.02872804 281.07451718 47.12695312 282.67504883 C47.18371216 283.57230179 47.24047119 284.46955475 47.2989502 285.39399719 C47.35627319 286.34421249 47.41359619 287.2944278 47.47265625 288.2734375 C47.60148696 290.30013501 47.73039547 292.32682758 47.859375 294.35351562 C48.05835344 297.53791134 48.25581187 300.72239264 48.45166016 303.90698242 C48.64224126 306.98772836 48.8383951 310.06808105 49.03515625 313.1484375 C49.09247925 314.10877396 49.14980225 315.06911041 49.2088623 316.05854797 C49.29400085 317.38078621 49.29400085 317.38078621 49.38085938 318.72973633 C49.42891724 319.50883865 49.4769751 320.28794098 49.52648926 321.09065247 C49.57119655 322.90028024 49.57119655 322.90028024 50.75390625 323.87890625 C50.84076228 325.4406337 50.86092844 327.00619969 50.8515625 328.5703125 C50.84672852 329.98666992 50.84672852 329.98666992 50.84179688 331.43164062 C50.82922852 332.92147461 50.82922852 332.92147461 50.81640625 334.44140625 C50.81189453 335.43849609 50.80738281 336.43558594 50.80273438 337.46289062 C50.79090632 339.93495474 50.77442474 342.40690143 50.75390625 344.87890625 C49.29597741 344.93290361 47.83747913 344.97169802 46.37890625 345.00390625 C45.56679688 345.02710938 44.7546875 345.0503125 43.91796875 345.07421875 C41.75390625 344.87890625 41.75390625 344.87890625 39.75390625 342.87890625 C38.61607667 335.6612024 38.44308841 328.36275244 38.15371895 321.06938362 C38.06827548 318.9254498 37.97832105 316.78174555 37.88719177 314.63804626 C37.62895324 308.54826295 37.37734188 302.4582198 37.1315918 296.36791992 C36.48761908 280.46983554 35.77960753 264.67245449 33.75390625 248.87890625 C33.35083799 244.84077601 33.01064606 240.79944526 32.69140625 236.75390625 C32.60761719 235.71621094 32.52382813 234.67851563 32.4375 233.609375 C31.77737024 225.05863164 31.38870143 216.50672149 31.18334961 207.93310547 C31.1550708 207.00771973 31.12679199 206.08233398 31.09765625 205.12890625 C31.06961914 203.93007813 31.06961914 203.93007813 31.04101562 202.70703125 C30.78977344 200.23221027 30.34244815 198.01825007 29.76538086 195.60644531 C28.71137416 191.04421926 28.37303024 186.65775068 28.2265625 181.98828125 C28.15776619 180.30231539 28.08866333 178.61636202 28.01928711 176.93041992 C27.96996536 175.63036514 27.96996536 175.63036514 27.91964722 174.30404663 C27.43206827 161.67008784 26.87867324 149.17240011 24.79370117 136.68432617 C23.71580683 130.16081258 23.28113526 123.6936698 23.04467773 117.08862305 C22.93321383 114.0088789 22.79156116 111.09024077 22.25 108.05078125 C21.66218888 104.29249282 21.59539793 100.63351646 21.51391602 96.83422852 C21.10581119 78.44202968 19.19005801 60.21897581 17.27392578 41.93408203 C16.90163085 38.3611935 16.55182695 34.78679314 16.21435547 31.21044922 C16.12600937 30.28622665 16.03766327 29.36200409 15.94664001 28.40977478 C15.77682896 26.6259038 15.61049204 24.84169792 15.44801331 23.05714417 C15.42052153 19.14557794 15.42052153 19.14557794 13.75390625 15.87890625 C11.61003968 15.72031783 9.46123787 15.62761327 7.3125 15.5625 C6.00732422 15.52060547 4.70214844 15.47871094 3.35742188 15.43554688 C1.96875295 15.39573017 0.58008103 15.356018 -0.80859375 15.31640625 C-2.20118558 15.27322636 -3.59376403 15.22961225 -4.98632812 15.18554688 C-8.40614176 15.07904749 -11.82603138 14.97703702 -15.24609375 14.87890625 C-15.27295313 12.73313988 -15.29242463 10.5872798 -15.30859375 8.44140625 C-15.32019531 7.24644531 -15.33179688 6.05148437 -15.34375 4.8203125 C-15.24609375 1.87890625 -15.24609375 1.87890625 -14.24609375 0.87890625 C-9.41966112 -0.00589552 -4.89446542 -0.1890566 0 0 Z " fill="#AA8869" transform="translate(318.24609375,302.12109375)"/>
<path d="M0 0 C28.71 0 57.42 0 87 0 C83.11546137 2.58969242 79.89481607 2.25250329 75.39453125 2.1953125 C74.65054077 2.19329834 73.90655029 2.19128418 73.14001465 2.18920898 C70.36411361 2.17875468 67.58830053 2.15083203 64.8125 2.125 C55.5003125 2.063125 55.5003125 2.063125 46 2 C46 18.83 46 35.66 46 53 C55.24 53 64.48 53 74 53 C75.88285485 71.66276252 77.51092324 90.23674576 78 109 C75.84241537 105.76362306 75.66839004 104.44928366 75.40234375 100.66796875 C75.32306641 99.62189453 75.24378906 98.57582031 75.16210938 97.49804688 C75.08798828 96.40556641 75.01386719 95.31308594 74.9375 94.1875 C74.78219093 92.03499324 74.6247044 89.88264227 74.46484375 87.73046875 C74.36610962 86.29803833 74.36610962 86.29803833 74.26538086 84.83666992 C74.03138366 81.9598911 74.03138366 81.9598911 73.49072266 78.97924805 C73.0262301 76.15924672 72.80107698 73.45472676 72.68359375 70.6015625 C72.64169922 69.62832031 72.59980469 68.65507812 72.55664062 67.65234375 C72.51732422 66.65332031 72.47800781 65.65429688 72.4375 64.625 C72.39431641 63.60277344 72.35113281 62.58054687 72.30664062 61.52734375 C72.20112208 59.01834712 72.09900787 56.50926057 72 54 C67.85571691 53.97511516 63.71147446 53.95705314 59.56713867 53.94506836 C58.15990439 53.9400673 56.75267523 53.9332643 55.34545898 53.92456055 C53.31232431 53.91230841 51.27925886 53.9067293 49.24609375 53.90234375 C48.02591553 53.89710693 46.8057373 53.89187012 45.54858398 53.88647461 C41.96487943 54.00112357 38.53687745 54.42672037 35 55 C34.67 59.29 34.34 63.58 34 68 C36.07023437 67.97679687 38.14046875 67.95359375 40.2734375 67.9296875 C42.27571127 67.91578282 44.27798623 67.90194823 46.28027344 67.89013672 C47.67320781 67.88007123 49.06612102 67.86641766 50.45898438 67.84912109 C52.4595436 67.8248978 54.46025615 67.81459186 56.4609375 67.8046875 C58.26763916 67.78897705 58.26763916 67.78897705 60.11083984 67.77294922 C63 68 63 68 65 70 C65.43097064 72.97285238 65.75041695 75.88187723 65.99609375 78.87109375 C66.16211151 80.70300636 66.32862912 82.53487373 66.49560547 84.36669922 C66.6199295 85.77468781 66.6199295 85.77468781 66.74676514 87.21112061 C67.13343574 91.46952981 67.58646198 95.72042447 68.03515625 99.97265625 C69.85673223 117.6403936 71.44320704 135.18364224 71.82421875 152.94921875 C71.91525848 156.73178358 72.33561592 160.27120872 73 164 C73.19078649 166.85150439 73.27276128 169.70663172 73.375 172.5625 C73.66109401 179.20765469 74.34287796 185.63119104 75.4375 192.1875 C77.48386351 204.71203698 77.78503723 217.39030281 78.26538086 230.05151367 C78.30037689 230.90196762 78.33537292 231.75242157 78.37142944 232.62864685 C78.43656312 234.22485384 78.49498904 235.82135607 78.54507446 237.41810608 C78.73919609 242.11129129 79.46076344 246.43199691 80.55323792 250.99807739 C81.0785846 253.35213436 81.26923027 255.59398667 81.30859375 258.00390625 C81.33179688 258.89376221 81.355 259.78361816 81.37890625 260.70043945 C81.40791016 262.11715942 81.40791016 262.11715942 81.4375 263.5625 C81.86363372 277.50395292 83.22696888 291.32425594 84.62695312 305.19458008 C84.81161133 307.07826294 84.81161133 307.07826294 85 309 C85.07947372 309.77760681 85.15894745 310.55521362 85.24082947 311.35638428 C86.02255408 319.36347978 86.40262492 327.37837987 86.75390625 335.4140625 C86.8195747 336.87894409 86.88540944 338.34381823 86.95140076 339.8086853 C87.08827318 342.85936678 87.22339054 345.91011921 87.35717773 348.9609375 C87.52777227 352.84863808 87.70242925 356.7361433 87.87835789 360.62360573 C88.01455425 363.64174833 88.14877209 366.65997645 88.2823925 369.6782341 C88.34602011 371.11102156 88.41020222 372.54378451 88.47497749 373.97652054 C88.80593925 381.32402985 89.08035588 388.6446576 89 396 C88.34 395.67 87.68 395.34 87 395 C86.96463638 394.34933563 86.92927277 393.69867126 86.89283752 393.02828979 C86.52362618 386.24715131 86.14975435 379.46628111 85.77319336 372.68554688 C85.63332871 370.15599015 85.49464657 367.62636775 85.35717773 365.09667969 C85.15920992 361.45750237 84.95697014 357.81858358 84.75390625 354.1796875 C84.6934462 353.05134491 84.63298615 351.92300232 84.57069397 350.76046753 C84.51070724 349.69982086 84.45072052 348.63917419 84.38891602 347.54638672 C84.33784195 346.61817108 84.28676788 345.68995544 84.23414612 344.73361206 C83.9815675 341.78480396 83.50536629 338.91508838 83 336 C82.84006801 334.0854954 82.70998085 332.16832826 82.60546875 330.25 C82.53908203 329.10700439 82.47269531 327.96400879 82.40429688 326.78637695 C82.33275391 325.53687256 82.26121094 324.28736816 82.1875 323 C81.35288737 309.08412511 80.21639006 295.19974916 79 281.3125 C78.91632172 280.35206787 78.83264343 279.39163574 78.74642944 278.40209961 C77.95316792 269.3217332 77.13858433 260.24589846 76.19265747 251.18003845 C75.26302866 242.24434964 74.62942167 233.34083076 74.22314453 224.36737061 C73.66235607 212.26891746 72.66796024 200.37653096 71 188.375 C69.25585216 175.70059109 68.34129655 163.08983403 67.75 150.3125 C67.70907227 149.44091248 67.66814453 148.56932495 67.62597656 147.67132568 C67.17240925 137.77554586 66.87932604 127.90755579 67 118 C66.34 118 65.68 118 65 118 C64.01 101.83 63.02 85.66 62 69 C52.50107036 69.03959626 52.50107036 69.03959626 43.00219727 69.09008789 C41.82713623 69.09258545 40.6520752 69.09508301 39.44140625 69.09765625 C38.23170166 69.10289307 37.02199707 69.10812988 35.77563477 69.11352539 C33 69 33 69 32 68 C31.92755947 65.98035801 31.91622812 63.95832876 31.9375 61.9375 C31.94652344 60.83277344 31.95554687 59.72804688 31.96484375 58.58984375 C31.97644531 57.73519531 31.98804688 56.88054687 32 56 C31.01 56.495 31.01 56.495 30 57 C28.61509626 64.8699738 28.82221648 73.13977797 28.71875 81.11328125 C28.70074844 82.23282196 28.68274689 83.35236267 28.66419983 84.50582886 C28.62611688 86.88247222 28.58965545 89.25914206 28.55471802 91.63583374 C28.46217981 97.85375122 28.35390632 104.07139399 28.24609375 110.2890625 C28.22522202 111.50242783 28.20435028 112.71579315 28.18284607 113.96592712 C27.89204511 130.57366321 27.40757575 147.16818383 26.5625 163.7578125 C26.39397667 167.10928456 26.22759051 170.46085714 26.0625 173.8125 C25.99860077 175.10051514 25.99860077 175.10051514 25.93341064 176.41455078 C24.73341459 201.10982824 24.28746061 225.83456288 23.75656128 250.5513916 C23.67981626 254.10077938 23.60026546 257.6501017 23.52042007 261.19942093 C23.46623869 263.6669407 23.4166023 266.13452385 23.36715698 268.60214233 C23.2288531 275.0208571 23.06666865 281.37507328 22.23756409 287.7490387 C21.67426488 293.08639729 21.65164582 298.47435315 21.5 303.8359375 C21.43793979 305.84595272 21.37587582 307.85596783 21.31359863 309.86597633 C21.2060542 313.36889493 21.10322948 316.87195205 21 320.375 C20.87666732 324.55253328 20.75233932 328.73002559 20.62304688 332.90737915 C20.54312858 335.49955038 20.46613743 338.09181411 20.39257812 340.68417358 C20.19908902 346.95883206 19.83886075 353.1651239 19.22290039 359.41171265 C18.85447163 363.6898546 18.78552826 367.9660243 18.71875 372.2578125 C18.70065781 373.19699524 18.68256561 374.13617798 18.66392517 375.1038208 C18.62576606 377.09170626 18.58920733 379.07962301 18.5541687 381.06756592 C18.46311871 386.20668409 18.35925296 391.3455325 18.25390625 396.484375 C18.23344742 397.48653046 18.21298859 398.48868591 18.19190979 399.52120972 C17.95585608 410.68781185 17.53179594 421.84360015 17 433 C16.34 433 15.68 433 15 433 C14.67 433.99 14.34 434.98 14 436 C13.67 436 13.34 436 13 436 C12.94570489 424.45840989 13.05575324 412.93292828 13.37231445 401.39550781 C13.43748007 399.00073236 13.49728047 396.60586311 13.55664062 394.2109375 C13.75493313 386.58008975 14.03705051 378.9669284 14.50390625 371.34765625 C15.11900317 361.14092051 15.27664189 350.92971981 15.44555664 340.7074585 C15.53843506 335.12902661 15.64400693 329.55085153 15.75 323.97265625 C15.77664734 322.45483803 15.77664734 322.45483803 15.80383301 320.90635681 C15.97251691 311.87866337 16.33890065 302.86306694 16.75390625 293.84375 C16.9921606 287.96989962 17.10853813 282.09613775 17.21484375 276.21875 C17.23269424 275.23198273 17.25054474 274.24521545 17.26893616 273.22854614 C17.30602602 271.16638249 17.34307868 269.10421817 17.38009644 267.04205322 C17.66161483 251.51020018 18.04870322 236.00962986 18.9375 220.5 C19.86142575 204.33022403 20.40664196 188.1595865 20.87824249 171.9707489 C21.59467318 147.38851487 22.49370447 122.81950848 23.5625 98.25 C23.59476055 97.50582195 23.6270211 96.76164391 23.66025925 95.99491501 C24.04341159 87.15830979 24.43586881 78.32219389 24.84112549 69.48657227 C24.98986977 66.22231237 25.13369477 62.95786792 25.27685547 59.69335938 C25.36002641 57.87368303 25.4434961 56.05402029 25.52734375 54.234375 C25.57804771 53.03871918 25.57804771 53.03871918 25.629776 51.81890869 C25.94664242 45.17801135 25.94664242 45.17801135 27 42 C29.56893838 40.71553081 31.76576337 40.67022856 34.625 40.4375 C35.62789063 40.35371094 36.63078125 40.26992188 37.6640625 40.18359375 C38.43492187 40.12300781 39.20578125 40.06242187 40 40 C39.89171875 38.39898437 39.89171875 38.39898437 39.78125 36.765625 C39.04315345 25.16395764 38.89080904 13.62277094 39 2 C37.02 2 35.04 2 33 2 C33 8.27 33 14.54 33 21 C32.67 21 32.34 21 32 21 C32 14.73 32 8.46 32 2 C29.31875 2.020625 26.6375 2.04125 23.875 2.0625 C15.8694152 2.09253559 7.97667301 1.71815706 0 1 C0 0.67 0 0.34 0 0 Z " fill="#D3C2B2" transform="translate(269,249)"/>
<path d="M0 0 C0.99 0 1.98 0 3 0 C3.59593632 3.58963997 4.14683433 7.18490127 4.67480469 10.78515625 C4.89320927 12.27266853 5.11526839 13.75964843 5.34082031 15.24609375 C7.90665966 32.46478426 8.95650448 49.76241892 9.99780273 67.12695312 C10.05752762 68.0995961 10.1172525 69.07223907 10.17878723 70.07435608 C10.29209314 71.92894856 10.40127682 73.78379849 10.50590515 75.63890076 C10.37314668 79.64545588 10.37314668 79.64545588 12 83 C12.08685603 84.56172745 12.10702219 86.12729344 12.09765625 87.69140625 C12.09443359 88.63564453 12.09121094 89.57988281 12.08789062 90.55273438 C12.07951172 91.54595703 12.07113281 92.53917969 12.0625 93.5625 C12.05798828 94.55958984 12.05347656 95.55667969 12.04882812 96.58398438 C12.03700007 99.05604849 12.02051849 101.52799518 12 104 C9.36 104 6.72 104 4 104 C0.43913995 77.18650975 -1.18093329 50.77956421 -1.1875 23.75 C-1.18849701 22.63141602 -1.18949402 21.51283203 -1.19052124 20.36035156 C-1.19019903 17.17245677 -1.18121834 13.9847399 -1.16796875 10.796875 C-1.16676025 9.82224304 -1.16555176 8.84761108 -1.16430664 7.84344482 C-1.15802246 6.9550592 -1.15173828 6.06667358 -1.14526367 5.15136719 C-1.14145187 4.370578 -1.13764008 3.58978882 -1.13371277 2.78533936 C-1 1 -1 1 0 0 Z " fill="#997155" transform="translate(357,543)"/>
<path d="M0 0 C1.98 0 3.96 0 6 0 C6.71511973 12.34858538 7.14420386 24.63051353 7 37 C3.535 37.495 3.535 37.495 0 38 C-0.66 37.01 -1.32 36.02 -2 35 C-4.6768071 34.67439338 -7.13436428 34.53503711 -9.81640625 34.5234375 C-10.97389626 34.50006821 -10.97389626 34.50006821 -12.1547699 34.47622681 C-14.62400288 34.42861457 -17.09295185 34.4009119 -19.5625 34.375 C-22.03541909 34.33855951 -24.50817539 34.29798572 -26.98094177 34.25234985 C-28.52109795 34.22503987 -30.06137373 34.20372504 -31.60169983 34.18881226 C-36.88935403 34.11064597 -36.88935403 34.11064597 -38 33 C-38.09886353 31.37747508 -38.12971167 29.75052727 -38.125 28.125 C-38.12757813 27.24070312 -38.13015625 26.35640625 -38.1328125 25.4453125 C-38 23 -38 23 -37 20 C-24.96621499 19.81518078 -13.01847045 20.40649529 -1 21 C-0.67 14.07 -0.34 7.14 0 0 Z " fill="#9F7A60" transform="translate(302,251)"/>
<path d="M0 0 C0.33 0 0.66 0 1 0 C1.09361736 25.57914363 0.86005385 51.15554299 0.62768555 76.73339844 C0.58404568 81.54913891 0.54239718 86.36488961 0.50268555 91.18066406 C0.2979037 115.9696322 0.04487549 140.75492032 -0.5 165.5390625 C-0.52055891 166.47928253 -0.54111782 167.41950256 -0.56229973 168.38821411 C-0.87814336 182.59963264 -1.32315676 196.8006928 -2 211 C-2.66 211 -3.32 211 -4 211 C-4.33 211.99 -4.66 212.98 -5 214 C-5.33 214 -5.66 214 -6 214 C-6.05429511 202.45840989 -5.94424676 190.93292828 -5.62768555 179.39550781 C-5.56251993 177.00073236 -5.50271953 174.60586311 -5.44335938 172.2109375 C-5.24506687 164.58008975 -4.96294949 156.9669284 -4.49609375 149.34765625 C-3.88099683 139.14092051 -3.72335811 128.92971981 -3.55444336 118.7074585 C-3.46156494 113.12902661 -3.35599307 107.55085153 -3.25 101.97265625 C-3.23223511 100.96077744 -3.21447021 99.94889862 -3.19616699 98.90635681 C-3.02801916 89.90735288 -2.66377215 80.92034222 -2.25 71.9296875 C-1.7416057 59.39061883 -1.60875289 46.83347444 -1.39257812 34.28662109 C-1.18539883 22.83442781 -0.79473217 11.42716843 0 0 Z " fill="#C1A68D" transform="translate(288,471)"/>
<path d="M0 0 C0.98396507 0.03541649 0.98396507 0.03541649 1.98780823 0.07154846 C4.0559437 0.14731751 6.12361929 0.23170638 8.19140625 0.31640625 C9.60479619 0.3697142 11.01820769 0.42245378 12.43164062 0.47460938 C15.87276752 0.60175952 19.31313802 0.7405946 22.75390625 0.87890625 C22.75390625 5.49890625 22.75390625 10.11890625 22.75390625 14.87890625 C10.21390625 14.87890625 -2.32609375 14.87890625 -15.24609375 14.87890625 C-15.24609375 1.87890625 -15.24609375 1.87890625 -14.24609375 0.87890625 C-9.41966112 -0.00589552 -4.89446542 -0.1890566 0 0 Z " fill="#9B7559" transform="translate(318.24609375,302.12109375)"/>
<path d="M0 0 C0.33 0 0.66 0 1 0 C1.09673851 12.77072572 1.15453279 25.54145507 1.1875 38.3125 C1.19135208 39.79362526 1.19135208 39.79362526 1.19528198 41.30467224 C1.28506968 80.63747065 0.51432981 119.93353756 -0.5 159.25 C-0.51792115 159.94573765 -0.53584229 160.64147531 -0.55430651 161.35829592 C-1.01531231 179.23943536 -1.49655059 197.12000365 -2 215 C-2.33 215 -2.66 215 -3 215 C-3.21268611 165.28136567 -3.21891518 115.58308272 -2.0625 65.875 C-2.04061867 64.92244198 -2.01873734 63.96988396 -1.99619293 62.98846054 C-1.51256936 41.98486227 -0.95535875 20.98832326 0 0 Z " fill="#C9B29B" transform="translate(291,385)"/>
<path d="M0 0 C0.33 0 0.66 0 1 0 C1.31623397 2.70794522 1.62891384 5.41617849 1.9375 8.125 C2.0303125 8.9387207 2.123125 9.75244141 2.21875 10.59082031 C2.89995683 16.7192832 3.358665 22.82436544 3.65625 28.984375 C4.02540107 32.22283663 4.89657572 34.94050541 6 38 C6.8402827 40.8907511 7.1433108 43.5090287 7.2109375 46.515625 C7.23736328 47.42159424 7.26378906 48.32756348 7.29101562 49.26098633 C7.31873047 50.24736084 7.34644531 51.23373535 7.375 52.25 C7.85607136 66.29181693 9.21664938 80.22201568 10.62695312 94.19458008 C10.75005859 95.45036865 10.87316406 96.70615723 11 98 C11.07947372 98.77760681 11.15894745 99.55521362 11.24082947 100.35638428 C12.02255408 108.36347978 12.40262492 116.37837987 12.75390625 124.4140625 C12.8195747 125.87894409 12.88540944 127.34381823 12.95140076 128.8086853 C13.08827318 131.85936678 13.22339054 134.91011921 13.35717773 137.9609375 C13.52777227 141.84863808 13.70242925 145.7361433 13.87835789 149.62360573 C14.01455425 152.64174833 14.14877209 155.65997645 14.2823925 158.6782341 C14.34602011 160.11102156 14.41020222 161.54378451 14.47497749 162.97652054 C14.80593925 170.32402985 15.08035588 177.6446576 15 185 C14.34 184.67 13.68 184.34 13 184 C12.94695457 183.02400345 12.94695457 183.02400345 12.89283752 182.02828979 C12.52362618 175.24715131 12.14975435 168.46628111 11.77319336 161.68554688 C11.63332871 159.15599015 11.49464657 156.62636775 11.35717773 154.09667969 C11.15920992 150.45750237 10.95697014 146.81858358 10.75390625 143.1796875 C10.6934462 142.05134491 10.63298615 140.92300232 10.57069397 139.76046753 C10.51070724 138.69982086 10.45072052 137.63917419 10.38891602 136.54638672 C10.33784195 135.61817108 10.28676788 134.68995544 10.23414612 133.73361206 C9.9815675 130.78480396 9.50536629 127.91508838 9 125 C8.84006801 123.0854954 8.70998085 121.16832826 8.60546875 119.25 C8.50588867 117.53550659 8.50588867 117.53550659 8.40429688 115.78637695 C8.33275391 114.53687256 8.26121094 113.28736816 8.1875 112 C7.35288737 98.08412511 6.21639006 84.19974916 5 70.3125 C4.91632172 69.35206787 4.83264343 68.39163574 4.74642944 67.40209961 C3.95088245 58.2955717 3.13365108 49.19396603 2.17977905 40.1025238 C1.22652981 30.97625981 0.61810275 21.92712891 0.375 12.75 C0.33632813 11.50476563 0.29765625 10.25953125 0.2578125 8.9765625 C0.16574902 5.98449934 0.0797717 2.99241147 0 0 Z " fill="#D2C4B7" transform="translate(343,460)"/>
<path d="M0 0 C0.66 0 1.32 0 2 0 C2.02903577 3.10414702 2.0468107 6.20825909 2.0625 9.3125 C2.07087891 10.19357422 2.07925781 11.07464844 2.08789062 11.98242188 C2.09111328 12.82998047 2.09433594 13.67753906 2.09765625 14.55078125 C2.10289307 15.33106689 2.10812988 16.11135254 2.11352539 16.9152832 C2 19 2 19 1 22 C0.90898856 23.43648686 0.87210646 24.87679581 0.87060547 26.31616211 C0.86745331 27.18393784 0.86430115 28.05171356 0.86105347 28.94578552 C0.8630777 29.88019974 0.86510193 30.81461395 0.8671875 31.77734375 C0.86575241 33.22168541 0.86575241 33.22168541 0.86428833 34.69520569 C0.86360774 36.73194443 0.86545362 38.76868535 0.86962891 40.80541992 C0.87497301 43.92176192 0.86968283 47.03795941 0.86328125 50.15429688 C0.86394217 52.13281282 0.86522361 54.11132867 0.8671875 56.08984375 C0.86516327 57.02223373 0.86313904 57.95462372 0.86105347 58.91526794 C0.86578171 60.22165977 0.86578171 60.22165977 0.87060547 61.55444336 C0.87140106 62.31816757 0.87219666 63.08189178 0.87301636 63.86875916 C1.00192952 66.03238423 1.4593919 67.90687592 2 70 C2.09456634 72.49940629 2.14015806 74.96979826 2.1328125 77.46875 C2.13376923 78.186073 2.13472595 78.903396 2.13571167 79.64245605 C2.13639056 81.15535571 2.13455658 82.66825832 2.13037109 84.18115234 C2.1250187 86.49192877 2.1303259 88.80251084 2.13671875 91.11328125 C2.13605792 92.58593793 2.13477665 94.05859448 2.1328125 95.53125 C2.13483673 96.21989136 2.13686096 96.90853271 2.13894653 97.61804199 C2.12295286 100.90323406 1.96142113 103.8523146 1 107 C0.03714667 114.46899084 1.88001289 120.16948883 4.80859375 127.01953125 C7.27933736 133.20044066 7.33599153 139.42671126 7.71875 146.015625 C7.66884444 148.88139216 7.66884444 148.88139216 9 150 C9.04092937 152.33297433 9.04241723 154.66705225 9 157 C8.34 157.33 7.68 157.66 7 158 C4.86942343 152.66917467 4.56029881 147.65394597 4.1875 142 C3.68241195 135.43950507 2.88962076 129.84175734 0.375 123.75 C-2.92967688 115.63410237 -3.35069504 106.22138321 -1.484375 97.625 C-0.71520349 93.45658668 -0.85652056 89.29121295 -0.875 85.0625 C-0.87113281 84.18142578 -0.86726563 83.30035156 -0.86328125 82.39257812 C-0.86457031 81.53212891 -0.86585938 80.67167969 -0.8671875 79.78515625 C-0.86831543 79.01051025 -0.86944336 78.23586426 -0.87060547 77.43774414 C-0.95691806 74.92079893 -0.95691806 74.92079893 -1.48632812 72.15576172 C-2.39494402 66.57364712 -2.38992447 60.9168289 -2.55761719 55.2722168 C-2.62386468 53.09973112 -2.70214949 50.92790988 -2.78125 48.75585938 C-3.54380737 25.63142212 -3.54380737 25.63142212 -1 18 C-0.85507877 16.59335074 -0.75371069 15.1818867 -0.68359375 13.76953125 C-0.64169922 12.96708984 -0.59980469 12.16464844 -0.55664062 11.33789062 C-0.51732422 10.50451172 -0.47800781 9.67113281 -0.4375 8.8125 C-0.39431641 7.96751953 -0.35113281 7.12253906 -0.30664062 6.25195312 C-0.20068482 4.16815567 -0.0998498 2.08409897 0 0 Z " fill="#E1E1E1" transform="translate(319,459)"/>
<path d="M0 0 C0.33 0 0.66 0 1 0 C1.05024891 5.65184298 1.08611132 11.30354985 1.10986328 16.95556641 C1.11978746 18.86965201 1.13333114 20.78372302 1.15087891 22.69775391 C1.17573801 25.48343556 1.18661846 28.26891339 1.1953125 31.0546875 C1.20563507 31.88048309 1.21595764 32.70627869 1.22659302 33.55709839 C1.22762269 39.27942261 0.70990872 44.84353578 0.02514648 50.51513672 C-1.09559185 59.91407082 -1.4202252 69.24584807 -1.59765625 78.703125 C-1.63647726 80.44075213 -1.67608203 82.17836191 -1.71641541 83.91595459 C-1.81981063 88.44455408 -1.91425276 92.97329083 -2.00616455 97.50213623 C-2.17198208 105.59018733 -2.35360218 113.67791419 -2.53515625 121.765625 C-2.56385237 123.05056602 -2.56385237 123.05056602 -2.5931282 124.36146545 C-2.81892044 134.38463902 -3.06506412 144.40496973 -3.49609375 154.421875 C-3.5317897 155.29829651 -3.56748566 156.17471802 -3.60426331 157.07769775 C-3.87570275 162.7514055 -3.87570275 162.7514055 -5 165 C-5.15520557 167.32273159 -5.25019167 169.64959313 -5.31640625 171.9765625 C-5.33718735 172.66181 -5.35796844 173.3470575 -5.37937927 174.05307007 C-5.44480185 176.24361069 -5.50372554 178.43427189 -5.5625 180.625 C-5.60569218 182.1093875 -5.6493067 183.59376278 -5.69335938 185.078125 C-5.80047553 188.71862084 -5.90176362 192.35925251 -6 196 C-6.66 196 -7.32 196 -8 196 C-7.67 181.48 -7.34 166.96 -7 152 C-6.34 152 -5.68 152 -5 152 C-5.00523682 151.38745361 -5.01047363 150.77490723 -5.01586914 150.14379883 C-5.37556368 100.03698403 -3.01951689 50.00164619 0 0 Z " fill="#CDBAA6" transform="translate(259,380)"/>
<path d="M0 0 C28.71 0 57.42 0 87 0 C83.91960147 2.05359902 83.20515302 2.25738734 79.7121582 2.31884766 C78.42115959 2.34865219 78.42115959 2.34865219 77.1040802 2.37905884 C75.71644722 2.39638565 75.71644722 2.39638565 74.30078125 2.4140625 C73.35059616 2.43342865 72.40041107 2.4527948 71.4214325 2.4727478 C68.3852131 2.53254912 65.34895581 2.57893129 62.3125 2.625 C60.25454072 2.66317926 58.19659742 2.70223096 56.13867188 2.7421875 C51.0925777 2.83825119 46.04640871 2.92228031 41 3 C41.0714624 4.25917236 41.1429248 5.51834473 41.21655273 6.81567383 C42.16312755 23.86177315 42.16312755 23.86177315 42.0625 31.6875 C42.05798828 32.41259766 42.05347656 33.13769531 42.04882812 33.88476562 C42.03753595 35.58988404 42.01964838 37.2949574 42 39 C41.34 39 40.68 39 40 39 C39.10412395 26.6497088 38.88477044 14.38077633 39 2 C37.02 2 35.04 2 33 2 C33 8.27 33 14.54 33 21 C32.67 21 32.34 21 32 21 C32 14.73 32 8.46 32 2 C29.31875 2.020625 26.6375 2.04125 23.875 2.0625 C15.8694152 2.09253559 7.97667301 1.71815706 0 1 C0 0.67 0 0.34 0 0 Z " fill="#BBAFA5" transform="translate(269,249)"/>
<path d="M0 0 C0.33 0 0.66 0 1 0 C1.23567306 13.48097522 0.56971151 26.87632996 -0.16830444 40.33459473 C-1.47509754 64.29870657 -2.46084486 88.26157243 -3.1875 112.25 C-3.20884758 112.95311562 -3.23019516 113.65623123 -3.25218964 114.38065338 C-3.51086397 122.92016706 -3.76054701 131.45992509 -4 140 C-4.33 140 -4.66 140 -5 140 C-4.99777939 139.33014572 -4.99555878 138.66029144 -4.99327087 137.97013855 C-4.97118273 131.0112664 -4.95607858 124.05240418 -4.94506836 117.09350586 C-4.94003319 114.49486893 -4.9332047 111.89623485 -4.92456055 109.29760742 C-4.91245938 105.56688741 -4.90676359 101.83620478 -4.90234375 98.10546875 C-4.89718246 96.93976852 -4.89202118 95.7740683 -4.88670349 94.57304382 C-4.88662796 93.49214981 -4.88655243 92.4112558 -4.88647461 91.29760742 C-4.884254 90.34496506 -4.88203339 89.39232269 -4.87974548 88.41081238 C-4.89903818 85.85526502 -4.89903818 85.85526502 -6 83 C-5.70968221 81.65664433 -5.37025019 80.32355721 -5 79 C-4.53191984 75.21920465 -4.24520883 71.42188177 -3.9375 67.625 C-3.80226929 65.96380127 -3.80226929 65.96380127 -3.66430664 64.26904297 C-3.03687109 55.94083028 -2.88003913 47.68507001 -2.96630859 39.33740234 C-3.01707596 34.12369013 -2.88675302 29.04496971 -2.28515625 23.859375 C-1.79596069 18.95401679 -1.61294559 14.02648231 -1.39282227 9.10253906 C-1.23275176 5.86189939 -1.03147054 3.09441161 0 0 Z " fill="#D3C1AF" transform="translate(275,316)"/>
<path d="M0 0 C0.33 0 0.66 0 1 0 C1.17047252 23.42046531 0.70375141 46.8027819 0.07287598 70.21356201 C-0.05074827 74.83435459 -0.16967096 79.45526834 -0.2890625 84.07617188 C-0.52160171 93.05090131 -0.7590905 102.02549161 -1 111 C-1.33 111 -1.66 111 -2 111 C-2.02322795 98.28198478 -2.04096823 85.56397466 -2.05181217 72.8459425 C-2.05701819 66.93968643 -2.0640742 61.03344494 -2.07543945 55.12719727 C-2.08634966 49.42135285 -2.09229401 43.7155224 -2.09487724 38.00966835 C-2.09671688 35.83891899 -2.10030911 33.66817035 -2.10573006 31.49742699 C-2.11304858 28.44382483 -2.11398642 25.39027952 -2.11352539 22.33666992 C-2.11712067 21.45049484 -2.12071594 20.56431976 -2.12442017 19.65129089 C-2.09596593 2.09596593 -2.09596593 2.09596593 0 0 Z " fill="#D1BDA8" transform="translate(290,489)"/>
<path d="M0 0 C1.20205078 0.00644531 2.40410156 0.01289063 3.64257812 0.01953125 C5.51139648 0.04466797 5.51139648 0.04466797 7.41796875 0.0703125 C9.31579102 0.08384766 9.31579102 0.08384766 11.25195312 0.09765625 C14.36998439 0.12118856 17.48762972 0.15406705 20.60546875 0.1953125 C20.60546875 0.5253125 20.60546875 0.8553125 20.60546875 1.1953125 C19.75952148 1.23289673 19.75952148 1.23289673 18.89648438 1.27124023 C16.29931993 1.38849551 13.70240565 1.51062516 11.10546875 1.6328125 C10.21859375 1.67212891 9.33171875 1.71144531 8.41796875 1.75195312 C-0.56797661 1.51632609 -0.56797661 1.51632609 -8.39453125 4.1953125 C-8.48975543 7.05623068 -8.52006451 9.89294871 -8.50805664 12.75415039 C-8.50820267 13.65162491 -8.50834869 14.54909943 -8.50849915 15.47377014 C-8.50779967 18.45519384 -8.50000566 21.4365559 -8.4921875 24.41796875 C-8.49032344 26.47920192 -8.48889948 28.54043554 -8.48789978 30.60166931 C-8.48407362 36.0383526 -8.47424251 41.47500936 -8.4631958 46.91168213 C-8.45298378 52.45478964 -8.44840261 57.99790142 -8.44335938 63.54101562 C-8.43262033 74.42579293 -8.41554274 85.31055052 -8.39453125 96.1953125 C-4.76453125 96.8553125 -1.13453125 97.5153125 2.60546875 98.1953125 C2.60546875 98.5253125 2.60546875 98.8553125 2.60546875 99.1953125 C1.38859375 99.2365625 0.17171875 99.2778125 -1.08203125 99.3203125 C-1.76652344 99.34351563 -2.45101562 99.36671875 -3.15625 99.390625 C-5.84302353 99.15617705 -7.91812488 98.23178092 -10.39453125 97.1953125 C-10.52800859 89.3861909 -10.65851222 81.57702497 -10.78568268 73.76779842 C-10.84488053 70.1377368 -10.90493188 66.50769445 -10.96728516 62.87768555 C-11.31394601 42.6481378 -11.46411379 22.42790679 -11.39453125 2.1953125 C-7.36252534 0.47433859 -4.40537123 -0.04175707 0 0 Z " fill="#E3E3E3" transform="translate(230.39453125,148.8046875)"/>
<path d="M0 0 C0 11.88 0 23.76 0 36 C-1.32 36 -2.64 36 -4 36 C-4.90289857 24.31068812 -5.11465457 12.72024504 -5 1 C-2 0 -2 0 0 0 Z " fill="#D2BDA9" transform="translate(315,251)"/>
<path d="M0 0 C0.33 0 0.66 0 1 0 C1.05024891 5.65184298 1.08611132 11.30354985 1.10986328 16.95556641 C1.11978746 18.86965201 1.13333114 20.78372302 1.15087891 22.69775391 C1.24270065 32.98719023 1.07769845 43.06089958 -0.21331787 53.27618408 C-1.34889601 62.36156672 -1.70512368 71.48369263 -2.125 80.625 C-2.21172673 82.42189983 -2.2989641 84.21877508 -2.38671875 86.015625 C-2.59700028 90.343491 -2.80048545 94.67162484 -3 99 C-3.33 99 -3.66 99 -4 99 C-4.1161029 85.28234965 -3.79554051 71.63799349 -3.125 57.9375 C-3.03511513 56.03223617 -2.94543744 54.12696256 -2.85595703 52.22167969 C-2.0282308 34.80752971 -1.05087757 17.40199188 0 0 Z " fill="#D6CABF" transform="translate(259,380)"/>
<path d="M0 0 C3 1 3 1 4.38671875 3.3984375 C4.81597656 4.38070312 5.24523437 5.36296875 5.6875 6.375 C6.34298828 7.84066406 6.34298828 7.84066406 7.01171875 9.3359375 C8 12 8 12 8 15 C8.66 15 9.32 15 10 15 C10.28198242 15.59949463 10.56396484 16.19898926 10.85449219 16.81665039 C12.15005195 19.56666432 13.44999062 22.31458691 14.75 25.0625 C15.1934375 26.00544922 15.636875 26.94839844 16.09375 27.91992188 C20.13695942 36.45228293 24.7419292 44.32234852 30.08398438 52.1015625 C31.13364812 53.68556907 32.07592765 55.33959009 33 57 C32.67 57.99 32.34 58.98 32 60 C31.64808594 59.46632813 31.29617188 58.93265625 30.93359375 58.3828125 C30.43988281 57.63773438 29.94617188 56.89265625 29.4375 56.125 C28.88964844 55.29742188 28.34179688 54.46984375 27.77734375 53.6171875 C26.63426447 51.93397186 25.46169452 50.27021673 24.25390625 48.6328125 C20.20063316 43.12613859 17.23699868 37.5679823 14.4765625 31.31640625 C11.68134883 25.03826762 8.54343347 18.91057734 5.32421875 12.83984375 C4 10 4 10 4 7 C3.34 7 2.68 7 2 7 C1.34 4.69 0.68 2.38 0 0 Z " fill="#DFDFDF" transform="translate(336,636)"/>
<path d="M0 0 C9.57 0 19.14 0 29 0 C29.66 1.32 30.32 2.64 31 4 C34.465 3.505 34.465 3.505 38 3 C36 5 36 5 25 6 C24.67 13.92 24.34 21.84 24 30 C23.67 30 23.34 30 23 30 C23 22.08 23 14.16 23 6 C20.03 6 17.06 6 14 6 C17.28700157 4.35649921 19.47930015 3.58678331 23 3 C18.56261287 2.15057674 14.32893048 1.83670381 9.8125 1.8125 C8.60207031 1.79832031 7.39164062 1.78414063 6.14453125 1.76953125 C2.83791998 1.75243337 2.83791998 1.75243337 0 4 C0 2.68 0 1.36 0 0 Z " fill="#BEA796" transform="translate(271,285)"/>
<path d="M0 0 C0.33 0 0.66 0 1 0 C1.01417969 0.93199219 1.02835937 1.86398437 1.04296875 2.82421875 C1.35114467 11.06167779 2.49137351 17.53552202 5.84375 25.1953125 C8.34983669 31.27426603 8.34120845 37.5165169 8.71875 44.015625 C8.66884444 46.88139216 8.66884444 46.88139216 10 48 C10.04092937 50.33297433 10.04241723 52.66705225 10 55 C9.01 55.495 9.01 55.495 8 56 C5.86061329 50.64269278 5.52086646 45.55887289 5.125 39.875 C4.6472407 33.85089892 4.11674403 28.41750779 1.875 22.75 C-1.01104406 15.39593217 -0.33113417 7.76325654 0 0 Z " fill="#D8D8D8" transform="translate(318,561)"/>
<path d="M0 0 C9.57 0 19.14 0 29 0 C30.88285485 18.66276252 32.51092324 37.23674576 33 56 C30.84241537 52.76362306 30.66839004 51.44928366 30.40234375 47.66796875 C30.32306641 46.62189453 30.24378906 45.57582031 30.16210938 44.49804688 C30.08798828 43.40556641 30.01386719 42.31308594 29.9375 41.1875 C29.78219093 39.03499324 29.6247044 36.88264227 29.46484375 34.73046875 C29.399021 33.77551514 29.33319824 32.82056152 29.26538086 31.83666992 C29.03138366 28.9598911 29.03138366 28.9598911 28.49072266 25.97924805 C28.0262301 23.15924672 27.80107698 20.45472676 27.68359375 17.6015625 C27.62643188 16.28406006 27.62643188 16.28406006 27.56811523 14.93994141 C27.52501221 13.84601074 27.48190918 12.75208008 27.4375 11.625 C27.293125 8.11875 27.14875 4.6125 27 1 C18.09 1 9.18 1 0 1 C0 0.67 0 0.34 0 0 Z " fill="#C6B5A9" transform="translate(314,302)"/>
<path d="M0 0 C0.33 0 0.66 0 1 0 C1.04789169 0.63591568 1.09578339 1.27183136 1.14512634 1.92701721 C1.64530102 8.5623175 2.14874058 15.19736441 2.65405273 21.83227539 C2.84206047 24.30649607 3.0292435 26.78077956 3.21557617 29.25512695 C3.48398054 32.81738969 3.75537719 36.37941392 4.02734375 39.94140625 C4.10967758 41.04271378 4.19201141 42.1440213 4.27684021 43.27870178 C4.68282851 48.55884935 5.19589557 53.76626768 6 59 C6.10751986 61.6793948 6.0470821 64.31632049 6 67 C3 65 3 65 2.50709534 63.16360474 C2.42732704 62.07159256 2.42732704 62.07159256 2.34594727 60.95751953 C2.28150421 60.14994202 2.21706116 59.3423645 2.15066528 58.51031494 C2.10094574 57.68191101 2.0512262 56.85350708 2 56 C1.94874969 55.2458783 1.89749939 54.49175659 1.84469604 53.71478271 C1.69772506 51.37039465 1.57754399 49.02596447 1.46484375 46.6796875 C1.40037804 45.38709518 1.40037804 45.38709518 1.33460999 44.06838989 C1.245028 42.25497185 1.15686677 40.4414831 1.07006836 38.62792969 C0.93883566 35.9027365 0.80076412 33.1779494 0.66210938 30.453125 C0.15966845 20.29126602 -0.13164716 10.17486272 0 0 Z " fill="#B99D87" transform="translate(355,580)"/>
<path d="M0 0 C0.33 0 0.66 0 1 0 C4.15554943 20.15930027 5.18495596 39.60647132 5 60 C4.67 60 4.34 60 4 60 C3.94465088 59.20827393 3.88930176 58.41654785 3.83227539 57.60083008 C3.57898892 54.00447841 3.32079614 50.40849519 3.0625 46.8125 C2.97548828 45.56662109 2.88847656 44.32074219 2.79882812 43.03710938 C2.71181641 41.83505859 2.62480469 40.63300781 2.53515625 39.39453125 C2.456604 38.28956299 2.37805176 37.18459473 2.29711914 36.04614258 C2.02913776 33.29872793 1.56111899 30.69883586 1 28 C0.77540744 25.2882528 0.58446529 22.59068922 0.4375 19.875 C0.3950415 19.12742432 0.35258301 18.37984863 0.30883789 17.60961914 C-0.00510952 11.73684425 -0.11431902 5.88107851 0 0 Z " fill="#C3AD99" transform="translate(342,432)"/>
<path d="M0 0 C0.99 0.495 0.99 0.495 2 1 C2.37890625 4.01953125 2.37890625 4.01953125 2.5625 7.8125 C2.70949115 12.36504959 2.70949115 12.36504959 3.48193359 16.82836914 C4.14466813 19.60641991 4.32957193 22.31540184 4.53515625 25.1640625 C4.62216797 26.36933594 4.70917969 27.57460938 4.79882812 28.81640625 C4.88583984 30.07324219 4.97285156 31.33007812 5.0625 32.625 C5.15337891 33.85863281 5.24425781 35.09226562 5.33789062 36.36328125 C5.82496747 43.25560165 6.13538287 50.09045963 6 57 C5.67 57 5.34 57 5 57 C2.37150995 37.99048233 0.30455789 19.21865316 0 0 Z " fill="#D9D0C9" transform="translate(337,396)"/>
<path d="M0 0 C0.33 0 0.66 0 1 0 C1.55294926 14.38991612 2.09052941 28.78707161 2.25 43.1875 C2.27126953 44.14148682 2.29253906 45.09547363 2.31445312 46.07836914 C2.31896484 46.95356201 2.32347656 47.82875488 2.328125 48.73046875 C2.3374707 49.48739014 2.34681641 50.24431152 2.35644531 51.02416992 C1.90661937 53.51762292 0.91325632 54.40530401 -1 56 C-1.06921476 43.28178744 -0.86532014 30.5876505 -0.5 17.875 C-0.45159668 16.12630833 -0.40341867 14.37761041 -0.35546875 12.62890625 C-0.23956074 8.41919466 -0.12065874 4.20957799 0 0 Z " fill="#B79C81" transform="translate(283,629)"/>
<path d="M0 0 C0.33 0 0.66 0 1 0 C2.01427032 11.45345249 1.86230656 22.53795591 1 34 C0.67 34 0.34 34 0 34 C-0.91998053 26.83729446 -1.10946363 19.71146669 -1.125 12.5 C-1.12951172 11.61538086 -1.13402344 10.73076172 -1.13867188 9.81933594 C-1.13673828 8.98176758 -1.13480469 8.14419922 -1.1328125 7.28125 C-1.13168457 6.52908203 -1.13055664 5.77691406 -1.12939453 5.00195312 C-1 3 -1 3 0 0 Z " fill="#A6805E" transform="translate(355,546)"/>
<path d="M0 0 C0.33 0 0.66 0 1 0 C2.16484361 6.08307219 2.1631754 11.89517089 0.4609375 17.90234375 C-0.13282648 20.60447304 -0.05626016 23.11121956 0 25.875 C0.04077605 30.04435144 -0.09081143 33.90865143 -1 38 C-1.33 38 -1.66 38 -2 38 C-2.29498131 4.58996263 -2.29498131 4.58996263 0 0 Z " fill="#C6AA8D" transform="translate(268,365)"/>
<path d="M0 0 C1.80791016 0.00966797 1.80791016 0.00966797 3.65234375 0.01953125 C5.53373047 0.04466797 5.53373047 0.04466797 7.453125 0.0703125 C8.72285156 0.07933594 9.99257812 0.08835938 11.30078125 0.09765625 C14.43508593 0.12122245 17.56901041 0.15412418 20.703125 0.1953125 C20.703125 0.5253125 20.703125 0.8553125 20.703125 1.1953125 C19.85717773 1.23289673 19.85717773 1.23289673 18.99414062 1.27124023 C16.39697618 1.38849551 13.8000619 1.51062516 11.203125 1.6328125 C10.31625 1.67212891 9.429375 1.71144531 8.515625 1.75195312 C-0.47032036 1.51632609 -0.47032036 1.51632609 -8.296875 4.1953125 C-8.53051381 6.04423196 -8.70991135 7.90019281 -8.859375 9.7578125 C-8.94316406 10.76972656 -9.02695313 11.78164062 -9.11328125 12.82421875 C-9.17386719 13.60667969 -9.23445312 14.38914063 -9.296875 15.1953125 C-9.626875 15.1953125 -9.956875 15.1953125 -10.296875 15.1953125 C-10.296875 10.9053125 -10.296875 6.6153125 -10.296875 2.1953125 C-6.17173291 0.13274146 -4.47887362 -0.04225352 0 0 Z " fill="#D9D9DA" transform="translate(230.296875,148.8046875)"/>
<path d="M0 0 C0.66 0 1.32 0 2 0 C2 5.28 2 10.56 2 16 C1.01 16 0.02 16 -1 16 C-2.59712091 11.20863728 -2.58050244 6.74150731 -1 2 C-0.67 1.34 -0.34 0.68 0 0 Z " fill="#6A5144" transform="translate(292,291)"/>
<path d="M0 0 C0.33 0 0.66 0 1 0 C1 4.62 1 9.24 1 14 C-3.17908064 16.08954032 -3.80410573 16.16552619 -8 15 C-6.625 13 -6.625 13 -5 11 C-4.34 11 -3.68 11 -3 11 C-2.67 11.66 -2.34 12.32 -2 13 C-1.34 8.71 -0.68 4.42 0 0 Z " fill="#B99775" transform="translate(261,611)"/>
<path d="M0 0 C1.78409802 3.06246747 2.22880021 5.22079273 2.125 8.75 C2.10695313 9.54921875 2.08890625 10.3484375 2.0703125 11.171875 C2.04710937 11.77515625 2.02390625 12.3784375 2 13 C2.99 13.33 3.98 13.66 5 14 C5 16.31 5 18.62 5 21 C4.34 21.33 3.68 21.66 3 22 C1.11010621 17.12929813 0.5985553 12.77608662 0.375 7.625 C0.33632813 6.88894531 0.29765625 6.15289063 0.2578125 5.39453125 C0.16442002 3.59672594 0.0811629 1.79839892 0 0 Z " fill="#DFDFDF" transform="translate(323,595)"/>
<path d="M0 0 C0.33 0 0.66 0 1 0 C1.05786668 3.79160297 1.09355054 7.58309311 1.125 11.375 C1.14175781 12.45523437 1.15851563 13.53546875 1.17578125 14.6484375 C1.18222656 15.6796875 1.18867188 16.7109375 1.1953125 17.7734375 C1.20578613 18.72653809 1.21625977 19.67963867 1.22705078 20.66162109 C1 23 1 23 -1 25 C-1.86310633 20.87626978 -1.83413092 18.0779734 -1 14 C-0.78301513 11.56494763 -0.59709255 9.12698616 -0.4375 6.6875 C-0.35371094 5.43324219 -0.26992188 4.17898438 -0.18359375 2.88671875 C-0.12300781 1.93410156 -0.06242187 0.98148437 0 0 Z " fill="#CBB097" transform="translate(269,435)"/>
<path d="M0 0 C0.598125 0.20625 1.19625 0.4125 1.8125 0.625 C1.8125 2.605 1.8125 4.585 1.8125 6.625 C0.1625 6.625 -1.4875 6.625 -3.1875 6.625 C-3.8475 4.975 -4.5075 3.325 -5.1875 1.625 C-2.1875 -0.375 -2.1875 -0.375 0 0 Z " fill="#85614C" transform="translate(306.1875,281.375)"/>
<path d="M0 0 C0 0.66 0 1.32 0 2 C-0.66 2 -1.32 2 -2 2 C-2.33 3.32 -2.66 4.64 -3 6 C-3 4.35 -3 2.7 -3 1 C-4.98 1 -6.96 1 -9 1 C-9 0.67 -9 0.34 -9 0 C-5.62182575 -0.84454356 -3.32534757 -1.10844919 0 0 Z " fill="#C4B2A3" transform="translate(298,289)"/>
<path d="M0 0 C0.66 0 1.32 0 2 0 C2.33 1.32 2.66 2.64 3 4 C1.35 4.33 -0.3 4.66 -2 5 C-2 2 -2 2 0 0 Z " fill="#B4916D" transform="translate(256,622)"/>
</svg>
