<svg width="156" height="54" viewBox="0 0 156 54" fill="none" xmlns="http://www.w3.org/2000/svg">
<path fill-rule="evenodd" clip-rule="evenodd" d="M17.6588 28.6949L19.8187 32.3692L16.1584 32.3398L12.5415 26.1897L9.02587 32.2789L5.38315 32.2525L12.5006 19.9247L17.6588 28.6949ZM20.7969 34.0291L22.5796 37.0592L2.69747 36.9042L4.43393 33.8966L20.7969 34.0291ZM23.573 38.7466L21.8389 41.7502L0.000594258 41.5753L1.73705 38.5677L23.573 38.7466Z" fill="white"/>
<path d="M35.6821 40.126C34.7581 40.126 33.9301 39.976 33.1981 39.676C32.4661 39.376 31.8781 38.932 31.4341 38.344C31.0021 37.756 30.7741 37.048 30.7501 36.22H34.0261C34.0741 36.688 34.2361 37.048 34.5121 37.3C34.7881 37.54 35.1481 37.66 35.5921 37.66C36.0481 37.66 36.4081 37.558 36.6721 37.354C36.9361 37.138 37.0681 36.844 37.0681 36.472C37.0681 36.16 36.9601 35.902 36.7441 35.698C36.5401 35.494 36.2821 35.326 35.9701 35.194C35.6701 35.062 35.2381 34.912 34.6741 34.744C33.8581 34.492 33.1921 34.24 32.6761 33.988C32.1601 33.736 31.7161 33.364 31.3441 32.872C30.9721 32.38 30.7861 31.738 30.7861 30.946C30.7861 29.77 31.2121 28.852 32.0641 28.192C32.9161 27.52 34.0261 27.184 35.3941 27.184C36.7861 27.184 37.9081 27.52 38.7601 28.192C39.6121 28.852 40.0681 29.776 40.1281 30.964H36.7981C36.7741 30.556 36.6241 30.238 36.3481 30.01C36.0721 29.77 35.7181 29.65 35.2861 29.65C34.9141 29.65 34.6141 29.752 34.3861 29.956C34.1581 30.148 34.0441 30.43 34.0441 30.802C34.0441 31.21 34.2361 31.528 34.6201 31.756C35.0041 31.984 35.6041 32.23 36.4201 32.494C37.2361 32.77 37.8961 33.034 38.4001 33.286C38.9161 33.538 39.3601 33.904 39.7321 34.384C40.1041 34.864 40.2901 35.482 40.2901 36.238C40.2901 36.958 40.1041 37.612 39.7321 38.2C39.3721 38.788 38.8441 39.256 38.1481 39.604C37.4521 39.952 36.6301 40.126 35.6821 40.126ZM43.7324 28.912C43.1924 28.912 42.7484 28.756 42.4004 28.444C42.0644 28.12 41.8964 27.724 41.8964 27.256C41.8964 26.776 42.0644 26.38 42.4004 26.068C42.7484 25.744 43.1924 25.582 43.7324 25.582C44.2604 25.582 44.6924 25.744 45.0284 26.068C45.3764 26.38 45.5504 26.776 45.5504 27.256C45.5504 27.724 45.3764 28.12 45.0284 28.444C44.6924 28.756 44.2604 28.912 43.7324 28.912ZM45.2624 29.956V40H42.1844V29.956H45.2624ZM60.309 29.848C61.557 29.848 62.547 30.226 63.279 30.982C64.023 31.738 64.395 32.788 64.395 34.132V40H61.335V34.546C61.335 33.898 61.161 33.4 60.813 33.052C60.477 32.692 60.009 32.512 59.409 32.512C58.809 32.512 58.335 32.692 57.987 33.052C57.651 33.4 57.483 33.898 57.483 34.546V40H54.423V34.546C54.423 33.898 54.249 33.4 53.901 33.052C53.565 32.692 53.097 32.512 52.497 32.512C51.897 32.512 51.423 32.692 51.075 33.052C50.739 33.4 50.571 33.898 50.571 34.546V40H47.493V29.956H50.571V31.216C50.883 30.796 51.291 30.466 51.795 30.226C52.299 29.974 52.869 29.848 53.505 29.848C54.261 29.848 54.933 30.01 55.521 30.334C56.121 30.658 56.589 31.12 56.925 31.72C57.273 31.168 57.747 30.718 58.347 30.37C58.947 30.022 59.601 29.848 60.309 29.848ZM69.6256 31.378C69.9256 30.91 70.3396 30.532 70.8676 30.244C71.3956 29.956 72.0136 29.812 72.7216 29.812C73.5496 29.812 74.2996 30.022 74.9716 30.442C75.6436 30.862 76.1716 31.462 76.5556 32.242C76.9516 33.022 77.1496 33.928 77.1496 34.96C77.1496 35.992 76.9516 36.904 76.5556 37.696C76.1716 38.476 75.6436 39.082 74.9716 39.514C74.2996 39.934 73.5496 40.144 72.7216 40.144C72.0256 40.144 71.4076 40 70.8676 39.712C70.3396 39.424 69.9256 39.052 69.6256 38.596V44.788H66.5476V29.956H69.6256V31.378ZM74.0176 34.96C74.0176 34.192 73.8016 33.592 73.3696 33.16C72.9496 32.716 72.4276 32.494 71.8036 32.494C71.1916 32.494 70.6696 32.716 70.2376 33.16C69.8176 33.604 69.6076 34.21 69.6076 34.978C69.6076 35.746 69.8176 36.352 70.2376 36.796C70.6696 37.24 71.1916 37.462 71.8036 37.462C72.4156 37.462 72.9376 37.24 73.3696 36.796C73.8016 36.34 74.0176 35.728 74.0176 34.96ZM81.8424 26.68V40H78.7644V26.68H81.8424ZM93.541 34.816C93.541 35.104 93.523 35.404 93.487 35.716H86.521C86.569 36.34 86.767 36.82 87.115 37.156C87.475 37.48 87.913 37.642 88.429 37.642C89.197 37.642 89.731 37.318 90.031 36.67H93.307C93.139 37.33 92.833 37.924 92.389 38.452C91.957 38.98 91.411 39.394 90.751 39.694C90.091 39.994 89.353 40.144 88.537 40.144C87.553 40.144 86.677 39.934 85.909 39.514C85.141 39.094 84.541 38.494 84.109 37.714C83.677 36.934 83.461 36.022 83.461 34.978C83.461 33.934 83.671 33.022 84.091 32.242C84.523 31.462 85.123 30.862 85.891 30.442C86.659 30.022 87.541 29.812 88.537 29.812C89.509 29.812 90.373 30.016 91.129 30.424C91.885 30.832 92.473 31.414 92.893 32.17C93.325 32.926 93.541 33.808 93.541 34.816ZM90.391 34.006C90.391 33.478 90.211 33.058 89.851 32.746C89.491 32.434 89.041 32.278 88.501 32.278C87.985 32.278 87.547 32.428 87.187 32.728C86.839 33.028 86.623 33.454 86.539 34.006H90.391ZM112.553 27.364L109.259 40H105.533L103.517 31.684L101.429 40H97.7028L94.4988 27.364H97.7928L99.6108 36.562L101.861 27.364H105.245L107.405 36.562L109.241 27.364H112.553ZM118.668 40.144C117.684 40.144 116.796 39.934 116.004 39.514C115.224 39.094 114.606 38.494 114.15 37.714C113.706 36.934 113.484 36.022 113.484 34.978C113.484 33.946 113.712 33.04 114.168 32.26C114.624 31.468 115.248 30.862 116.04 30.442C116.832 30.022 117.72 29.812 118.704 29.812C119.688 29.812 120.576 30.022 121.368 30.442C122.16 30.862 122.784 31.468 123.24 32.26C123.696 33.04 123.924 33.946 123.924 34.978C123.924 36.01 123.69 36.922 123.222 37.714C122.766 38.494 122.136 39.094 121.332 39.514C120.54 39.934 119.652 40.144 118.668 40.144ZM118.668 37.48C119.256 37.48 119.754 37.264 120.162 36.832C120.582 36.4 120.792 35.782 120.792 34.978C120.792 34.174 120.588 33.556 120.18 33.124C119.784 32.692 119.292 32.476 118.704 32.476C118.104 32.476 117.606 32.692 117.21 33.124C116.814 33.544 116.616 34.162 116.616 34.978C116.616 35.782 116.808 36.4 117.192 36.832C117.588 37.264 118.08 37.48 118.668 37.48ZM130.129 40.144C129.145 40.144 128.257 39.934 127.465 39.514C126.685 39.094 126.067 38.494 125.611 37.714C125.167 36.934 124.945 36.022 124.945 34.978C124.945 33.946 125.173 33.04 125.629 32.26C126.085 31.468 126.709 30.862 127.501 30.442C128.293 30.022 129.181 29.812 130.165 29.812C131.149 29.812 132.037 30.022 132.829 30.442C133.621 30.862 134.245 31.468 134.701 32.26C135.157 33.04 135.385 33.946 135.385 34.978C135.385 36.01 135.151 36.922 134.683 37.714C134.227 38.494 133.597 39.094 132.793 39.514C132.001 39.934 131.113 40.144 130.129 40.144ZM130.129 37.48C130.717 37.48 131.215 37.264 131.623 36.832C132.043 36.4 132.253 35.782 132.253 34.978C132.253 34.174 132.049 33.556 131.641 33.124C131.245 32.692 130.753 32.476 130.165 32.476C129.565 32.476 129.067 32.692 128.671 33.124C128.275 33.544 128.077 34.162 128.077 34.978C128.077 35.782 128.269 36.4 128.653 36.832C129.049 37.264 129.541 37.48 130.129 37.48ZM136.406 34.96C136.406 33.928 136.598 33.022 136.982 32.242C137.378 31.462 137.912 30.862 138.584 30.442C139.256 30.022 140.006 29.812 140.834 29.812C141.494 29.812 142.094 29.95 142.634 30.226C143.186 30.502 143.618 30.874 143.93 31.342V26.68H147.008V40H143.93V38.56C143.642 39.04 143.228 39.424 142.688 39.712C142.16 40 141.542 40.144 140.834 40.144C140.006 40.144 139.256 39.934 138.584 39.514C137.912 39.082 137.378 38.476 136.982 37.696C136.598 36.904 136.406 35.992 136.406 34.96ZM143.93 34.978C143.93 34.21 143.714 33.604 143.282 33.16C142.862 32.716 142.346 32.494 141.734 32.494C141.122 32.494 140.6 32.716 140.168 33.16C139.748 33.592 139.538 34.192 139.538 34.96C139.538 35.728 139.748 36.34 140.168 36.796C140.6 37.24 141.122 37.462 141.734 37.462C142.346 37.462 142.862 37.24 143.282 36.796C143.714 36.352 143.93 35.746 143.93 34.978Z" fill="white"/>
<path d="M151.935 40.216C151.311 40.216 150.783 40 150.351 39.568C149.919 39.136 149.703 38.608 149.703 37.984C149.703 37.36 149.919 36.832 150.351 36.4C150.783 35.968 151.311 35.752 151.935 35.752C152.535 35.752 153.039 35.968 153.447 36.4C153.879 36.832 154.095 37.36 154.095 37.984C154.095 38.608 153.879 39.136 153.447 39.568C153.039 40 152.535 40.216 151.935 40.216Z" fill="#7DB800"/>
</svg>
